<?xml version="1.0" encoding="UTF-8"?>
<svg id="Layer_1" xmlns="http://www.w3.org/2000/svg" version="1.1" xmlns:cc="http://creativecommons.org/ns#" xmlns:dc="http://purl.org/dc/elements/1.1/" xmlns:rdf="http://www.w3.org/1999/02/22-rdf-syntax-ns#" viewBox="0 0 200 200">
  <!-- Generator: Adobe Illustrator 29.1.0, SVG Export Plug-In . SVG Version: 2.1.0 Build 142)  -->
  <defs>
    <style>
      .st0 {
        fill: #ffb612;
      }

      .st1 {
        fill: #a42c4a;
      }

      .st2 {
        fill: #fff;
      }

      .st3 {
        fill: #97233f;
      }
    </style>
  </defs>
  <rect class="st1" width="200" height="200"/>
  <g>
    <path d="M188.6,149.3c.4-21.8-16.7-37.3-16.7-37.3-1.9-13.8-6.9-33.8-33.6-48.5-40.6-22.3-63.1-4.1-127-43.3,1.3,7.3,5.5,17.5,10.9,23.8l-6.6-2.2c4.8,10.1,12.5,19.3,16.5,22.3l-7.4-2.3c7.9,19.3,23.2,30.7,23.2,30.7,3.5,29.5,25.1,34.5,26.9,52.7,28.2,4.4,58,34.6,58,34.6,15.6-26.8,37.4-32,55.8-30.4"/>
    <path class="st3" d="M134.9,67.2c-29.4-16.1-65.3-5.6-111.2-34.1,4.5,13.6,33,29.5,33,29.5l-25.1-8.2c6.4,11.1,32.6,25,32.6,25l-23.4-7.6c9.7,16.1,31.7,27,31.7,27l-13.5-1c1.8,15.2,22.7,28.2,23.8,39.9,9.5,3.6,21.7,9.9,31.2,18.1,18.2-8.9,13.2-39.2-21.5-82.2,47.7,2.9,46.4,38.3,73.8,33.2-2-9.5-3.3-24.5-31.3-39.8"/>
    <path class="st2" d="M152.5,111.4c-6.1,9.9-16.5,7.1-20.2-5.2l7.5.5c-6.6-3.9-12.5-9.7-17.1-15.4-1.4,27.2,24.2,39.4,32.7,20.3-1,0-1.9,0-2.9-.2"/>
    <path class="st0" d="M166.3,114.8c-3.4,6.9-11.7,11.4-18.9,13.4,17.1,2,31.1,8.8,37.8,15.5-1.5-11.2-11.6-24.3-18.8-28.9h-.1ZM149.1,134.5c-.9,0-1.9,0-2.8.2,0,0,5.1,8.7,2.3,18.3,11.1-6.2,25.4-9.2,35.8-7.1-6.3-5.3-21.2-11.7-35.3-11.3h0Z"/>
  </g>
</svg>