<?xml version="1.0" encoding="UTF-8"?>
<svg id="Layer_1" xmlns="http://www.w3.org/2000/svg" version="1.1" xmlns:cc="http://creativecommons.org/ns#" xmlns:dc="http://purl.org/dc/elements/1.1/" xmlns:rdf="http://www.w3.org/1999/02/22-rdf-syntax-ns#" viewBox="0 0 200 200">
  <!-- Generator: Adobe Illustrator 29.1.0, SVG Export Plug-In . SVG Version: 2.1.0 Build 142)  -->
  <defs>
    <style>
      .st0 {
        fill: #fff;
      }

      .st1 {
        fill: #a91a31;
      }

      .st2 {
        fill: #a5acaf;
      }

      .st3 {
        fill: #a71930;
      }
    </style>
  </defs>
  <rect class="st1" width="200" height="200"/>
  <path class="st2" d="M183.2,48.6c-25.6-16.2-84.2-28.5-127.9-38.7L5,63.9l43.2-.9c-21.5,34.7-17.1,116.4,37.2,127.2-2.8-5.4-7.7-15.2-1.4-27.4,4.5-8.7,29.4-56.4,29.4-56.4h6c8.1,0,10.7,3,7.2,7.3,21.5-.3,34.8-8.4,40.7-17.1-4.5-8.3-18.9-18-24.7-21.9h30.1c8.6,0,10.6,3.6,8.6,7.6,14.1-2.8,21.3-21.5,2-33.7"/>
  <path class="st0" d="M179.8,50.2C144.9,30.7,58.6,17.7,58.6,17.7L21.6,57.3h38.3c-28.3,37.4-22,112.9,19.6,128.6-3-7-4.4-15.2.9-25.5,6-11.7,15.6-31.3,29.3-57.6h11.2c9.3,0,12.2,3.9,11,6.9,7.6,0,21.6-.7,31.7-13-8.4-11.8-36.3-25.5-36.3-25.5h47.8c7,0,10.5,2.5,9.6,6.7,12.2-6,9-19.9-4.8-27.6"/>
  <path d="M56.2,23.2l3.4,4.3-21.5,23.2,75.7,5.8c0,.3-.3.6-.4.8h-50.8l3.9,3.7c-3.2,4.5-6,9.4-8.2,14.5l42.5-8.7c-.2.3-.5.7-.7,1l-50.7,16.9,4.5,2.5c-2.1,7-3.5,14.2-4.1,21.4l43-26.1c0,.4-.3.8-.4,1.2l-47.5,37.4,4.4,1.1c.2,8.1,1.4,16,3.4,23.4l38.6-45.5c0,.4,0,.7.2,1.1l-38.3,56.1,3.6.2c4.4,10,10.7,18.2,18.8,23.3-3.1-6.9-2.1-15.2,1.5-22.5,3.1-6.4,43.7-87.1,43.7-87.1l-6.8-3.6h63c6.5,0,10,2.7,10,6.4,4-3.4,4.9-13.6-8.6-21-29.4-16.2-122.2-29.8-122.2-29.8h0ZM123.2,72.4l.9,2.6c-2.1,4.1-9.5,18.8-12.1,24h19.3c.3,3.4,3.7,6.3,7.2,7.1-2.1-2.8-1.3-5.6.3-7.1h9.1c2.5,0,1.8,3-2.4,6.2,6.5-1.5,11.3-4.4,14.4-8.6-6-9.1-36.8-24.2-36.8-24.2h0Z"/>
  <path class="st0" d="M181.7,58.7l.8,3.6c-5.5,1-15.3,1.9-18,2.1-.1.3-.3.5-.4.8h14.5c5.8,0,8.2,2.7,8.7,4.3.8-2.2,0-7.9-5.6-10.8ZM165.5,51.6c3.2,1.1,10.5,5.1,13.2,8.3h-5.2c-2.1-3.4-8-8.3-8-8.3"/>
  <path class="st3" d="M63.9,35l-6.1,6.7,100.5,13.9c.2-.4.4-.7.5-1.1-20.5-6-61-14.3-94.9-19.5h0ZM97.6,62.2l-27.3.6c-1.4,1.9-2.6,3.8-3.8,5.8l30.3-5.4c.3-.3.5-.7.8-1h0ZM88,78.2l-29.8,10.7c-.7,2.5-1.2,5-1.7,7.5l31-16.9c.2-.4.3-.8.5-1.3h0ZM121.1,91.6l-2.2,4.3h23.7c.2-.4.3-.7.5-1l-21.9-3.3h-.1ZM83.9,98l-28.8,24.5c.2,2.7.5,5.4.9,8l28-31.2v-1.3h0ZM89,117.4l-25.1,37.9c1.3,2.5,2.8,4.8,4.4,7l21.4-43.8c-.2-.4-.4-.7-.6-1.1h-.1Z"/>
</svg>