<?xml version="1.0" encoding="UTF-8"?>
<svg id="Layer_1" xmlns="http://www.w3.org/2000/svg" version="1.1" xmlns:cc="http://creativecommons.org/ns#" xmlns:dc="http://purl.org/dc/elements/1.1/" xmlns:rdf="http://www.w3.org/1999/02/22-rdf-syntax-ns#" viewBox="0 0 200 200">
  <!-- Generator: Adobe Illustrator 29.1.0, SVG Export Plug-In . SVG Version: 2.1.0 Build 142)  -->
  <defs>
    <style>
      .st0 {
        stroke: #000;
        stroke-miterlimit: 10;
        stroke-width: .1px;
      }

      .st1 {
        fill: #261976;
      }

      .st2 {
        fill: #fff;
      }

      .st3 {
        fill: #bb9334;
      }

      .st4 {
        fill: #c60c30;
      }

      .st5 {
        fill: #241773;
      }
    </style>
  </defs>
  <rect class="st1" width="200" height="200"/>
  <path class="st2" d="M194.6,110.6c-.8-4.7-3.8-11.5-14.2-17.7-.7-.4-1.4-.8-2.2-1.2,1.9-.7,3.9-1.3,3.9-1.3l-11.5-4.5c-1-.4-2-.7-3-1.1.8-.8,1.6-1.6,1.6-1.6l-8.8-1.2c-3.8-.5-6.8-.7-9.1-.6,0-.4,0-.7,0-1,0,0-1.5-11-1.5-11,0,0-3.4,4.6-3.7,5.1-.7-1.2-1.5-2.3-2.5-3.4,0,0-9.5-10.7-9.5-10.7,0,0,.4,3.2.7,5.7-3.1-2.1-6.4-4.1-10.2-5.7-15.2-6.5-34.5-7.9-52.9-3.7-15.4,3.5-37.5,12.6-56,36l-10.6,13.6,16-6.4c.1,0,12.5-4.9,22.4-6.3,3.7-.5,6.6-.6,4.3,4.5-1.8,4-6,9.9-6,9.9l-8,11.7,13.4-4.6c6.4-2.2,12.2-3.3,15.1-3.4,1,0,1.2.7.9,1.5,0,.3-.1.4-.9,1.5l-8.4,12,13.7-4.9c10-3.6,23.1-5.9,27.8-4.1.4.1,1.6.8.4,2.6l-5.4,8.6s8-1.2,9.1-1.4c.6,7.8,4.6,12.1,5,12.6l5.8,5.9,2-8c1.5-5.8,4.2-8.9,6.7-10.7,0,0,.5,3.3.5,3.3l5.4-1.9c4.5-1.6,8.1-3.6,10.7-5.8,3.4-.3,11.7-.8,19.7,0,13.8,1.4,23-.5,25.5-1.1,3.3-.8,6.2.6,6.2.7l4.1,2.2,2.2-4.1c.3-.5,1.5-3.1,1.5-6.9s0-1.9-.2-2.9"/>
  <path class="st3" d="M192.7,111.4c-.7-4.1-3.5-10.3-13-16-2.5-1.5-5.3-2.8-8.1-3.9l3.4-1.1-4.6-1.8c-2.3-.9-4.7-1.6-7.2-2.2.5-.5,1-1,1-1l-3.5-.5c-5.5-.8-9.2-.7-11.4-.5,0-.5,0-1,0-1.5s0-1.4-.1-2l-.6-4.4s-2.2,2.9-2.5,3.4c-.7-2-1.9-4.4-4-6.8l-3.8-4.3.4,3.6c-3.4-3.2-8.2-6.6-14.7-9.4-14.8-6.4-33.6-7.7-51.5-3.6-15,3.4-36.7,12.3-54.7,35.3l-4.5,5.8,6.8-2.7c.1,0,12.9-5.1,23.2-6.5,4.1-.5,6.9,0,7.9,1.4,1,1.3.6,3.9-.8,7-2,4.2-6.2,10.3-6.2,10.3l-3.4,5,5.7-2c7.5-2.6,17-4.6,19.2-3.1.5.3.8.7.9,1.3.4,1.8-1.2,4.6-1.8,5.4l-3.6,5.1,5.9-2.1c9.4-3.4,26.2-7.2,31.4-3.2,2.4,1.8.2,5.5,0,5.6l-2.3,3.7,4.3-.7s1.1-.2,2.1-.3c0,.3,0,.7,0,1,0,8.3,4.2,12.7,4.4,12.9l2.5,2.5.9-3.4c2.4-9.7,8.2-13,11.4-14.1,0,.6.5,3.8.5,3.8l2.3-.8c5.6-2,8.8-4.3,10.5-5.9,2.6-.2,12.1-.9,21.2,0,13.4,1.3,22.3-.4,24.7-1,4.4-1.1,8.1.9,8.1.9l1.8,1,.9-1.8c0-.1,1.2-2.3,1.2-5.7s0-1.6-.2-2.4"/>
  <path d="M178.5,97.4c-4-2.8-9.3-4.8-14.5-6.3,2.2-.7,4.3-.7,4.3-.7-3.3-1.3-6.8-2.1-10-2.6l1.2-1.1c-5.9-1-10-.9-12.5-.7.3-1.2.6-3.1.2-5.5,0,0-.7,2.1-2.5,3.5-.2-2.8-1.1-6.8-4.1-9.5l.6,4.9c-2.6-4-7.7-9.1-17.2-13.5-25.8-12.1-71.4-7.5-96.4,24.8,0,0,9.7-4.9,23.2-5.2,7.1-.2,8.8,3.8,6.2,10.4-2.6,6.7-7.1,12.6-7.1,12.6,0,0,30.5-10.8,20.9,4.2,0,0,23-6.9,29.9,1.2,3.2,3.7-.5,9-.5,9l6.5-1.4c-2.1,8.3,1.6,13.6,1.6,13.6,2.7-10.8,12.1-13.7,15.4-14.3l.7,2.9c5.6-2,8.2-4.2,9.7-5.9,11.8-1.9,19.8-.3,28.9.2,13.2.7,20.1-1.6,22.3-1.6,1.6,0,3.5,1.4,3.5,1.4,0,0,5.5-9.3-10.3-20.5"/>
  <path class="st4" d="M132.4,85.9c.8,1.9-.3,4.1-2.5,4.8-2.2.7-4.7-.3-5.5-2.2-.8-1.9.3-4.1,2.5-4.8,2.2-.7,4.7.3,5.5,2.2"/>
  <path class="st2" d="M126.7,88.7c-.6-1.5.3-3.1,2-3.7.7-.2,1.3-.2,2-.1-.9-.5-2-.7-3.1-.4-1.7.6-2.6,2.2-2,3.7.4.9,1.2,1.5,2.3,1.7-.5-.3-.9-.8-1.1-1.3M85.6,100.2c.2-.1.8-.5.9-.6.2-.1.3-.2.5-.3.1,0,.3-.2.4-.3.2-.1.4-.2.6-.3.1,0,.3-.2.4-.2,4.1-2.3,9.1-4.4,14.7-5.8.2-.3.4-.7.6-1,1.9-4.1-1.1-8.1-6.4-8.8,5.1-1.1,10.5-4.5,11.6-6.9,1.4-3.1,2.3-8.5-11-9.8-13.3-1.4-36.3,4-46.3,11.7,0,0,15.4-3.3,31.2-4-2.4.8-5.3,2.2-6.9,4.2-2.8,2.8-7,8.4-11.6,24.6,0,0,.2,0,.7,0,2-.3,7.9-1,11.5-1.1l5.9-.3c.6,0,1.3,0,2,0,0,0,.1-.1.2-.2.2-.1.3-.2.5-.3.1,0,.3-.2.4-.3M167.6,115c6.6,0,11.5-.6,15.4-1.5-14.3-6.1-42.4-8.8-46.7-8.4,0,0-2.4.7.4,3.3-3.8-1.5-7.6-4.4-7.9-5.8-.3-1.5,2.5-2,9.1-1.2,24.8,2.9,46.2,7.1,49.1,13.1,0,0,1.5-7.6-10.8-14.8-10.6-7-26.8-8.2-26.8-8.2l4.1,3.3-7.6-.7,6,4.4c-6.5-2.1-23.9-7.8-38.4-4.2,0,0,15.9-.2,23.1,4.1-26.8-4.4-40.8,4.9-40.8,4.9,15.1-4.3,27.1-3.1,31.1-2.5-6.3,1.5,1.1,6.2,5.7,8.6.5,1.3,1.8,3.9.5,6.1,0,0,1.4-1.7,2.4-4.3l3.7,3c11.1-1.4,19.3,1,28.4.9"/>
  <path d="M132.2,87c.4,1.2-.2,2.5-1.4,2.9-1.2.4-2.6-.1-3-1.3-.4-1.2.2-2.5,1.4-2.9,1.2-.4,2.6.1,3,1.3"/>
  <path class="st3" d="M92.8,67.8c-2,0-4.3.1-6.9.5-2.7.4-16,1.7-27.3,7.2,9.9-2.4,21.5-3.3,28.9-3.6,3.1-.1,6.5,0,6.5,0,2.2,0,4.3.7,5,1.9.8,1.3,1,2.9-.5,4.9-.8,1.1-1.8,2.2-4.7,3.4l3.3-.7c5-1.1,9.4-3.8,10.5-6,.8-1.6.8-2.8.2-3.8-1.2-2-4.3-3.2-9.7-3.5,0,0-2.1-.3-5.4-.3h0ZM88.3,74.7c-1.5,0-6.6.8-10.5,4.5-3.7,3.2-7.6,11.6-10.7,21.6,5.4-.6,10.3-.8,10.3-.8l5.1-.2c1.3,0,2.8,0,4.2-.2,3.9-2.4,8.9-4.7,14.5-6.3.4-.5.7-1,.9-1.5.6-1.2.6-2.7.2-3.9-.6-1.8-1.8-3-5.6-3.9-5-1.2-12.3-.7-12.3-.7,1.7-4.1,2.9-6.5,4.2-8.6,0,0-.2,0-.3,0h0ZM83.9,84.3h5.5c2.8,0,4.1,1.2,4.7,2.1.9,1.5.8,3.6-.4,6.1-2.2,5-7.6,5.4-9.2,5.4l-6.2.2c2.7-8.5,5.6-13.9,5.6-13.9h0Z"/>
  <path class="st0" d="M94.6,73.4h-2.7s-.5.4-1.3,1.7c3.1,0,4.4,1.6,2.7,5.1-.2.4-.4.8-.7,1.2,1.9-.6,3.4-1.6,4.1-2.9,1.6-2.8.4-4.8-2.2-5h0ZM85.3,85.6c-.3.6-.6,1.2-.8,1.7h1.3c3.2,0,4.9,1.8,2.9,6-.5,1.1-1.2,1.9-1.9,2.6,2-.5,4.2-1.7,5.4-4.3,2-4.2.2-6-2.9-6h-3.9,0Z"/>
  <path class="st5" d="M92.2,63.5c-20.7.1-40,7.8-52.2,19.5,0,0,17.1-5.4,22.2,0,6,6.1-3.1,20.6-3.1,20.6l5.9-.9c-.4,0-.7,0-.7,0,4.6-16.2,8.8-21.8,11.6-24.6,1.7-2,4.6-3.4,6.9-4.2-15.8.8-31.2,4-31.2,4,9.9-7.7,33-13.1,46.3-11.7,13.3,1.4,12.4,6.7,11,9.8-1.1,2.5-6.5,5.8-11.6,6.9,5.3.7,8.3,4.8,6.4,8.8-.2.3-.4.7-.6,1-5.6,1.3-10.6,3.5-14.7,5.8-.1,0-.3.2-.4.2-.2.1-.4.2-.6.3-.1,0-.3.2-.4.3-.2.1-.4.2-.5.3-.1,0-.3.2-.4.3-.2.1-.3.2-.5.3-.1,0-.3.2-.4.3-.2.1-.3.2-.5.3-3.4,2.3-5.8,4.6-7.1,6.4,0,0,34.5-7,28.6,10.4l8.9-2.4c-.6,1.1-1.6,2.4-3,3.9-4.2,4.7-3.9,9.1-3.9,9.1,0,0,1.2-4.9,9.2-8.2,7.3-3,9-8.2,9-8.2,0,0,2.4,3.6.4,8.6,0,0,3.4-.8,6.4-5,1.2-2.2,0-4.8-.5-6.1-4.6-2.4-12-7.1-5.7-8.6-4-.6-16-1.8-31.1,2.5,0,0,13.9-9.3,40.8-4.9-7.2-4.3-23.1-4.1-23.1-4.1,5.5-1.4,11.5-1.4,17.1-.8-2.3-.6-5.3-1.4-8.9-1.9-5.5-.7-10.8-.4-15.6.5,5.5-5.7,15.4-4.9,15.4-4.9-6.6-4.5-15.3-3-15.3-3,9.7-5,20.5-3.3,20.5-3.3-3.4-4.5-11.4-5.5-11.4-5.5,15.9-.6,21.4,7.7,21.4,7.7-4-1.7-6.8-1.5-6.8-1.5,0,0,3.8.6,6.4,5.4,2.7,5.1,5.1,5,5.1,5,0,0,4.3-16.5-24.4-25-8.2-2.5-16.6-3.6-24.7-3.5h0ZM90.7,75c-.8,1.2-2,3.3-3.5,6.7h2.4c1.1,0,2.2-.2,3.2-.4.2-.3.4-.7.7-1.2,1.6-3.5.4-5.1-2.7-5.1h0ZM84.5,87.4c-2.2,4.6-3.6,8.9-3.6,8.9h3.4c.7,0,1.6,0,2.5-.3.8-.6,1.4-1.5,1.9-2.6,2-4.2.2-6-2.9-6h-1.3,0Z"/>
</svg>