<?xml version="1.0" encoding="UTF-8"?>
<svg id="Layer_1" xmlns="http://www.w3.org/2000/svg" version="1.1" xmlns:cc="http://creativecommons.org/ns#" xmlns:dc="http://purl.org/dc/elements/1.1/" xmlns:rdf="http://www.w3.org/1999/02/22-rdf-syntax-ns#" viewBox="0 0 200 200">
  <!-- Generator: Adobe Illustrator 29.1.0, SVG Export Plug-In . SVG Version: 2.1.0 Build 142)  -->
  <defs>
    <style>
      .st0 {
        fill: #003591;
      }

      .st1 {
        fill: #00338d;
      }

      .st2 {
        fill: #fff;
      }

      .st3 {
        fill: #c60c3d;
      }
    </style>
  </defs>
  <rect class="st0" width="200" height="200"/>
  <path class="st2" d="M25.3,126.5c13.2-8.4,17.3-17.9,17.3-17.9l-37.3,5.3,15.8-28.1,31.8-2.7s12.4-11,31.6-19c0,0,2-3.5,12.9-9.8,0,0,10-5.9,21.5-9.7,0,0,7.8-2.7,10-2.8l-.7-2.5,14.6-1.3.4-1.4s7.6.5,12,2.5l.9-1.1s10.2,4.7,17.8,16.2c0,0,7.4-.4,14,2.7,0,0,7,2.8,6.7,10.9,0,0,0,10.4-3.1,20.6,0,0-.5,1.6-.9,2.6,0,0-.6,1.3-1.9,3,0,0-3.5,3.6-4.8,6.7,0,0-.7,2.1-2.2,5.9,0,0-1.1,5.2-8.7,5.5,0,0-7.4,9.3-10.5,12l-.3-2.3s-5.1,4.8-9.6,7.6l1.5-13.2s.4-2.4-1.1-2.5h-3.9c0,0,1.3,7.9-.3,11.5,0,0-1,5.8-9.9,8.5,0,0-6.9,2.2-14.8,2.8l-1.7-.3-12.5,5.1,3.6-13.1s-4.7.5-5.1-.1l-13.9,6,5.5-15.6,3.7-2.1-1.2-1.6h-7.7c0,0-2.8,2.3-2.8,2.3-6.5-1.7-12.9-1.2-12.9-1.2l-32.3,26.2-8.1,17.9-9.7-12.9,3-4-1.1-.9-4.4,3.4-6.5,17.4-9.5-13.5,2.5-5.5-.5-3.4c2.8-1.9,4.7-3.1,6.1-4.7.8-1,1.2-1.4,2.1-3.1.9-2.1.9-4.3,1.8-5,1.2-.8,2.1-1.4,2.4-1.6"/>
  <path class="st3" d="M23,88.7l-12.3,21.7,159.1-23.7s-5.5-4.2,2.5-10.9l-149.3,12.8"/>
  <path class="st1" d="M184.5,72.8s-12.4,8.5-8.1,15.8c0,0-4.5,2.5.5,6,0,0-7.7,3.5-5.7-6l-125.1,18.9s-2.7,11.3-20.4,22.1c0,0-1.3.8-1.4,2.2,0,0,.1,1.8-1.5,3.9,0,0-2,3.5-6.6,6.5l.3,2.3-2.2,5,5.3,7.6,4.8-13,9.5-7.3s9.3-14.6,24.6-20.3c0,0,13.5-5.8,33.3-2.5l1.8-1.7,22.9-.5s.9.2.3.7c0,0-4.5,3.5-9.4,3.9l.5,1.4s.1.5-.2.6l-4.8,1.9-3.2,8.8,9-3.9.5.4s7.8.5,19.6-1.9c0,0,8.2-1.6,10.4-12.2l15.5-.7s3.2.7,2.8,3.7l-1.1,8.8,7.1-6.3.5,1.7s5.4-5.8,6.8-9.2c0,0,5.9.1,7.4-2.3,0,0,.7-.7,2.6-5.9,0,0,.9-3.7,4.5-7.2,0,0,2.8-2.6,4.4-9.6,0,0,1.9-10.1,1.9-12,0,0,2-10-4.8-12.9,0,0-5.1-2.8-14.6-2,0,0-1.9-6.6-15-15.7l-1,1.4s-4.5-3.1-10.8-3l-.3.9s-3.8,0-12.2.8l.8,2.3s-17.3.8-41.9,17.2l-.4,1.3-3.1,1.5,1.7.9s-18.8,6.8-32.4,17.9l127.1-10.4"/>
  <path class="st1" d="M140.7,113.4h5.4c0,0,1.1,7,.4,10.2,0,0-1.1,4.7-5.9,6.5,0,0-7.1,3-17.7,3.7l-.5-.4-8,3.4,2.6-9.3s10.8-.8,14-1.8c0,0,8.3-1.6,9.6-12.2"/>
  <path class="st1" d="M74.5,116.2s-19.1-.2-32.1,15.1c0,0,0,5.6-6.8,9.4l.3,1.8-3.2,4.4,5.7,7.6,6.4-14.2,29.7-24.1"/>
</svg>