<?xml version="1.0" encoding="UTF-8"?>
<svg id="Layer_1" xmlns="http://www.w3.org/2000/svg" version="1.1" viewBox="0 0 200 200">
  <!-- Generator: Adobe Illustrator 29.1.0, SVG Export Plug-In . SVG Version: 2.1.0 Build 142)  -->
  <defs>
    <style>
      .st0 {
        fill: #fff;
      }

      .st1 {
        fill: #0b182c;
      }

      .st2 {
        fill: #e64100;
      }

      .st3 {
        fill: #0b162a;
      }
    </style>
  </defs>
  <rect class="st1" width="200" height="200"/>
  <path class="st0" d="M169.5,56.6c0-.3,0-.6-.2-.9-3-8.5-11.2-7.4-16.1-6.8-1.2.2-2.9.4-3.6.3-1.6-1.8-3.4-3.5-5.2-4.9,0-.8-.2-1.5-.8-2.1-.5-.5-1.2-.7-2-.7-.3,0-1.3,0-2.2,0-.2-.4-.5-.8-.8-1.1-.8-.6-1.7-.7-2.3-.7-.3-.4-.7-.8-1.2-1-4.5-1.8-9.3-2.7-14.4-2.7-6.5,0-13.5,1.6-20.7,4.7-3.7-.5-6.9-1.5-10-2.5-4-1.2-7.7-2.4-12.1-2.4-3.5,0-7.1.7-11,2.2-.6.2-1.1.7-1.4,1.3-.8-.2-1.5-.3-1.8-.4-.7-.2-1.4-.2-2.1.2-.4.3-.8.6-1,1.1-.4,0-.7.2-1,.3-.6.3-1,.8-1.2,1.5,0,0,0,0,0,0,0,.2,0,.4,0,.5h0c0,0,0,0,0,0-1.1.3-2,.8-2.6,1.2-.2,0-.3,0-.5-.1-.1,0-.2,0-.3,0h0c-.2,0-.4-.1-.6-.2-.1,0-.2,0-.3,0h0c-.2,0-.4,0-.5,0s-.3,0-.4,0h0c-.2,0-.4,0-.5,0h-1.5c-.2,0-.4,0-.6,0s-.3,0-.5,0c-.2,0-.4,0-.6,0-.2,0-.4,0-.5,0s-.3,0-.6,0c-.2,0-.4,0-.5,0-.2,0-.4,0-.6.1-.2,0-.3,0-.5.1-.2,0-.4.1-.6.2h0c-.2,0-.3.1-.5.2-.2,0-.4.1-.5.2h0s0,0,0,0c-.1,0-.3,0-.4.2-.2,0-.4.2-.5.2h0s-.1,0-.1,0c-.1,0-.2.1-.4.2-.2,0-.3.2-.5.2h-.2c0,.2-.2.2-.4.3h-.2c0,0-.1,0-.2,0-.5,0-.9.1-1.3.4-.3.2-.6.4-.9.6,0,0-.2.2-.3.2-.2.2-.4.3-.6.5,0,0,0,0-.2.1-.3,0-.6.2-.8.4-.2,0-.2.1-.3.2,0,0,0,0-.1,0h-.2c0,.1,0,.2,0,.2,0,0-.2,0-.2.1,0,0,0,0,0,0,0,0,0,0-.1,0,0,0-.2,0-.2.2,0,0-.1,0-.1,0,0,0-.1,0-.2.1,0,0-.1,0-.2.1,0,0-.1,0-.2.2s0,0-.1.1c0,0,0,0-.2.1l-.2.2c0,0-.1,0-.2.2,0,0,0,0-.2.1v.2c-.1,0-.4.3-.4.3v.2c-.1,0-.3.2-.3.2,0,0,0,0-.1.2h0c0,.2-.1.3-.2.3,0,0,0,0-.1.2,0,0,0,.1-.1.2v.2c-.2,0-.2.1-.2.2s0,.1-.1.2v.2c-.1,0-.2.2-.2.2,0,0,0,.2-.1.2s0,0,0,.2c0,0,0,.1-.1.2v.2c-.1,0-.2.2-.2.2v.2c-.1,0-.2.2-.2.2,0,0,0,.2,0,.2,0,0,0,.2,0,.2v.2c0,0-.2.3-.2.3,0,0,0,.1,0,.2v.3c-.1,0-.1,0-.1.2,0,0,0,.2,0,.3,0,0,0,0,0,.2,0,.1,0,.2,0,.3s0,0,0,.2c0,.1,0,.2,0,.3,0,0,0,0,0,.1,0,.2,0,.3,0,.4h0c0,.7,0,1.3,0,2h0c0,.2,0,.4,0,.5h0c0,.2,0,.4,0,.5,0,0,0,0,0,.1,0,.1,0,.2,0,.4,0,0,0,0,0,.1v.4c0,0,.1,0,.1.1v.4c.1,0,.1,0,.1.2,0,.2,0,.2.1.3,0,0,0,.1,0,.2,0,.1,0,.2.1.3,0,0,0,0,0,.2,0,.1,0,.2.2.3,0,0,0,.1,0,.2,0,0,0,.2.2.3,0,0,0,.1,0,.2,0,.2.1.2.2.3,0,0,0,.2.1.2l.2.3c0,0,0,.1.1.2l.2.3c0,0,0,.1.2.2,0,0,.2.2.2.3,0,0,0,.1.2.2,0,0,.2.2.2.3l.2.2c0,0,.2.2.2.2l.6.6c0,0,.2.2.3.2l.2.2c0,0,.2.2.3.2l.2.2c0,0,.2.2.3.2,0,0,.2.1.2.2,0,0,.2.2.3.2,0,0,.2.2.2.2.1,0,.2.2.3.2h0s.2.2.2.2c.1,0,.2.1.3.2,0,0,0,0,0,0h.2c.1.2.2.3.4.3h0c0,0,.1,0,.2.2.1,0,.2.1.3.2h0s0,0,0,0h.2c.2.2.3.2.4.3h0s.2.1.2.1c.2,0,.3.2.5.2,0,0,0,0,0,0,0,0,0,0,0,0,0,2.4-.7,3.5-1.6,5.3-.8,1.5-1.9,3.3-2.6,6.3-.2.7,0,1.4.3,1.9.4.6.9,1,1.6,1.1,0,0,.1,0,.2,0,.5.6.2,3.9,0,5.6-.5,4-1.1,8.9,1.5,12.4l.2,2.3c0,0,0,0,0,0h0c0,.2-.1.3-.2.4,0,0,0,0,0,0,0,.2-.1.2-.2.3h0c0,.2,0,.3-.1.4h0c0,.2,0,.3-.1.4h0c0,.2,0,.3-.1.4,0,0,0,0,0,0h0c0,.1,0,.2,0,.4,0,0,0,0,0,0,0,.1,0,.2,0,.3,0,0,0,0,0,.1,0,.1,0,.2,0,.3,0,0,0,0,0,.1,0,0,0,.2,0,.3h0c0,.2,0,.3,0,.5v.5c0,0,0,.2,0,.3,0,0,0,0,0,.1,0,0,0,.2,0,.3,0,0,0,0,0,.1,0,0,0,.2,0,.3s0,.1,0,.2c0,0,0,.2,0,.3,0,0,0,.1,0,.2,0,0,0,.2.1.3,0,0,0,.1,0,.2,0,0,0,.2.1.3,0,0,0,.1,0,.2,0,0,0,.2.2.3,0,0,0,0,0,.1s0,0,0,0c0,0,0,.2.2.2,0,0,0,0,0,.1h0c0,0,0,.2.2.2,0,0,0,0,0,.1h0c0,.1,0,.2.2.2,0,0,0,0,.1.1h0c0,.1,0,.2.2.2s0,0,.1.2l.6.6c0,0,.2.1.2.2h0c0,0,0,.1.1.2,0,0,.2.1.2.2h0c0,0,.1.1.2.2,0,0,.2.2.2.2h0s0,0,0,0h0c.1.2.3.3.4.4h0c0,0,0,0,0,0,1.1,6.6,3.1,11.7,6.1,15.2.5.6,1.2.9,1.9.9s.5,0,.7,0c1.1-.3,2-.5,2.8-.5,1.2,0,2,.2,2.3.8.4.6.4,1.5.2,2-.4,1-.2,2.1.6,2.8,8.4,7.6,13.3,8.8,16.6,9.5,2.5.6,3.4.8,5.2,3.8,1.8,3.4,3,6.3,4,9,2.6,6.6,4.6,11.9,14.8,12.8,1.9.2,4,.2,6.5.1.3,0,.7,0,1.1,0,.3,0,.6,0,.9-.1,0,0,.1,0,.2,0,.6,0,1.3-.3,1.9-.5.1,0,.2,0,.3,0h0c.2,0,.4-.1.6-.2.1,0,.2-.1.3-.2h0c0,0,0,0-.2,0,.2-.1.5-.2.8-.3,0,0-.1,0-.2,0,0,0,.2,0,.3-.2.7-.3,1.3-.8,1.9-1.2,0,0,0,0,.2-.1.5-.4,1.1-.9,1.6-1.4,0,0,.2-.2.2-.3.2-.2.3-.3.4-.5,0-.1.2-.2.2-.3h0c0,0,.5-.7.5-.7.2-.2.3-.4.4-.6,0-.2.2-.3.2-.4.1-.2.2-.4.3-.6h0c0-.2,0-.2.1-.4.2-.3.3-.6.5-1,0,0,0-.2,0-.2h0c.1-.4.2-.6.3-.9h0c0,0,0-.3,0-.3,0-.2.1-.4.2-.6.1-.2.2-.4.3-.6l.3-.8c1.1-3.2,1.4-5.3,1.5-7.1,3.2-1.6,5.9-5.4,8.8-9.5,2.1-3,4.7-6.7,6.5-7.3,0,0,.2,0,.2,0,1.3-.6,3-1,4.7-1.4,1.6-.4,3.5-.8,5.3-1.4,0,0-.2,0-.3,0,.4,0,.7-.2,1.1-.4,0,0,0,0,0,0,.1,0,.2,0,.4.1h0c0,0,.2,0,.3,0h.4c0,0,.2,0,.3,0,0,0,0,0,.2,0,.1,0,.3,0,.4-.1,0,0,0,0,0,0,.1,0,.3-.1.4-.2h0s0,0,0,0c1.6-1.1,2.5-2.5,3.1-3.8.2,0,.3-.2.5-.3.2-.1.4-.3.5-.5h.1c.2-.4.4-.6.6-.8,0,0,0-.1,0-.2,0,0,0,0,0,0,0-.1.2-.3.2-.4.4-.2.7-.5,1-.9s.5-.8.8-1.2h0c.8-.8,2.3-2.3,2.7-5.1,0-.1,0-.2,0-.4,0-.3,0-.6,0-1,.5-1.4,1.2-2.6,1.8-3.6.7-1.2,1.3-2.4,1.8-3.8,0-.2.2-.4.2-.6,0,0,0,0,0-.1,0-.2,0-.4.1-.5,0,0,0-.1,0-.2,0-.2,0-.4,0-.5,0,0,0-.2,0-.2,0-.2,0-.4,0-.5s0-.2,0-.2c0-.2,0-.4,0-.5v-1.1c0-.2,0-.3,0-.5,0-.1,0-.2,0-.4,0-.2,0-.3,0-.5s0-.2,0-.4c0-.2,0-.4,0-.5,0-.1,0-.3,0-.4,0-.2,0-.4,0-.5s0-.3,0-.4c0-.2,0-.4-.1-.5h0c0,0,0-.4,0-.4,0-.2,0-.4-.2-.6h0c0-.1,0-.5,0-.5,0-.2-.1-.4-.2-.6,0,0,0-.2,0-.2v-.3c0,0-.1,0-.1-.1.5-.5.8-1.1.8-1.8.2-12.5-1-20.7-3.9-26.4,0,0,.2,0,.3,0h.2c0-.2.2-.2.3-.2.3-.1.6-.3.8-.4,0,0,0,0,0,0,0,0,.2,0,.2-.1.3-.2.6-.3.8-.5h0s.2-.1.2-.1c.3-.2.6-.4.8-.5,0,0,0,0,0,0,0,0,0,0,.2,0,.2-.2.5-.4.8-.6,0,0,0,0,0,0,.3-.2.5-.4.8-.7h0s0,0,.1,0c.2-.2.5-.5.7-.7h0c0,0,0,0,0,0,.2-.2.5-.5.7-.8,0,0,0,0,0,0,1.1-1.4,1.7-3.1,1.9-4.9.2-.3.4-.6.5-.8,0,0,0,0,0,0,.9-1.1,1.1-2.8.7-4.3h0Z"/>
  <path id="BG" class="st2" d="M167,56.6c.1-1.4-6-3.2-13.8-4-2.8-.3-5.3-.4-7.5-.4,0,0,0,0,0,0,0-4-5.7-7.5-13.9-9.2-2.9-1.2-6.9-1.9-11.3-1.9s-7.7.6-10.5,1.6c-3,.5-5.8,1.3-8,2.2-.7,0-1.4,0-2.1,0-2.8-1.8-7.6-3.2-13.2-3.8-6.4-.6-12.1.2-14.9,1.9-6,.5-10.3,2.2-10.3,4.1s0,0,0,0c-.1,0-.3,0-.4,0-1.5,0-2.9.6-3.8,1.6-1.8-.7-4.3-1.2-7.2-1.2-5.3,0-9.7,1.6-9.7,3.5s.4,1.2,1.1,1.7c-3.8,1.4-6.2,3.8-6.2,6.5,0,4.3,6.2,7.8,13.8,7.8s4.3-.3,6.2-.8c-6.4,8.4-10.2,18.8-10.2,30s0,1.4,0,2.1c-1.1,1.2-1.8,4.3-1.8,7.8s1.3,8.4,2.9,8.4,1.3-.6,1.8-1.7c3.5,9.8,10.1,18.3,18.7,24.4,0,.2,0,.4,0,.7,0,1,.6,1.9,1.4,1.9s.9-.3,1.2-.8c5.4,3.4,11.4,5.9,17.9,7.3-.5,1.8-.8,3.6-.8,5.6,0,4.9,1.6,9.3,4.3,12.5-.1.3-.2.6-.2.8,0,2.7,5.2,4.9,11.6,4.9s11.6-2.2,11.6-4.9,0-.5-.1-.7c2.7-3.3,4.4-7.7,4.4-12.6s-.2-2.9-.4-4.3c.6.8,1.4,1.2,2.2,1.2,2,0,3.6-2.6,3.6-5.8s0-.6,0-.9c7.4-3.6,13.9-8.7,18.9-15,1.3,1.1,2.6,1.7,4,1.7,3.1,0,6-2.8,8.1-7.5l1.1,1.4.3-.8-.6-2.3c2.1-5.4,3.4-12.7,3.4-20.7s0-1.5,0-2.3c.6-2.6,1-5.7,1-8.9,0-9.9-3.3-18-7.3-18s-1.4.3-2.1.8c-1.2-.9-2.5-1.5-3.8-1.5s-.9,0-1.4.2c-.2-.3-.4-.5-.5-.8l21.6-7-.3-1.4-9.3-1.6c6,.3,10.6-.2,10.7-1.4ZM62.6,58.1c0-.4-.2-.8-.5-1.2,2.3-.5,4-2.5,4-4.8s-.1-1.3-.4-1.9c1.9.5,4.2.9,6.9,1.1-3.6,1.9-7,4.2-10,6.8ZM137.2,59.9c2.5-.9,4.5-2,5.9-3.2v9.9c-1.8-2.4-3.8-4.6-5.9-6.7Z"/>
  <path class="st2" d="M77.5,41.6l3.5,3.2c-3.3.3-5.7.6-9.1.7-1,0-3.5,0-4,0-.6,0,1.2.8.7.9-.5,0-4.3-1-6.3-.3,2.1.5,3.4,1,3,1.1-1.9.5-2.8,1-4.4,1.9l.7,4.4c-4.7-2.8-11.4-4.2-20-4.2h0c-.5.2-.9.4-1.3.6-7.2,10.3-.4,12.9,4.1,14.6-3.6-3.6-3.7-7.4.9-9.5,4.1-1.1,7.5.7,10.2,5.4-7.9,6.8-7.9,15.5-6.7,29.5l-6.3,12,.5,3.7c.3,1.8,1.5,2.5,3.7,1.9-.9,2-.3,4.7,0,6.3.5-1.1,1.3-2.5,2.9-3.4.7,8,2.9,15.7,8.7,14.5,1,1.3,2.6,2.9,4.4,4.6.5.5,1.4,4.1,2,4.6.5.5.7-2.2,1.2-1.8.6.5,1,4.9,1.6,5.4,0,.2.7-3.9,2.1-2.6,5.9,4.2,11.6,6.2,10.8,0-32.2-13.6-23.9-44.5-23.9-44.5l-3,2.9c-.5-5-.7-9.4-.5-13.4,0-.8,1.4-3.2,1.5-4,1-1.9,1.5-3.6-1.7-.6,0-3.4,3.3-4.8,3.5-5.9.2-.7-1.6-.5-1.4-1.2,3.6-2,2.7-2.6,3.1-3.4.4-.8-1.3-.7-.8-1.4,1.7-2.5,3.9-3.9,6.4-4-2.8,4.1-6,12-4.9,19.4,11.1-2.7,4.1-13.4,12.6-19,4-2,6.3-2.4,14.6,1.8-2.3.4-6,.9-5.9,3.7,1.5,3.8,10.8-1.1,13.6,9.4-3-1.6-4.3-2.1-6.6-.9,5.6,1.8,9,3.5,6.6,9.8-2.5-4.7-4.7-5.6-7.4-3.7-.4-1.4-.9-2.4-1.6-3.2-.4,5.3-3.5,7.2-8.7,3.8.5.8,1.2,1.7,2.1,2.8-1.7-.6-2.9-1.4-3.5-2.3-.6,1.1,0,2.2,1.5,3.3-2.7,5.1,1.3,5.5,4.1,3.5,3.6-4.5,5.8-5.8,8.1-5.5-2.7,5.9-10.2,11.2-5.8,12.1-2.6,3-2.6,4.3,0,4-1.6,2.5-1.7,4.1,0,3.6-1.5,9.1.4,12,3.6,14.1-2.7,4-1.6,9.4,2.2,15.9,0-.2,0-.4.1-.5-.4-8.1.2-8.5,2-13.4,1.4.8,2,4.2,3.9,4.9.7-2.5,1.4-4.1,2.1-4.7l2.1,1.9,1.7-.8,1.2.5,1.2-.8,2,.7,2-1.5c.5-.3.9,1.1,1.3,4.3l2.6-3.3c1.2,2.1,1.5,6.9,1,14.5,2.6-3.3,4.4-6.5,5-9.6.8-2.9.2-5.5-1.9-7.7l4.1,2.2h0c2.3.5,3.9-.2,4.4-2.5,6.6,9.4-3.8,20.3-6.2,27.4l1.4,2.5c6.8-7.1,10.7-12.7,11.6-16.8l2.5,2.4c.9-1.2,1.6-3.2,1.9-6,11.3,4.7,12.4-7.2,19.3-7.8l2.2,3.5s0,0,0,0c.4-.5.8-1.1.9-2.3h0s-.8-3.1-.8-3.1c1.7-8.3,1.6-14.5-.4-18.5,3.6-7.7,3.3-16.6-1-26.7-8.2-2.1-11.2-6.6-8.9-13.5,4.3,4.6,18.5,1.3,20.4,3.5,1.3-1.5,2-3.2,1.1-4.7-6.1.9-9.3-5.9-25.4-1.9-1.4-2.7-3.5-3.8-6.1-3.2,0-8.9-21.6-9.9-26.7-6.4,4,1.1,8,1.4,12.1,1.1-4.3,2.9-10.5,4.1-15.7,2.1-2.9,4.5,1.4,10.2,9.4,5.3,1.8-.6,11.8-4.5,18.5,4.2-14.4-3.7-18.6,8.6-23.3,4.1-1.3-1.7.6-8.4-9.6,1.9,1.4-8.9.8-13.9-.5-18.2v-.2c-7.6-2.4-15.1-3.5-22.3-3.5h0ZM95.3,46.9c2.2,2.6,2.6,6.8,1.2,12.5-1.5,15.1,2.7,6,4,8.8.7,1.1,0,4-1.1,7.5l-4.5-1.8c-.7-3.9-2.8-7.2-6.5-9.9,5.1-4.7,7.4-10.3,6.9-17.1h0ZM135,62c20.9,6,11,35.5,6.8,43,3.8-.5,6.4-3.8,7.9-9.8l4.4,6.6c-2.1,1.2-3.3,4.6-3.6,10.2-.7,2.3-4.4,4.4-6.6,5.6-.6.3,3.2-3.4.6-5.5-1.6,1.6-5.3,8-5.5,7.9-1.3.5.8-3.7-.5-3.1-.8.3-4.1,5.2-4.9,5.6-.8.4.6-3.1-.1-2.6-1.3.8-3,4.6-4.1,5.8.4-5-.6-8.7-3.1-11.3-2.1-.8-3.4-.6-6.9.2.6-4.2.5-8.4-.5-12.6,6.3,13.2,20.7-8.5,19-12.6-3.8,5.1-9.3,4.3-16.4-2.3,13-1.9,13.6-3.6,8-8.7,0,1.1-2.2,2.8-6.6,5.1,2.3-2.1,3.5-3.9,3.5-5.3-.4-3.2-4.8-5.9-8.6-2.3.5-.5,1.3-.7,2.2-.6l.8,1.8,2.3-1.2c3.4,2,.8,8-4.4,5.2-2.1-1.5-2.2-3.8-1.1-5-.9.9-1.8,2.3-2.6,4-1-1.7-5-.7-4.8,9.6-2.6-7.5-4.4-15.5-9.2-10.5l5.5-14.3c1.5,2.6,1.7,3.7,7.4-.4,3,5.2,8.4.8,10,7.5-5.7-.8-8.5,1.1-8.9,5.2,2.3-4,5.1-4.7,8.7-3.9,1.3-2.5,3.5-3.2,7.6,2.2,5,1.6,5.3-4.9-1.3-8,0,0,0,0,0,0-2.9-1.5-4.9-1.5-7.1-1.2,2.2-4.4,5.6-4.9,10.2-1.5,2-.5,3.8-.3,2-2.4h0s0,0,0,0ZM79.7,74.5l.8,2.2,1.5-1.6c-.3-.2-.6-.3-.9-.5-.5,0-1-.1-1.4-.1h0ZM63,85.7c-1.7,3.5-2.3,6.4-1.8,8.9,0,.4-.4,3.4-.3,3.8.2.5.8-1.6,1.1-1.1.2.4-1.1,3.7.4,4.9.3.5.8-2.9,1.2-2.4s1.2,3.7,1.7,4.1c.4.4.4-1.9.9-1.5.4.3.5,6,2.8,7.5.4.3-.5-5.3,1.1-4.9,4.3,3.9,1.4,14.9,8.9,16.4-2.8-8.6-4.2-18.2-2.9-22.1-7.3-2.3-11.6-6.8-12.9-13.6h0ZM90.1,90.1c-.4,2.2-1.3,4.1,2,4.5,3.5-1.1,5.3.3,5.2,4.4-1.8-.8-2.9-.2-3.1,1.7l-4-2.3c-1.4,1.9-.8,3.5,1.8,4.7,1.4.7,4.5-1.4,6.1.3l-1.2,2.8c2.1.2,7.4-2.2,6.4,2.8l2.7-5.6c4.3-1.6,6.2-4,5.8-7.4,4.2,4.9-1.1,7.8-2.1,10.5l2.5-1.3c2.5,2.5,1.5,5.6-3,9.3l2.3,1.8s-16-1.1-23.6,0l2-1.6-3.3-.9c-5.3-9.5.5-20.7,3.5-23.9h0ZM106.2,93.7c.6,0,1.1.5,1.8,1.3,1,1.7,1,3.4,0,4.9-1,1-5.6,0-4.5-3.8,1-1.7,1.9-2.5,2.9-2.4h0ZM47.6,95.2c3,5,3.3,7-1.1,12.2.2-4.1-.2-10.3,1.1-12.2ZM94.5,126.1c-.3,0-.5,0-.8.2-4.3,7.8-1.9,17.8,2,26.9,2.1.4,3.7.2,4.9-.7l2,1.2,2-.5,2.9.2-3.6,2-2.3-1.1c-1.9,1.6-2.3,1.6-4.7,0l-2.3,1.6-.5-2c-4-1.7-3-3.9-4.9-8.7v-.5c-2,8.1-.5,14.1,5.3,12.6h.2c5.5,3.8,10.7,1,12.7,0,6.6,1.5,7.6-7.8,5.9-16-1.5,5-3.3,10.8-5.3,11.7,1.6-9.9,1.4-19-.6-25.4-3.2-2.3-5.2,2.7-8.6,1.7-1.2.2-2.6-3.2-4.4-3.3h0s0,0,0,0ZM93,163.7c0,3.1,2.3,6,11.2,5.2,5.4-.6,7.9-2.2,7.3-4.7-7.1,3.2-16.2,2.7-18.5-.5h0Z"/>
  <path class="st3" d="M76.9,38.5c-2.7,0-5.6.7-9,2-.6.2,2.6,1.9,2,2.2s-6.9-1.2-6.9-1.2c0,0,3.5,1.9,3.2,2.1-.4.2-4.8-.9-5.2-.7-.4.2,2,1.8,1.5,2-.4.2-2,0-2.3.2-1.8,0-2.7.8-4,1.7-3.8-1.4-9.8-1.1-14.5,2.5h0c8.6,0,15.3,1.5,20,4.3l-.7-4.4c1.6-.9,2.5-1.4,4.4-1.9.3,0-1-.6-3-1.1,2-.7,5.8.4,6.3.3.5-.1-1.2-.8-.7-.9.5,0,3,0,4,0,3.4,0,5.9-.4,9.1-.7l-3.5-3.2c7.3,0,14.8,1.1,22.4,3.5v.2c1.2,4.4,1.8,9.3.4,18.2,10.1-10.3,8.3-3.7,9.6-1.9,4.7,4.6,8.9-7.8,23.3-4.1-6.7-8.8-16.7-4.8-18.5-4.2-8,4.9-12.3-.8-9.4-5.3,5.2,1.9,11.4.8,15.7-2.1-4.1.3-8.1,0-12.1-1.1,5.1-3.5,26.7-2.5,26.7,6.4,2.7-.6,4.7.5,6.1,3.2,16.1-3.9,19.3,2.8,25.4,2-3.5-9.8-15.8-3.2-18.8-5.3-1.6-1.8-3.5-3.7-5.7-5.4-.5-.3-2.2-.2-2.7-.5-.5-.3,2-1,2.2-1.4,0,0-4.4.2-4.9,0-.7-.2.5-1.2.1-1.4-.7-.5-3.5.3-4.1-.3-1.2-.7,1.7-.8,1.2-1-8.2-3.3-19.2-4-33.4,2.1v.2c-10-1.2-15.9-5.3-23.9-5h0ZM95.3,46.9c.5,6.7-1.8,12.4-6.9,17.1,3.7,2.7,5.8,6,6.5,9.9l4.5,1.8c1-3.5,1.8-6.3,1.1-7.5-1.3-2.7-5.6,6.3-4-8.8,1.4-5.7,1-9.9-1.2-12.5h0ZM40.4,49.8c-5.4.8-12.2,12.9,3.2,18.7.5,7.2-2.6,7.2-4.2,13.9,5.7,1.4-1.4,14,3.3,19.4l6.3-12c-1.1-14-1.1-22.7,6.7-29.5-2.8-4.7-6.2-6.5-10.2-5.4-4.6,2.2-4.5,5.9-.9,9.5-4.5-1.7-11.4-4.3-4.1-14.6h0ZM145.5,57.7c-2.3,6.9.7,11.4,8.9,13.5,4.2,10.1,4.6,19,1,26.7,2,4,2.1,10.2.4,18.5l.8,3.1c2.5-8.1,7.5-8.1,2.3-21.8l1.9.7c.3-15.5-1.7-23.1-5.1-27.8,7-2,10.4-5.2,10.3-9.5-1.9-2.1-16.1,1.2-20.4-3.5h0ZM77,58.7c-2.1-.2-3.7.4-5.7,1.4-8.5,5.6-1.5,16.3-12.6,19-1.1-7.3,2.1-15.3,4.9-19.4-2.5,0-4.7,1.5-6.4,4-.5.7,1.2.5.8,1.4-.4.8.5,1.4-3.1,3.4-.2.6,1.6.5,1.4,1.2-.3,1.1-3.6,2.5-3.5,5.9,3.2-3,2.7-1.3,1.7.6,0,.8-1.4,3.1-1.5,4-.2,3.9,0,8.4.5,13.4l3-2.9s-8.2,31,23.9,44.5c.8,6.3-4.8,4.3-10.8,0-1.4-1.3-2,2.8-2.1,2.6-.6-.5-1-4.9-1.6-5.4-.5-.5-.7,2.3-1.2,1.8-.6-.5-1.5-4.1-2-4.6-1.8-1.7-3.3-3.3-4.4-4.6-5.8,1.1-8.1-6.6-8.7-14.5-1.7,1-2.5,2.3-2.9,3.4-.3-1.6-.9-4.4,0-6.3-2.2.6-3.4,0-3.7-1.9-2.2,4.1-2.3,6.2,2.9,9.7,1,6.7,2.9,11.7,5.7,15.1,8.3-2.4,9.3,3.2,8.3,5.6,14.8,13.4,17.2,5.3,22.3,13.9,7.6,14,3.9,21.4,23,20.6,5.6-.1,9.4-3.3,11.2-9.6,0,0,.1,0,.2-.2,1.5-4.4,1.6-6.4,1.7-8.8,5.9-1.2,11.5-15.5,16.8-17.4,2.9-1.4,6.6-1.6,10.3-2.9,1.4-.4,2.5-2.4,2.9-2.6.5-.2,1,0-.2,2.3,2.8-1.8,2.6-5.3,2.9-5.6.4-.3,0,2,.5,1.7,1.4-.8,1.1-3.3,1.4-3.7.4-.4.2,2.1.5,1.6.7-1,1.4-2.1,2-3.5,0,0,0,0,0,0l-2.1-3.6c-6.9.6-7.9,12.5-19.3,7.8-.3,2.8-1,4.8-1.9,6l-2.5-2.4c-1,4.1-4.8,9.7-11.6,16.8l-1.4-2.5c2.4-7.1,12.8-18,6.2-27.4-.5,2.3-2.2,3-4.4,2.4h0s-4.1-2.2-4.1-2.2c2.1,2.2,2.7,4.8,1.9,7.7-.6,3.2-2.3,6.3-5,9.6.6-7.6.2-12.4-1-14.5l-2.6,3.3c-.3-3.2-.8-4.7-1.3-4.3l-2,1.5-2-.7-1.2.8-1.2-.5-1.7.8-2.1-1.9c-.7.6-1.4,2.1-2.1,4.7-1.8-.7-2.5-4.1-3.9-4.9-1.9,4.8-2.5,5.3-2,13.4,0,.2,0,.4-.2.5-3.8-6.4-4.9-11.8-2.2-15.9-3.2-2.1-5.1-5-3.5-14.1-1.8.5-1.7-1.1,0-3.6-2.5.4-2.5-1,0-4-4.4-1,3.1-6.2,5.8-12.1-2.3-.3-4.6,1-8.1,5.5-2.9,2-6.9,1.7-4.1-3.5-1.6-1.1-2.1-2.2-1.5-3.3.6.9,1.8,1.7,3.5,2.3-1-1.1-1.7-2-2.1-2.8,5.1,3.5,8.3,1.6,8.7-3.8.7.8,1.2,1.8,1.6,3.2,2.7-1.9,4.9-1,7.4,3.7,2.5-6.3-1-8-6.6-9.8,2.3-1.2,3.6-.8,6.6.9-2.8-10.4-12-5.6-13.6-9.4,0-2.8,3.6-3.3,5.9-3.7-4.1-2.1-6.8-3-8.9-3.2h0ZM135,62c1.8,2.1,0,2-2,2.4-4.6-3.4-8-2.9-10.2,1.5,2.2-.3,4.2-.2,7.1,1.2,0,0,0,0,0,0,6.6,3.2,6.2,9.6,1.3,8-4.1-5.4-6.2-4.7-7.6-2.2-3.6-.8-6.4,0-8.7,3.9.4-4.1,3.2-6,8.9-5.2-1.5-6.7-7-2.3-10-7.5-5.6,4-5.8,2.9-7.4.4l-5.5,14.3c4.8-5,6.6,3,9.2,10.5-.1-10.2,3.8-11.3,4.8-9.6.8-1.8,1.7-3.1,2.6-4-1.1,1.2-1.1,3.5,1.1,5,5.2,2.7,7.8-3.2,4.4-5.2l-2.3,1.2-.8-1.8c-.9,0-1.7.2-2.2.6,3.8-3.5,8.2-.8,8.6,2.3,0,1.4-1.1,3.2-3.5,5.3,4.4-2.3,6.7-3.9,6.6-5.1,5.6,5.2,4.9,6.9-8,8.7,7.1,6.6,12.6,7.4,16.4,2.3,1.7,4.1-12.7,25.8-19,12.6,1,4.2,1.2,8.4.5,12.6,3.5-.8,4.9-1,6.9-.2,2.5,2.5,3.5,6.3,3.1,11.3,1.2-1.2,2.9-5,4.1-5.8.7-.5-.6,3,.1,2.6.8-.4,4.1-5.3,4.9-5.6,1.4-.6-.8,3.6.5,3.1.1.1,3.9-6.2,5.5-7.9,2.6,2.1-1.3,5.8-.6,5.5,2.2-1.2,5.9-3.3,6.6-5.6.3-5.6,1.5-9,3.6-10.2l-4.4-6.6c-1.4,5.9-4.1,9.2-7.9,9.8,4.4-7.5,14.3-37-6.8-43h0s0,0,0,0ZM80,74.6c.5,0,.9,0,1.4,0,.3.2.6.3.9.5l-1.5,1.7-.8-2.2h0ZM63.3,85.7c1.3,6.7,5.6,11.2,12.9,13.6-1.3,3.9.2,13.5,2.9,22.1-7.4-1.4-4.5-12.4-8.8-16.4-1.6-.5-.7,5.1-1.1,4.9-2.3-1.5-2.4-7.2-2.8-7.5-.5-.4-.5,1.9-.9,1.5-.5-.5-1.3-3.7-1.7-4.1-.4-.5-.9,2.9-1.2,2.4-1.4-1.2-.2-4.5-.4-4.9-.2-.5-.9,1.6-1.1,1.1,0-.4.3-3.4.3-3.8-.4-2.5.1-5.5,1.8-8.9h0ZM90.4,90.1c-3,3.2-8.8,14.4-3.5,23.9l3.3.9-2,1.6c7.6-1.1,23.6,0,23.6,0l-2.3-1.8c4.5-3.7,5.6-6.8,3.1-9.3l-2.5,1.3c.9-2.7,6.2-5.6,2.1-10.5.4,3.3-1.5,5.8-5.8,7.4l-2.7,5.6c1-5-4.3-2.6-6.4-2.8l1.2-2.8c-1.6-1.7-4.7.3-6.1-.3-2.6-1.2-3.2-2.8-1.8-4.7l4,2.3c.2-1.9,1.2-2.5,3.1-1.7,0-4.1-1.7-5.6-5.2-4.4-3.3-.4-2.4-2.3-2-4.5h0ZM106.6,93.7c-.9-.2-1.9.7-2.9,2.4-1.1,3.8,3.5,4.9,4.5,3.8,1.1-1.5,1.1-3.2,0-4.9-.6-.8-1.2-1.2-1.8-1.3h0ZM48,95.2c-1.3,1.9-.8,8.1-1.1,12.2,4.4-5.1,4.1-7.2,1.1-12.2ZM94.5,126.1c1.8.1,3.2,3.5,4.4,3.3,3.3,1.1,5.3-4,8.6-1.7,2,6.4,2.2,15.6.6,25.4,2-.9,3.9-6.7,5.3-11.7,1.7,8.2.7,17.5-5.9,16-2,1-7.2,3.8-12.7,0h-.2c-5.8,1.4-7.3-4.5-5.4-12.7v.5c2,4.9,1,7,5,8.7l.5,2,2.3-1.6c2.4,1.6,2.8,1.6,4.7,0l2.3,1.1,3.6-2-2.9-.2-2,.5-2-1.2c-1.1.8-2.8,1.1-4.9.7-4-9.1-6.3-19.1-2-26.9.3-.1.5-.2.8-.2h0s0,0,0,0ZM93.1,163.7c2.3,3.2,11.4,3.7,18.5.5.6,2.5-1.9,4.1-7.3,4.7-8.8.8-11.1-2.1-11.2-5.2Z"/>
</svg>