<?xml version="1.0" encoding="UTF-8"?>
<svg id="Layer_1" xmlns="http://www.w3.org/2000/svg" version="1.1" xmlns:cc="http://creativecommons.org/ns#" xmlns:dc="http://purl.org/dc/elements/1.1/" xmlns:rdf="http://www.w3.org/1999/02/22-rdf-syntax-ns#" viewBox="0 0 201 201">
  <!-- Generator: Adobe Illustrator 29.1.0, SVG Export Plug-In . SVG Version: 2.1.0 Build 142)  -->
  <defs>
    <style>
      .st0 {
        fill: #f95214;
      }

      .st1 {
        fill: #fb4f14;
      }

      .st2 {
        fill: #fff;
      }
    </style>
  </defs>
  <rect class="st0" width="201" height="201"/>
  <g>
    <path class="st2" d="M168.6,98.5c-.9-.5-.8-1.3-.1-1.8,7.7-5.7,12.9-13,12.9-24.3s-9.6-32.2-47-32.2H37.9l-21.8,38.1h16c1.8,0,3.2,1.4,3.2,3.2v38c0,1.8-1.4,3.2-3.2,3.2H14.8l22.1,37.9h102.2c32.9,0,47.1-17.2,47.1-35.6s-8.7-22.1-17.5-26.6"/>
    <path class="st1" d="M111.6,92.3h-15.9v-15.2c0-1.6,1.3-2.9,2.9-2.9h12.9c7.6,0,10.4,3.9,10.4,8.9s-2.8,9.2-10.4,9.2h0ZM111.6,127.4h-12.9c-1.6,0-2.9-1.3-2.9-2.9v-15.2h15.9c7.6,0,10.4,3.7,10.4,8.9s-2.8,9.2-10.4,9.2h0ZM156.9,99.6c-1.2-.3-1-1.7-.1-2,10.4-4,16.6-11,16.6-23.4.1-16.6-14.6-28.1-38.5-28.1H44l-15.9,28.1h10.9c2.2,0,3.9,1.7,3.9,3.9v45.4c0,2.2-1.7,3.9-3.9,3.9h-10.8l16,28h94.8c27.1,0,38.2-18,38.2-31.2s-8.6-21.7-20.5-24.6"/>
    <path d="M74.9,147.6c-16.8-31.6-21.2-67.7-15-101.6h-15.9l-15.9,28.1h10.9c2.2,0,3.9,1.7,3.9,3.9v34.8c8.2,13.3,20,26,31.9,34.5v.2ZM154.5,49.4c-19.2,28.6-29.7,64.9-25,98.2,5.8-27.9,20.7-53.6,44-72.2,0-.3,0-.5,0-.8,0-11.5-6.9-20.5-19-25h0ZM122.2,46.3c-3,7.9-6.2,17.4-8.9,28.2-.5,0-1,0-1.5,0h-12.9c-1.6,0-2.9,1.3-2.9,2.9v15.2h13.6c-.9,5.5-1.6,11.1-2.1,16.9h-11.5v15.2c0,1.6,1.3,2.9,2.9,2.9h8c.1,9.1.9,18.5,2.6,27.9h-11.9c-9.3-22.5-22.2-60.4-9.4-109.5h33.9"/>
  </g>
</svg>