<?xml version="1.0" encoding="UTF-8"?>
<svg xmlns="http://www.w3.org/2000/svg" version="1.1" viewBox="0 0 200 200">
  <!-- Generator: Adobe Illustrator 29.1.0, SVG Export Plug-In . SVG Version: 2.1.0 Build 142)  -->
  <defs>
    <style>
      .st0 {
        fill: #ff3c00;
      }

      .st1 {
        fill: #fff;
      }

      .st2 {
        fill: #321e02;
      }

      .st3 {
        fill: #311d00;
      }
    </style>
  </defs>
  <g id="Layer_2">
    <rect class="st2" width="200" height="200"/>
  </g>
  <g id="Layer_1">
    <g>
      <path class="st1" d="M179,158.6h0c0,0,.1,0,.2-.1h-.1c0,.1,0,.1,0,.1Z"/>
      <path class="st1" d="M105,146.2c0,.2-.2.5-.3.7,0-.2.2-.5.3-.7Z"/>
      <path class="st1" d="M85.4,159c7.2-.5,13.8-3.3,17.6-9h0c.2-.3.3-.5.5-.8,0-.2.2-.3.3-.5.1-.2.2-.4.3-.6.1-.2.2-.5.3-.7,0-.2.1-.3.2-.5-3.4,7.8-10.9,11.4-19.2,12h0Z"/>
      <path class="st1" d="M167.7,151.9c-.3,0-.6-.2-.9-.3,0,.1,0,.3,0,.4.3,0,.6-.1.9-.2h0Z"/>
      <path class="st1" d="M44.4,149.3c0,0-.1,0-.2,0,1.2-.2,2.5-.3,3.7-.4,1.9,0,3.8.5,5.4,1.5.3-.2.5-.3.7-.5l.8.7c-.2.1-.4.3-.7.4.2.2.5.4.7.6,0,0,0,0,0,0,.2-.1.6-.5,1.3-1-2.7-1.9-6.4-3.3-11.8-1.4h0Z"/>
      <path class="st0" d="M93.2,121.2c1.3.9,2.8,1.9,2.8,3.8,0,1.9-1.6,4.2-2.2,5-.7.9-3,3.6-5.9,1.8,0,0-4.2-2.6-7.2-4.4l-2.1,3.1c3.9.7,14.6,2.5,23.6,4.1-.5-3.8-1.7-7.2-2.5-10.2,1.6,3.3,2.7,6.8,3.4,10.4.7.1,1.3.2,2,.3-.2-1-.4-2-.6-2.7-.4-1.6-1.8-5.1-3.1-9.3-2.1-1.2-4-2.8-5.6-4.6,0,0-3.2-3-5.9-5.7-1.4,2.2-2.3,3.7-2.8,4.6l6.1,4h0Z"/>
      <path class="st0" d="M109.7,93.2c3.5-1.9,6.4-2.9,11.1-3.6,0,0,1.4-.2,1.4-.2.9-.1,2.7-.5,3.2-1.4.3-.7.4-1.4.3-2.1-5.9,1.2-12,2.7-17.3,4.9-1.6.6-3.2,1.5-4.7,2.5.4.9.9,2,1.5,3.2,1-1,2.1-1.8,3.3-2.6.2-.2,1.1-.7,1.1-.7h0Z"/>
      <path class="st0" d="M92.7,108.1c1.9,2.1,4.8,5.2,7.1,7.5-.5-3.2-.6-6.4,0-9.4.4-1.8,1-3.5,1.9-5l-1.9-4.2c-.4.7-1.1,1.7-1.7,2.6,0,0-2.6,4.2-5.4,8.6h0Z"/>
      <path class="st0" d="M100.5,89.4c1.6-1.2,3.4-2.2,5.3-2.9,4.1-1.7,11.4-3.7,18.9-5.2-.5-1.5-2.2-6.3-2.2-6.3,0-.2-1.2-2.6-.3-4,.5-.7,1.3-1,2.1-.9,0,0,0,0,2.6.1h.1c0,0,0,0,0,0l2.9-1.4c.7-.2,1.5-.4,1.5-.4,1.4,0,2.8.7,3.4,2h.3c-1.2-2.4-1.9-3.1-2.7-4.5C96.6,14.9,6.4,46.4,24.2,117.6c4,14.5,8.6,22.1,13.7,29.3,0,0,.1,3.5,5.8,1.7,5.4-1.7,9.2-1.6,14.5,2.5,7,5.4,17.7,8.7,27.3,8,8.3-.6,15.8-4.3,19.2-12,0,0,0,0,0,0,0-.2.2-.5.3-.7.7-2,.9-4.1.8-6.2-.7-.1-1.4-.2-2.1-.4-.5,9-9.4,17.6-25.3,16.6-6.7-.2-13.8-3.5-18-5.8-1.9-1.3-7.4-4.4-10.1-5,2.3.1,8,3.1,10.4,4.5,4.9,2.5,11.8,5,17.7,5.2,10.6,1,22.7-4.4,24-15.8-10.6-1.8-25.1-4.2-26.9-4.6-.4.3-1,.5-1.5.4-1.1,0-2-.7-2.5-1.6-.3-.6-.2-1.4.2-2,0,0,5.1-7.5,5.1-7.5l.2-.4c-.2-.8,0-1.7.5-2.4.4-.4,2.7-4.2,3.2-5.3.4-.6,1.1-1.1,1.9-1.1.5-.8,1.8-2.9,4-6.5-.2-1,.2-1.9,1-2.5.2-.2.4-.3.7-.4,2.7-4.4,5.7-9.2,6.6-10.4,1-1.3,1.7-2.2,2.6-3.2.4-.4.9-.8,1.4-1.2.4-.5.9-.9,1.6-1.1,0,0,0-.1.1-.2h0ZM88.5,137.6c1.7,0,3.2,1.4,3.2,3.2,0,1.3-.8,2.4-1.9,2.9-.8.8-2,.9-2.8.1-.2-.2-.4-.4-.5-.7-1.3-1.1-1.4-3.1-.3-4.5.6-.7,1.5-1.1,2.4-1.1h0ZM63.6,147.6c-.5.4-1.1.5-1.8.5-.7.4-1.8.2-2.6-.6-.7-.8-.9-1.8-.6-2.5-.2-1.1.2-2.2,1-2.8,1.2-.8,3-.3,4.1,1.2,1,1.5,1,3.3-.1,4.3h0ZM79.2,139.1c-5.3,5.6-15.8,5.6-21.8-2.1,10.1,9.4,19.6,3.2,21.8,2.1h0ZM69.6,132.5c-.7.2-1.4.3-2.1.3-2,0-4-.9-5.4-2.4-2.8-3-3-7.6-.4-10.2,1.2-1.2,2.8-1.9,4.5-1.8,2,0,4,.9,5.4,2.4,1.4,1.5,2.2,3.4,2.3,5.4l-4.3,6.4h0Z"/>
      <path class="st3" d="M104.5,147.4c-.1.2-.2.5-.3.7.1-.2.2-.5.3-.7Z"/>
      <path class="st3" d="M85.4,159c-9.6.7-20.3-2.5-27.3-8-5.2-4.1-9-4.2-14.5-2.5-5.7,1.8-5.8-1.7-5.8-1.7-5-7.2-9.7-14.9-13.7-29.3C6.4,46.4,96.6,14.9,132.3,65.8c.8,1.4,1.5,2.1,2.7,4.5h1.3C102.9,10.8,0,43.9,24.7,122.9c1.6,4.9,3.5,9.7,5.9,14.3,0-.2.1-.4.1-.5,0,0,.2.6.6,1.6,0,0,0,0,0,0,1.6,3,3.4,5.8,5.4,8.6.3.4.7.7,1.1,1,0,.6.2,1.2.6,1.6.3.2.6.3,1,.4,0,0,0,0,0,0,.1,0,.3,0,.4,0,.8,0,1.5,0,2.3-.2,0,0,.9-.2,2.1-.3,0,0,.1,0,.2,0,5.4-1.9,9.1-.5,11.8,1.4.3.2.7.5,1,.7,14.5,11.3,38.3,12.2,47.1-1.2-.4,0-.8-.2-1.1-.3-3.9,5.7-10.4,8.5-17.6,9h0Z"/>
      <path class="st3" d="M103.8,148.7c0,.2-.2.3-.3.5,0-.2.2-.3.3-.5Z"/>
      <path class="st3" d="M102.3,134.4c.3,0,.6.1.9.2-.7-3.6-1.9-7.1-3.4-10.4.8,3,2,6.4,2.5,10.2Z"/>
      <path class="st3" d="M78.3,155.2c-5.9-.2-12.7-2.7-17.7-5.2-2.4-1.4-8.1-4.4-10.4-4.5,2.6.6,8.1,3.7,10.1,5,4.2,2.3,11.3,5.5,18,5.8,15.9,1,24.8-7.6,25.3-16.6-.4,0-.9-.1-1.3-.2-1.3,11.3-13.4,16.8-24,15.8h0Z"/>
      <path class="st3" d="M66.3,118.3c-1.7,0-3.3.6-4.5,1.8-2.6,2.7-2.4,7.3.4,10.2,1.4,1.5,3.3,2.4,5.4,2.4.7,0,1.4-.1,2.1-.3l4.3-6.4c0-2-.9-4-2.3-5.4-1.4-1.5-3.3-2.4-5.4-2.4h0Z"/>
      <path class="st3" d="M57.3,137c6,7.7,16.5,7.7,21.8,2.1-2.3,1.1-11.7,7.3-21.8-2.1Z"/>
      <path class="st3" d="M86.4,143.2c-.1-.3-.2-.6-.2-.9,0-1.1.9-2.1,2.1-2,1.1,0,2.1.9,2,2.1,0,.5-.2,1-.6,1.4,1.6-.7,2.4-2.5,1.7-4.2-.7-1.6-2.5-2.4-4.2-1.7s-2.4,2.5-1.7,4.2c.2.4.5.8.8,1.2h0ZM89.6,140.5c-.6-.6-1.5-.7-2.2-.3-.3.2-.6,0-.2-.4.8-.7,2-.5,2.6.3,0,0,0,0,0,0,.3.5,0,.8-.3.4h0ZM88.6,138.2c1.4,0,2.6,1.2,2.5,2.7,0,.7-.3,1.3-.8,1.8.7-1.6.1-3.6-1.8-3.7-2.1,0-2.7,2-2.4,3-.7-.6-.5-3.7,2.4-3.7h0Z"/>
      <path class="st3" d="M88.2,140.1c-1.2,0-2.1.9-2.1,2.1,0,0,0,0,0,0,0,.3,0,.6.2.9.5,1,1.6,1.5,2.7,1,.3-.1.5-.3.7-.5.8-.8.8-2.2,0-3-.4-.4-.9-.6-1.4-.6h0ZM88.2,144c-1,0-1.8-.8-1.8-1.7s.8-1.8,1.7-1.8,1.8.8,1.8,1.7c0,0,0,0,0,0,0,1-.8,1.7-1.7,1.7,0,0,0,0,0,0h0Z"/>
      <path class="st1" d="M87.2,139.8c-.4.4,0,.6.2.4.7-.4,1.6-.3,2.2.3.2.4.6,0,.3-.4-.6-.8-1.8-1-2.6-.4,0,0,0,0,0,0Z"/>
      <path class="st1" d="M88.5,138.9c2,0,2.6,2.1,1.8,3.7,1-1,1-2.7,0-3.7-.5-.5-1.1-.7-1.8-.8-2.9,0-3.1,3.1-2.4,3.7-.4-1.1.3-3.1,2.4-3h0Z"/>
      <path class="st1" d="M90,142.3c0-1-.8-1.7-1.7-1.7s-1.7.8-1.7,1.7c0,.9.8,1.7,1.7,1.7,1,0,1.7-.8,1.7-1.7,0,0,0,0,0,0ZM86.8,142.2c0-.8.6-1.4,1.4-1.4s1.4.6,1.4,1.4c0,.8-.6,1.4-1.4,1.4-.8,0-1.4-.6-1.4-1.4h0Z"/>
      <path class="st3" d="M89.6,142.2c0-.8-.6-1.4-1.4-1.4-.8,0-1.4.6-1.4,1.4,0,.8.6,1.4,1.4,1.4h0c.8,0,1.4-.6,1.4-1.4ZM87.2,142.3c0-.2.1,0,.2,0,.4.6,1.4.6,1.7.2.2-.2.2,0,.2,0-.7,1.3-2.2.5-2.1-.3h0Z"/>
      <path class="st1" d="M89.3,142.6s0-.3-.2,0c-.3.5-1.4.4-1.7-.2,0-.1-.1-.2-.2,0-.1.8,1.4,1.6,2.1.3h0Z"/>
      <path class="st3" d="M59.6,142.2c-.8.6-1.1,1.7-1,2.8,0-.1.1-.3.2-.4.7-.6,1.9-.4,2.8.5.9.9,1,2.2.3,2.8,0,0-.2.1-.3.1.6,0,1.3,0,1.8-.5,1.1-.9,1.2-2.8.1-4.3s-2.9-2-4.1-1.2h0ZM62.3,145.3c-.3-.5-.7-.9-1.3-1.1-.4,0-.2-.7.2-.5.5.2.9.6,1.3,1,.4.7,0,1-.2.7ZM62.8,147.5c2.1-2.7-2-6-3.6-3.4,1.4-4.2,6.8,1.1,3.6,3.4h0Z"/>
      <path class="st3" d="M61.7,145.1c-.9-.9-2.1-1.1-2.8-.5,0,.1-.2.2-.2.4-.4.7-.2,1.7.6,2.5.8.8,1.8,1,2.6.6,0,0,.2,0,.3-.1.7-.6.5-1.9-.3-2.8ZM59.4,147.2c-.7-.8-.9-1.9-.3-2.4.6-.6,1.7-.4,2.4.4s.9,1.9.3,2.4-1.7.4-2.4-.4h0Z"/>
      <path class="st1" d="M61.2,143.7c-.5-.2-.6.5-.2.5.5.2,1,.6,1.3,1.1.2.4.6,0,.2-.7-.3-.4-.8-.8-1.3-1Z"/>
      <path class="st1" d="M59.2,144.1c1.6-2.6,5.7.7,3.6,3.4,3.2-2.3-2.3-7.6-3.6-3.4Z"/>
      <path class="st1" d="M61.5,145.2c-.7-.8-1.8-1-2.4-.4s-.5,1.6.3,2.4c.7.8,1.8,1,2.4.4s.5-1.6-.3-2.4h0ZM61.5,147.5c-.5.4-1.3,0-1.9-.5-.6-.6-.7-1.5-.3-1.9.5-.5,1.4-.2,1.9.4.4.5.8,1.6.2,2h0Z"/>
      <path class="st3" d="M59.4,145c-.4.4-.4,1.3.3,1.9.6.6,1.4.8,1.9.5.6-.4.2-1.5-.2-2-.5-.6-1.4-.9-1.9-.4h0ZM61.1,147.2c-1,0-1.9-1.1-1.5-1.6,0,0,.3-.4.3,0,.2.7.7,1.2,1.3,1.4.1,0,.2.3-.1.3h0Z"/>
      <path class="st1" d="M59.9,145.6c0-.3-.3,0-.3,0-.4.5.5,1.7,1.5,1.6.3,0,.3-.3.1-.3-.6-.2-1.1-.7-1.3-1.4h0Z"/>
      <path class="st3" d="M54.2,151c-3.8,2.1-8,3.5-12.4,4-5.1.8-8-2.8-7-5.5,0,0,0,0-.3-.7-.3-.7-3.8-7.8-3.1-10.5-.4-1-.6-1.6-.6-1.6,0,.1,0,.3-.1.5-.3,1.3-.3,2.6,0,3.8.7,2.5,1.2,4.1,3.3,8.6-.8,3,2,7.5,8.9,6.2,8-1.1,11.7-3.9,12-4.1,0,0,0,0,0,0-.2-.2-.4-.4-.7-.6h0Z"/>
      <path class="st3" d="M38.5,149.4c-.4-.4-.6-1-.6-1.6-.4-.3-.7-.7-1.1-1,.1.1.2.3.3.4.1.9.6,1.7,1.4,2.2h0Z"/>
      <path class="st3" d="M39.5,149.8s0,0,0,0c0,0,0,0,0,0Z"/>
      <path class="st3" d="M41.6,149.8c-1.2,2.5-6.1,1.2-5.2-2.1-.7-.9-2.4-3.6-2.4-3.6,0,0,0,.8,0,.8.6,1.2,1.6,3.2,1.6,3.2-.8,4.8,6.1,5.1,6.6,1.6.4,0,.4,0,.6-.1-.3,1.4-1,2.2-1.8,2.6-1.5.7-1.9,2,.3,1.9,2.3-.2,6.3-.9,11-3.2,0,0,.4-.2.8-.5-1.6-1-3.5-1.5-5.4-1.5-1.2,0-2.5.2-3.7.4-1.2.2-2.1.3-2.1.3-.7.1-1.5.2-2.3.2.3,0,.6,0,.9,0,.2,0,.7,0,.9-.1h0Z"/>
      <path class="st1" d="M34.6,148.8c.3.7.3.7.3.7-1,2.7,1.9,6.3,7,5.5,4.3-.5,8.6-1.8,12.4-4,.2-.1.5-.3.7-.4l-.8-.7c-.2.1-.5.3-.7.5-.4.3-.8.5-.8.5-4.7,2.3-8.7,3-11,3.2-2.2.2-1.8-1.2-.3-1.9.8-.4,1.5-1.2,1.8-2.6-.3.1-.2,0-.6.1-.5,3.5-7.4,3.2-6.6-1.6,0,0-1-2-1.6-3.2,0,0-.1-.7,0-.8,0,0,1.7,2.7,2.4,3.6-.9,3.3,3.9,4.7,5.2,2.1-.2,0-.7,0-.9.1-.3,0-.6,0-.9,0-.1,0-.3,0-.4,0,0,0,0,0,0,0-.3,0-.7-.2-1-.4-.8-.5-1.3-1.3-1.4-2.2-.1-.1-.2-.3-.3-.4-2-2.7-3.8-5.6-5.4-8.6,0,0,0,0,0,0-.6,2.7,2.9,9.9,3.1,10.5h0Z"/>
      <path class="st3" d="M105.8,148.4h-.5c1.2-2.6,1.8-5.4,1.7-8.2-.4,0-.7-.1-1.1-.2,0,2.1-.2,4.2-.8,6.2,0,.2-.2.5-.3.7,0,0,0,0,0,0,0,.2-.1.3-.2.5-.1.2-.2.5-.3.7,0,.2-.2.4-.3.6,0,.2-.2.3-.3.5-.2.3-.3.5-.5.8h0c.4.1.8.2,1.1.3,3.5.7,7.9.1,7.9.1,4.6-.3,8.2-1.5,11.1-3.4-.4-.6-.7-1.1-1-1.7-3.7,2.5-9,3.8-16.4,3.2h0Z"/>
      <path class="st3" d="M128.3,136.6c.7,0,1.5-.2,2.2-.2.4-1.7.7-3.4.8-5.1h0s-.3,0-.3,0v-.3c-.3-2.3-.3-3.6-.2-3.9v-.4c.1,0,.5,0,.5,0h.1c0-.4,0-.8-.1-1.3-.7,0-1.4.1-2.1.2.4,3.7.3,7.6-.8,11h0Z"/>
      <path class="st3" d="M126.4,142.5c.2.3.4.6.6.9.5-.6.9-1.2,1.3-1.9-.6,0-1.2.1-1.7.2,0,0-.3,0-.8.2l.6.6h0Z"/>
      <path class="st3" d="M102.3,117.9c2.4,1.8,4.9,2.8,8.6,3.3l-8.1-17.7c-1.7,4.7-1.4,9.6-.5,14.4h0Z"/>
      <path class="st3" d="M99.8,115.6c.4.4.8.8,1.2,1.2-.9-4.8-1-9.9,1.3-14.4l-.6-1.2c-.9,1.6-1.5,3.3-1.9,5-.7,3-.5,6.3,0,9.4h0Z"/>
      <path class="st3" d="M105.2,134.9c.6.1,1.2.2,1.8.3,3-1.9,5.4-5.2,6.6-8.4l-.3-.7s0,0-.1,0c-3.2-.1-6.3-.8-9.3-2,.8,3.1,1.7,6.1,2.1,8.9-.6-2.4-1.9-5.7-3.1-9.3-.4-.2-.9-.5-1.3-.7,1.3,4.2,2.7,7.7,3.1,9.3.2.8.4,1.7.6,2.7h0Z"/>
      <path class="st1" d="M114,115.2c1,2.1,1.9,4.2,2.9,6.2h.5c3,0,6.8-.3,10.9-.7-.5-1.8-1.1-3.6-1.8-5.4-3.3-7.9-12.1-4.8-12.4-.2h0Z"/>
      <path class="st1" d="M106.9,135.2c5.5,1,9.6,1.7,9.6,1.7.6,0,1.2.2,1.7.2l-4.7-10.3c-1.3,3.2-3.6,6.6-6.6,8.4Z"/>
      <path class="st1" d="M123.7,137c1.6-.1,3.1-.2,4.6-.4,1.1-3.5,1.2-7.3.8-11-3.5.4-6.8.6-9.5.8,0,0-.2,0-.5,0,2,4.5,3.6,8.4,4.6,10.6,0,0,0,0,0,0h0Z"/>
      <path class="st1" d="M105.2,148.3h.5c7.4.7,12.7-.7,16.4-3.1-.5-.9-.9-1.8-1.3-2.7l-.2-.3c0,0-.1,0-.2,0-2.2-.1-4.5-.4-6.7-.8,0,0-2.8-.5-6.9-1.2,0,2.8-.5,5.6-1.7,8.1h0Z"/>
      <path class="st1" d="M130.8,96.4c-4.8.6-6.1,12.6-3.4,15.6-1-4.6,0-13.2,3.4-15.6Z"/>
      <path class="st1" d="M103.8,124.1c-.3-.1-.6-.3-1-.4,1.2,3.7,2.5,6.9,3.1,9.3-.5-2.8-1.3-5.8-2.1-8.9h0Z"/>
      <path class="st1" d="M101,116.8c.5.4.9.8,1.4,1.1-.9-4.8-1.2-9.7.5-14.4l-.5-1.1c-2.3,4.6-2.2,9.6-1.3,14.4h0Z"/>
      <path class="st1" d="M111.3,93.6c-1.3.6-2.4,1.3-3.5,2.2-.7.5-1.4,1.1-2,1.7,0,.1.1.3.2.4,1.6-1.7,3.3-3.2,5.3-4.4h0Z"/>
      <path class="st3" d="M128.1,80.7s0,0,0,0c-.1-.3-.5-1.1-.9-2.2l.8,2.2h0Z"/>
      <path class="st3" d="M141.1,84.3h-.2c.9,3.4.7,8-4,9,2.3-1,.4-1.7.2-1.8-5-1.1-13.3.4-14.2-.2,5.3-.5,5.7-3.1,5.3-5.9-.3,0-.5.1-.8.2.5,2.9-.7,3.9-2.3,4.5-1.4.5-2.8.8-4.3.8h-1.6c.7-.3,2-.3,3.7-.7,2.5-.5,4-1.7,3.8-4.6-.3,0-.7.1-1,.2,0,.7,0,1.4-.3,2.1-.5.9-2.3,1.3-3.2,1.4,0,0-1.4.2-1.4.2-4.7.7-7.6,1.7-11.1,3.6,0,0-.9.5-1.1.7-1.2.8-2.3,1.6-3.3,2.6.2.4.3.7.5,1.1.6-.6,1.3-1.2,2-1.7,1.1-.9,2.2-1.6,3.5-2.2-1.9,1.2-3.7,2.7-5.3,4.4,2.2,4.7,5.1,11,8,17.2.3-4.6,9.1-7.7,12.4.2.7,1.7,1.3,3.5,1.8,5.4.7,0,1.4-.1,2.1-.2-.2-1-.5-2-.8-3-.6-2.5-.9-5.1-.9-7.7,0,0-.2-.2-.2-.3-.1-2.2,0-4.4.5-6.6,0,.1.2.3.3.4.5-2.5,1.4-4.9,2.9-6.8,0,0,.1-.1.2-.2,0-.1,0-.2,0-.2.6-.8,1-1.7,2.8-2,0,0,.1,0,.2,0,1.3-.2.9-.2,1.4-.2v.2c0,0,.1,0,.2,0,2-.3,3.8-1.5,4.7-3.3.6-1.1.7-2.5.7-3.7,0,0,.9-.4,1.1-.6-.8-.4-1.6-1.1-2.3-2.4h0ZM127.4,112c-2.7-3-1.4-15,3.4-15.6-3.4,2.4-4.4,11-3.4,15.6Z"/>
      <path class="st3" d="M131.9,86.8h4.3c2.2-.4,3.2-1.4,3.5-2.6h-.1c-.5,2.2-3,2.4-3.6,2.5-1.5.1-3.1.1-4.6,0-1,0-1.5-1-1.7-1.5,0,0,0,0,0,0,.7,1.8,2.3,1.7,2.3,1.7h0Z"/>
      <path class="st3" d="M126.2,75.3l.4,1.2c-.2-.7-.4-1.4-.7-2.1-.3-.9-.4-1.9-.1-2.8-.6,1.7.3,3.6.3,3.6h0Z"/>
      <path class="st3" d="M135.1,70.4h-.3c.2.4.4.8.5,1.3l3.4,7.9h0c-1.1-2.7-3.5-8.2-3.5-8.2h1.3c.8,2.1,1.9,5.6,2.8,8.2h.1c-.4-1.2-2.7-8.3-2.7-8.3v-.4c-.1,0,.2-.3.2-.3h.1c0,0-.8-.1-.8-.1h-1.3c0-.1,0,0,0,0Z"/>
      <path class="st1" d="M126.8,85.7c.2,2.9-1.3,4-3.8,4.6-1.7.3-3,.4-3.7.6h1.6c1.5,0,2.9-.3,4.3-.8,1.6-.6,2.8-1.7,2.3-4.5-.2,0-.4,0-.6.1h0Z"/>
      <path class="st1" d="M123.4,73.5c-.3-.8-.3-1.6-.1-2.4,0,0-1.1.9-.1,3.2l2.5,6.8c.2,0,.3,0,.5-.1-.1-.4-.3-.8-.5-1.3-.9-2.3-2-5.2-2.3-6.2h0Z"/>
      <path class="st1" d="M139.7,84.2c-.3,1.2-1.3,2.2-3.5,2.6h-4.3c0,0-1.5.2-2.3-1.6-.5.1-1,.2-1.5.3.4,2.7,0,5.4-5.3,5.9.9.6,9.2-.9,14.2.2.2,0,2.2.8-.2,1.8,4.6-1,4.9-5.6,4-9.1h-.7c0,0-.4-.1-.4-.1h0Z"/>
      <path class="st1" d="M136.6,71.5h-1.3c0-.1,2.4,5.4,3.5,8.1h.6c-.9-2.7-2-6.1-2.8-8.1h0Z"/>
      <path class="st1" d="M126.6,76.5l-.4-1.2s-1-1.9-.3-3.6c0-.2.2-.4.3-.6-.4,0-.8,0-1.1,0-.7,0-1.3,0-.9,1.7.3,1.2.5,1.5.7,2.2.3.9,1.4,3.6,2.1,5.9.4,0,.7-.1,1.1-.2l-.8-2.2c-.2-.6-.4-1.2-.7-1.9h0Z"/>
      <path class="st3" d="M125.8,85.9c.3,0,.7-.1,1-.2.2,0,.4,0,.6-.1.3,0,.6-.1.8-.2.5-.1,1-.2,1.5-.3,0,0,0,0,0,0,0-.2-.1-.3-.1-.5,3.2-.4,3.3-1.4,3.3-1.4.9-1.9-1.1-2.6-1.1-2.6-1-.4-3.5.2-3.5.2,0,0,0,0,0-.2,0,0,0,0,0,0-.4,0-.7.1-1.1.2-.3,0-.5.1-.8.2-.2,0-.3,0-.5.1-.3,0-.7.1-1,.2-7.5,1.5-14.8,3.5-18.9,5.2-1.9.7-3.7,1.7-5.3,2.9,0,0-.1.1-.1.2.2,0,.4,0,.7-.1.5,0,1,.3,1.3.7,0,0,.6,1.2,1.4,3.1,1.5-1,3-1.8,4.7-2.5,5.3-2.2,11.4-3.6,17.3-4.9h0ZM103.5,92.3s-.7-1.4-.9-1.9c-.3-.8-.5-.8-.9-.9,1.3-.8,2.8-1.5,4.2-2.1,5.1-2.1,15.6-4.8,24.7-6.3.9-.2,1.7.4,1.9,1.2,0,.6-.2,1.3-1.4,1.5h-.6c-7.3,1.6-15.6,3.2-22.5,6-1.7.5-3.3,1.4-4.7,2.4h0Z"/>
      <path class="st3" d="M98.5,93.9l-.2-.4s0,0,0,0c0,0,0,.2.2.3h0Z"/>
      <path class="st3" d="M98.2,93.3c0-.4,0-.7,0-1.1,0,0,0,0,0,0-.1.3-.1.7,0,1.1Z"/>
      <path class="st3" d="M94.8,95.1c-.8,1.3-3.9,6.1-6.6,10.4.9-.4,1.9-.2,2.6.5.4.4,1.1,1.1,1.9,2.1,2.8-4.5,5.4-8.6,5.4-8.6.6-1,1.3-2,1.7-2.6l-.4-.8c-.2.3-1.3,1.8-2.1,3l-5.1,8.4-1.4-1.5s-.7-.6-1.4-.6c2.8-4.5,5.3-8.4,6.1-9.7.8-1.2,1.7-2.3,2.6-3.4,0-.4.2-.9.4-1.2,0,0,.1-.2.2-.3-.5.4-1,.8-1.4,1.2-.9,1-1.6,1.9-2.6,3.2h0Z"/>
      <path class="st3" d="M172.3,118.3l-.5-1.1c-.9-2.5-2.7-2.9-5.4-2.6l-2.3.3c-4.7.4-12.3,1.2-18.7.1l1.5,3.5c2.6-.4,4.8-.8,6.4-1.1h.4c.2-.5.5-.8.9-1,1.1-.5,2.4-.4,3.4.2h0c1.3-.2,3-.5,7.2-1.1.4,0,.8.1,1.2.3.3,0,.6,0,.6,0,.7,0,1.2.6,1.3,1.3.1.5,0,.9-.4,1.3,0,.5-.2.9-.5,1.2,0,0,0,0-.2,0,.8,1.9,1.4,3.9,2,5.9l.6,2.7c.4,0,.8-.2,1.2-.3h0c-.1,0-.2,0-.3,0-.6-2.9-1.5-5.8-2.6-8.5,2-1.4,1.2-3.7,0-4.1,0,0,2.4-.5,3.5,3.7,4,11.3,7.2,26.8,6.3,32.1,0-.7-1.1-2-2.9-2.3,0-.5,0-1,0-1.6-.5-4.7-2.1-13.1-2.1-13.1,1.7-.6,2.2-3,1-4.7.2.4.4.8.5,1.2.2,1.3-.2,3-1.9,3.5,0,0-.2,0-.5.1v.6c.8,3.8,1.9,9.4,2.3,12.9,0,.3,0,.6,0,.9,1.4.3,3.4,1,3.8,2.8h0c.2.9-.1,1.7-.7,2.3,2-1.5,1.9-4.9,1.9-5.1-.7-9.9-3-19.8-6.7-30.3h0ZM153.6,117.3c-2.1.5-6.7,1-6.7,1l-1-2.2c2.8.4,5.7.5,8.6.3-.5,0-.9.4-.9.9h0ZM158,116.6c-.4-.3-.8-.5-1.3-.5,1.5.1,6.1-.3,6.1-.3-1.1.3-4.9.9-4.9.9h0Z"/>
      <path class="st3" d="M129.2,103.5c-.1-.1-.2-.3-.3-.4-.5,2.2-.6,4.4-.5,6.6,0,0,.2.2.2.3,3.5,4.3,8.1,7.5,13.3,9.2-.2-.4-.3-.7-.5-1.1-7.5-2.5-12.8-9.5-12.8-9.5,0-1.3.1-2.6.4-3.8,4.8,6.7,10.2,9.3,10.9,9.6-.2-.4-.3-.8-.5-1.1-.4-.2-.7-.4-1.1-.7-1.7-1-5.7-4.2-9-8.9h0Z"/>
      <path class="st3" d="M160,120.8c0,.1,0,.2.1.3,4.6-.8,6.4-1.4,7-1.6.1,0,.2,0,.2,0,.3-.3.5-.8.5-1.2-.1.1-.3.2-.4.3-.4.2-.9.4-1.4.5-1,.3-2.2.6-3.8.9-1.2.2-2.3.5-2.2.4-.2-.5-.5-1.4-1.2-2.8,2.2-.4,4.5-.9,6.5-1.4.4,0,.7-.2,1.1-.2-.4-.2-.8-.3-1.2-.3-4.2.6-5.9.9-7.2,1.2l2,4.1h0Z"/>
      <path class="st3" d="M151.5,129.7l-2.8-6.6c-.2,0-.5,0-.8.1.9,2.3,1.9,4.7,2.7,6.5.3,0,.5,0,.8,0Z"/>
      <path class="st3" d="M161.8,149.7c0-.3,0-.7,0-1-6.2-3.2-10.3-10.2-10.3-10.2.6-.1,3.1-.6,3.1-.6,1.9,2.6,4.2,5,6.8,6.8,0-.4,0-.8-.1-1.1-2.3-1.6-4.2-3.6-5.8-5.9-1.6.3-3.2.6-5,.9,3,4.9,7,8.8,11.4,11.1h0Z"/>
      <path class="st3" d="M147.2,129.4c-1-2.5-2.2-5.2-2.4-5.8-.3,0-.6,0-.9.1.8,2,1.6,3.8,2.3,5.5l1,.2Z"/>
      <path class="st3" d="M135.3,94.3c0,0-.1,0-.2,0-1.8.3-2.2,1.1-2.8,2,0,0,0,0,0,.2.5,1.3,3.6,8.6,7,16.6.2.4.3.8.5,1.1,0,0,0,0,0,0l1.5,3.8h0c.2.4.3.7.5,1.1,0,0,0,0,0,0,1.8-.2,3.4-.5,4.9-.7l-1.5-3.5-8.6-20.7v-.2c-.6,0-.3,0-1.5.2h0ZM146,118.5c-1.4.3-3.1.4-3.1.4l-9.9-23.3c1.1-1.2,2.8-1.2,2.8-1.2.6,1.3,10.2,24,10.2,24h0Z"/>
      <path class="st3" d="M177.8,151.5h0s0,0,0,0c-.4-1.9-2.4-2.6-3.8-2.8-.4,0-.8-.1-1.3-.2-2.1-.3-4.2-.9-6.2-1.8.2,1.7.3,3.4.3,5.1.3,0,.6.2.9.3-.3,0-.6.1-.9.2,0,1.1,0,2.2,0,3.2,0,.7-.3,1.4-.9,1.9,8.7-2,10.1-2.7,10.7-3.2.2-.1.4-.2.5-.4.6-.6.8-1.4.7-2.2h0ZM166.7,156.2c.2-1.1.3-2.2.2-3.3,10.2-2.2.5-3.1.5-3.1,2.2.7,2.2,1.5,2.2,1.5-.9,0-1.8-.2-2.7-.5,0-.6-.1-3.2-.1-3.2,2.6,1.1,3.1.8,5.8,1.4,2.8.6,1.4,1.8,1.4,1.8-1.4,1.8-6.7,2.5-6.7,2.5,8.8-1.1,8-3.6,8-3.6,3.6,2.4,0,4-1.8,4.5-1.6.5-6.9,1.8-6.9,1.8h0Z"/>
      <path class="st3" d="M151.5,129.7c-.3,0-.6,0-.8,0,.9,2,1.5,3.4,1.5,3.4-.5.2-3.1.6-3.1.6-.2-.4-1-2.2-1.8-4.2l-1-.2-14.9-2.6h-.1s-.4,0-.4,0v.4c-.2.3-.2,1.6,0,3.9v.3s.4,0,.4,0h0s16.2,2.7,16.2,2.7c2.9-.5,5.7-1,8.4-1.5l2-.4c.5-.2.6-.7.4-1.3,0,0-.2-.5-.4-1.2-2.4,0-4.7.1-6.4,0h0ZM147.8,133.2l-16.5-2.7c0-1,.1-2,0-3l15.2,2.8c.3.8,1.2,2.9,1.2,2.9h0ZM158.1,130.5c.5,1.5-.7,1.5-.7,1.5l-4.4.9-1.1-2.4c3.8,0,6.3,0,6.3,0h0Z"/>
      <path class="st3" d="M164.7,135.8c2-.4,5.7-1.3,7.1-1.6.3,0,.5-.1.5-.1,1.6-.5,2.1-2.2,1.9-3.5,0-.4-.2-.9-.5-1.2-.7-.9-1.7-1.4-2.8-1.4h0c-.4.1-.8.2-1.2.3-2.2.5-4.5.8-6.7,1.1.6,2.1,1.2,4.3,1.7,6.6h0ZM173.3,130.3s.7,2.1-1.1,2.8c0,0-1.3.7-7.4,1.8,0,0-.5-1.9-.7-2.9,0,0,5.1-1.1,7.2-1.8,0,0,0-.7-1-.6,0,0-5.2,1.3-6.4,1.4l-.3-.8s4.5-.9,6-1.2c0,0,3.2-1.1,3.8,1.3h0Z"/>
      <path class="st3" d="M166.7,155.3c0-1,0-2.1,0-3.2,0-.1,0-.3,0-.4,0-1.7-.1-3.3-.3-5.1-.4-3.6-1-7.2-1.8-10.7-.5-2.2-1.1-4.5-1.7-6.6-.8-2.7-1.8-5.4-2.9-8.1,0-.1,0-.2-.1-.3l-2-4.1h0c-1-.7-2.3-.8-3.4-.3-.4.2-.7.4-.9.8h-.4c-1.5.5-3.8.8-6.4,1.2-1.5.2-3.2.5-4.9.7-3.7.5-7.7,1-11.6,1.4-.7,0-1.4.1-2.1.2-4.1.4-7.9.6-10.9.7h-.5c-.9-2-1.9-4.1-2.9-6.2-2.9-6.3-5.8-12.5-8-17.2,0-.1-.1-.3-.2-.4-.2-.4-.3-.7-.5-1.1-.6-1.2-1.1-2.3-1.5-3.2-.9-1.8-1.4-3-1.4-3.1-.3-.5-.8-.7-1.3-.7-.2,0-.5,0-.7.1-.6.2-1.2.6-1.6,1.1,0,0-.2.2-.2.3-.2.4-.3.8-.4,1.2,0,0,0,0,0,0,0,.4,0,.7,0,1.1,0,0,0,.2,0,.3l.2.4c.4.7,1,2,1,2,0,0,0,0,0,0l.4.8,1.9,4.2.6,1.2.5,1.1,8.1,17.7c-3.7-.5-6.2-1.5-8.6-3.3-.5-.3-.9-.7-1.4-1.1-.4-.3-.8-.8-1.2-1.2-2.3-2.2-5.1-5.3-7.1-7.5-.9-.9-1.6-1.7-1.9-2.1-.6-.7-1.7-1-2.6-.5-.2,0-.5.2-.7.4-.8.6-1.2,1.6-1,2.5,0-.1.1-.2.2-.3,0,0,0,.6,1,1.7,1,1.1,2.4,2.5,2.4,2.5,0,.1-.1.2-.2.3,2.7,2.7,5.8,5.7,5.9,5.7,1.6,1.8,3.5,3.3,5.6,4.6.4.3.9.5,1.3.7.3.2.6.3,1,.4,2.9,1.2,6.1,1.9,9.3,2,0,0,0,0,.1,0l.3.7,4.7,10.3c-.5,0-1.1-.1-1.7-.2,0,0-4.1-.7-9.6-1.6-.6,0-1.2-.2-1.8-.3-.6-.1-1.3-.2-2-.3-.3,0-.6-.1-.9-.2-9-1.5-19.7-3.4-23.6-4.1l-.6.8c2.5.4,36.9,6.3,36.9,6.3,5.6.8,8.7.3,8.8.3,12-.9,22.4-2.7,32.3-4.5l2.1-.4h0s0,0,0,0c.7-.1,1.3.6,1.3.6.3-.5-.4-3.3-.4-3.3,0,0-1.8-5.8-2.7-8.1h0s-.5-1.1-1.4-1.2c0-.4,0-.8-.1-1.2,0,.6-.5,1.2-1.2,1.3-9.2,1.8-24.5,3.7-33.8,4.3,0,0-4,0-7-.2-5.1-.3-10.9-1.5-16.5-7.5,0,0-6.3-6-8.8-8.7-.6-.8-.4-1.8.4-2.4.5-.4,1.5-.7,2-.1,1.1,1.5,7,7.7,10,10.8,3.4,2.7,6.3,4,11.1,4.6,2.4.3,6,.3,6.1.3,11.1-.1,28.5-2.7,35.7-4,.9-.1,1.7.7,1.7.7l-.2-1v-.3c.2-.2.5-.4.8-.6.7-.3,1.5-.2,2.1.3,4.8,8.9,9.3,25.7,8.5,37.9,0,.6-.3,1.2-.8,1.5,0,0-1.4,1-2.5-.7,0,0,.3.8-.9,1.2-7.4,1.9-15.4,2-22.1.3-6.1-1.6-13.3-5.1-17.3-14,1-1.3,2.9-1.3,2.9-1.3,6.2,13.3,22,15.6,35.7,12.1,0,0,1-.2,1.4.5.4-.8.4-3.4.4-3.4,0-.4-.2-8.4-1.7-13.8,0-.2-.4-1.2-.9-1.3,0,0-.2-1.6-.3-1.3-.2,1.3-1.8,1.4-1.8,1.4-8.4,2-21.5,3.7-31.8,4.7,0,0-.8.1-2.2.2h-1.1c-2.8.1-5.5-.1-8.2-.6,0,0-36.4-6-36.4-6-.4-.2-.6-.5-.7-.9-.1-.5-.1-1.1,0-1.7l-1.6,2.3c-.2.2-.3.4-.6.6,1.9.3,16.3,2.8,26.9,4.6.4,0,.9.1,1.3.2.7.1,1.4.2,2.1.4.4,0,.8.1,1.1.2,4.1.7,6.9,1.2,6.9,1.2,2.2.4,4.4.7,6.7.8,0,0,.1,0,.2,0l.2.3c.4.9.8,1.8,1.3,2.7.3.6.7,1.2,1,1.7,3.5,5.5,9,9.5,16.1,11.4,7.3,1.9,15.6,1.7,23.6-.6.8.4,1.7.3,2.5-.1.2,0,.3-.2.5-.3.5-.5.8-1.2.9-1.9h0ZM118,126.4l4.7,10.5c-1.1.2-2.3.2-3.4.1-.6-1.3-1.3-2.9-4.2-9.4,1-1.6,3-1.2,3-1.2h0ZM119.6,126.4c2.7-.2,6-.4,9.5-.8.7,0,1.4-.1,2.1-.2,4.2-.4,8.6-1,12.7-1.6.3,0,.6,0,.9-.1,0,0,0-.1,0-.1.5,0,3.2-.5,3.2-.5,0,0,0,0,0,.1.3,0,.5,0,.8-.1,2-.3,3.9-.7,5.4-1,0,0,.7-.1.9,0,.4.3.4.5.4.5h0s0,0,0,0c.6,1.6,1.8,5.1,2.4,7,.2.7.4,1.2.4,1.2.2.6,0,1.1-.4,1.3l-2,.4c-2.8.5-5.6,1-8.4,1.5-5.4.9-11,1.8-17,2.4-.7,0-1.4.2-2.2.2-1.5.1-3.1.3-4.6.4,0,0,0,0,0,0-.9-2.3-2.6-6.1-4.6-10.6.3,0,.5,0,.5,0h0ZM99.1,93.1c-.2-.6-.1-1.3.2-1.8.4-.6,1-1,1.7-1,.2,0,.4,0,.5.2l14.3,30.8c-1.2,0-2.4,0-3.6-.2-6-13-13.1-28-13.1-28h0ZM128.3,141.6c6.9-.7,15.1-1.8,22.1-3,1.7-.3,3.4-.6,5-.9,1.4-.3,2.7-.6,3.9-.9.3,0,.4,0,.5,0,.2.2.3.4.3.7h0c0,0,0,0,0,0,.5,2,.9,4,1.1,6,0,.4,0,.8.1,1.1,0,0,.1,0,.1,0,.1,1,.3,3.9.3,3.9,0,0,0,0,0,0,0,.4,0,.7,0,1,0,1.2.1,2,.1,2,0,.6-.2,1.1-.6,1.4-12.8,3.5-27.6,1.6-34.3-9.6-.2-.3-.4-.6-.6-.9l-.6-.6c.5,0,.8-.2.8-.2.6,0,1.1-.1,1.7-.2h0Z"/>
      <path class="st3" d="M78.8,126.1c-1.3-.7-1.8-1.6-2-2.4l-.2.4s-5.1,7.6-5.1,7.5c-.4.6-.5,1.3-.2,2,.5.9,1.5,1.5,2.5,1.6.5,0,1.1-.1,1.5-.4.2-.2.4-.3.6-.6l1.6-2.3c.1-.5.3-.8.3-.7,0,0,0,0,.2,0l.6-.8,2.1-3.1c-.8-.4-1.4-.8-1.9-1.1h0ZM75.3,133.7c-.3.4-.8.6-1.3.6-.7,0-1.4-.5-1.8-1.1-.2-.3-.1-.8.1-1l4.8-7.4c.3.6,2.7,2,2.7,2-1,1.5-4.6,6.9-4.6,6.9h0Z"/>
      <path class="st3" d="M86.3,128.1c0,.2.2.5.3.7h0c.2.4.5.7.9.9,2.7,1.6,4.1-.4,4.1-.5,0,0,1.2-1.6-.5-3.3-.7-.6-1.7-.9-2.6-.8-.4-1.4-1.7-2.3-3.1-2.2h0c-1.8.1-2.2,1.1-2.4,1.6-.3.7-.2,1.6.2,2.3,0,0,.9,1.7,3.1,1.4h0ZM88.6,125.6c2,0,3.5,1.9,2.5,3.4h-.4c-1.7.3-2.7-.4-3-1.9.4-.4.7-.9.8-1.4h0ZM86.3,123.4c1,.3,1.7,1.2,1.7,2.1h.1c0,.7-.8,1.5-2.1,1.3,0-.3,0-.6,0-.9.2,0,.5.1.8.1,0-.1,0-.3,0-.4-.3,0-.5-.1-.8-.2,0-.7.2-1.4.5-2h0ZM84,123.9c.4-.4.9-.6,1.5-.5-.3.5-.4,1.1-.4,1.8-.1,0-.3-.2-.4-.3v.5c0,.2.2.2.4.3,0,.3,0,.7.1,1,0,0-.1-.1-.2-.2-1.4-.8-.9-2.7-.9-2.7h0ZM83.5,124.5c-.2,2.9,2.4,3.3,3.9,2.7.3,2.3,2.3,2.4,3.3,2.2-1.3.7-3,.2-3.7-1.1-.1-.3-.2-.5-.3-.8-1.9.6-3.9-.9-3.2-3h0Z"/>
      <path class="st3" d="M78.8,126.1c.5.3,1.2.7,1.9,1.1,3,1.8,7.2,4.4,7.2,4.4,2.9,1.9,5.2-.8,5.9-1.8.6-.7,2.2-3,2.2-5,0-1.9-1.5-2.9-2.8-3.8l-6.1-4c0,.1-.2.3-.2.4l-.8-.4-.5.8c-.5.4-1.5,0-2.2-.6-.1-.1-.9-.9-.4-1.4h0s0,0,0,0c0,0,0-.1.2-.3l-.8-.4c0,0,0-.1.1-.2-.8,0-1.5.5-1.9,1.1-.5,1.1-2.8,4.8-3.2,5.3-.5.7-.7,1.5-.5,2.4.2.8.7,1.7,2,2.4h0ZM86.9,118c2.3,1.5,5.4,3.5,6.7,4.5,2.4,1.8,1.1,4,1.1,4,.2-1.3-.3-2.6-1.9-3.6-1.3-.9-6.5-4.3-6.5-4.3l.5-.5ZM81.8,116.2c-.1,1.7,2.6,3.1,3.8,2.8l6.8,4.5c1,.7,2,2,1.4,3.7,0-1.6-2-2.8-2-2.8,0,0-7.3-4.3-9.5-5.7-1.3-.8-1.1-1.9-.5-2.5h0ZM78.4,121.6c1.3-1.9,2-3,2.3-3.5.3.5.7.9,1.2,1.2,2.2,1.4,7,4.3,8.3,5,1.5.8,1.8,1.2,1.8,1.2,1.7,1.6,1.4,3.2.5,4.3-.9,1.3-2.7,2.1-4.2,1.1l-2-1.2h0s-.7-.5-.7-.5l-6.3-3.9h0s0,0,0,0c-.6-.3-1.1-.8-1.3-1.5-.2-.6,0-1.4.6-2.2h0Z"/>
      <path class="st3" d="M82.4,115.2l.8.4c.3-.6,1.3-2.2,3.7-6.1.7.9,1.5,1.8,2.4,2.6l-3.2,5,.8.4c0,0,.1-.2.2-.4.6-.9,1.4-2.3,2.8-4.6,0-.1.1-.2.2-.3,0,0-1.4-1.4-2.4-2.5-1-1.1-1-1.7-1-1.7,0,.1-.1.2-.2.3-2.2,3.6-3.5,5.7-4,6.5,0,0-.1.2-.1.2h0Z"/>
      <path class="st3" d="M136.6,70.9v.4c.1,0,2.4,7.1,2.9,8.3h.2c2.2.2,5.1.6,6.1,1h0c1.2.1,1.8,1.4,1.7,2.5,0,.4-.2.8-.4,1.1,1.1-1.1.7-3.3-.9-3.8-.8-.2-1.7-.4-2.5-.5l-4.1-9.3,2.4-1,5.9,10.8c3.4,5.4-2.9,7.3-5.3,4,.4,0,.7,0,1.1,0-.7-.1-1.4-.2-2.2-.2h-.3c.7,1.3,1.5,2,2.3,2.4.8.3,1.6.4,2.4.3,1.7,0,3.2-1.2,3.8-2.8,0,0,.5-1.7-.9-4l-6.5-11.8h-.3c0,.1-4.7,2.1-4.7,2.1h-.1c0,0-.3.3-.3.3h0ZM138.7,70.9l3.9,8.9c-.6-.1-2.1-.3-2.1-.3l-2.9-8.2,1.1-.5h0Z"/>
      <path class="st3" d="M139.6,84.2h.1s.4,0,.4,0h.7c0,0,.2,0,.2,0h.3c.7,0,1.4,0,2.2.2.4,0,.8.1,1.2.3,1,.4,2.1-.2,2.5-1.2,0-.2,0-.4.1-.5,0-1.1-.5-2.3-1.7-2.5h0c-1-.3-3.9-.7-6.1-.9h-.2s-.1,0-.1,0h-.6s0,0,0,0l.3.6c.7,1.8.8,3,.6,3.9h0ZM145.6,81.3h0s0,0,0,0c.6,0,1,.9.9,1.5,0,.3-.2,1.1-1.4,1.1-1.7-.4-3.5-.6-5.3-.6,0-1.2-.7-2.9-.7-2.9,1.6.2,5.7.6,6.5.9h0Z"/>
      <path class="st3" d="M131.6,70.1s-1,.2-.5,2c0,0,0,.2.2.4.3.7.8,1.3,1.3,1.8,0,.5,0,1,.2,1.5h0c.1.7.4,1.3.8,1.8,1.1,1.3,2.4.6,2.1-1-.3-1.4-.9-1.9-1.5-2.5.1-2.5-1.4-4.3-2.5-4h0ZM134.2,77.4c-.7-.7-1.1-1.6-1.1-2.5.9.2,1.5,1.1,1.3,2,0,.2-.1.3-.2.5h0ZM132.8,73.7c-.6-.4-1.3-1.8-1.3-2.7,1.4,0,1.8,2,1.3,2.7h0Z"/>
      <path class="st1" d="M132.4,69.3c-.7-.3-2.4-.1-2,1.9,0,.2,0,.3.2.5l.3.9,1.3,3.3h0c0,.1,2.2,5.3,2.2,5.3.2.6.4,1.2.5,1.9h3.8s0-1-.9-3.2c-.6-1.6-2.9-6.7-3.3-7.8-.5-1.2-1.2-2.3-2.2-2.8h0ZM134.1,74c.6.6,1.2,1.1,1.5,2.5.4,1.6-.9,2.3-2.1,1-.4-.5-.7-1.1-.8-1.7h0c-.1-.6-.2-1.1-.2-1.6-.6-.5-1-1.1-1.3-1.8,0-.2-.2-.4-.2-.4-.5-1.7.5-2,.5-2,1.1-.3,2.7,1.5,2.5,4h0Z"/>
      <path class="st1" d="M131.5,71c0,.9.8,2.3,1.3,2.7.4-.7,0-2.7-1.3-2.7Z"/>
      <path class="st1" d="M133.1,74.9c0,1,.4,1.9,1.1,2.5.5-.8.2-1.9-.6-2.3-.2,0-.3-.2-.5-.2Z"/>
      <path class="st1" d="M133.8,81.5c-.4-1-3.2-7.5-3.9-9.1-.3-.6-.5-1.3-.5-2,0-.2,0-.2,0-.2l-1.2.6c-.9,1.1.3,4,.3,4,0,0,.9,2.7,2,5.4,2.9-.7,5.4,4.5-.1,4.9.5,2.1,5.2,1.2,3.4-3.5Z"/>
      <path class="st1" d="M128.7,80.5l1-.2-2-5.5s-.8-1.9-.3-3.6l-.9.4s-.6,1.1,0,2.9c.8,2.4,2.1,6,2.1,6Z"/>
      <path class="st1" d="M134,86c3.8.3,4.5-1.4,4.5-1.4-1.2,0-3.5,0-3.5,0,0,.7-1,1.4-1,1.4h0Z"/>
      <path class="st1" d="M89.4,105.3c.6,0,1.4.6,1.4.6l1.4,1.5,5.1-8.4c.8-1.2,1.9-2.7,2.1-3,0,0,0,0,0,0,0,0-.6-1.3-1-2,0-.1-.1-.2-.2-.3,0,0,0,0,0,0,0,0,0-.2,0-.3-.1-.3-.1-.7,0-1.1,0,0,0,0,0,0-1,1.1-1.8,2.2-2.6,3.4-.9,1.3-3.3,5.2-6.1,9.7h0Z"/>
      <path class="st1" d="M156.8,116.1c.5,0,.9.2,1.3.5,0,0,3.8-.5,4.9-.9,0,0-4.6.5-6.1.3h0Z"/>
      <path class="st1" d="M131.4,127.5c0,1,0,2,0,3l16.5,2.7s-.9-2.1-1.2-2.9l-15.2-2.8Z"/>
      <path class="st1" d="M153,132.9l4.4-.9s1.2,0,.7-1.5c0,0-2.4,0-6.3,0l1.1,2.4h0Z"/>
      <path class="st1" d="M133,95.7l9.9,23.3s1.7-.2,3.1-.4c0,0-9.6-22.7-10.2-24,0,0-1.7,0-2.8,1.2h0Z"/>
      <path class="st1" d="M149,133.6s2.6-.3,3.1-.6c0,0-.6-1.4-1.5-3.4-.8-1.8-1.8-4.2-2.7-6.5,0,0,0,0,0-.1,0,0-2.7.4-3.2.5,0,0,0,0,0,.1.3.6,1.4,3.3,2.4,5.8.8,1.9,1.6,3.7,1.8,4.2h0Z"/>
      <path class="st1" d="M154.6,137.9s-2.5.5-3.1.6c0,0,4.1,7,10.3,10.2,0,0,0,0,0,0,0,0-.2-2.9-.3-3.9,0,0,0,0-.1,0-2.7-1.9-5-4.2-6.8-6.8h0Z"/>
      <path class="st1" d="M175.4,149.8s.8,2.4-8,3.6c0,0,5.3-.7,6.7-2.5,0,0,1.4-1.1-1.4-1.8-2.7-.6-3.2-.3-5.8-1.4,0,0,.2,2.6.1,3.2.9.3,1.8.4,2.7.5,0,0,0-.8-2.2-1.5,0,0,9.6.9-.5,3.1,0,1.1,0,2.2-.2,3.3,0,0,5.3-1.4,6.9-1.8,1.8-.5,5.4-2.2,1.8-4.5h0Z"/>
      <path class="st1" d="M122.7,137l-4.7-10.5s-2-.4-3,1.2c3,6.5,3.7,8.2,4.2,9.4,1.1.1,2.3,0,3.4-.1h0Z"/>
      <path class="st1" d="M115.8,121.4l-14.3-30.8c-.1-.2-.3-.2-.5-.2-.7,0-1.3.4-1.7,1-.4.5-.5,1.2-.2,1.8,0,0,7.2,15,13.1,28,1.2.2,2.4.3,3.6.2h0Z"/>
      <path class="st1" d="M77.6,131.9c-.2.5-.2,1.1,0,1.7,0,.4.4.7.7.9,0,0,36.4,6,36.4,6,2.7.5,5.5.7,8.2.7h1.1c.7,0,1.5-.1,2.2-.2,10.3-1,23.4-2.7,31.8-4.7,0,0,1.7,0,1.8-1.4,0-.3.3,1.3.3,1.3.6.2.9,1.1.9,1.3,1.5,5.4,1.7,13.5,1.7,13.8,0,0,0,2.6-.4,3.4-.5-.7-1.4-.5-1.4-.5-13.7,3.5-29.5,1.2-35.7-12.1,0,0-1.9,0-2.9,1.3,4,8.8,11.2,12.4,17.3,14,6.7,1.8,14.7,1.7,22.1-.3,1.2-.4.9-1.2.9-1.2,1.1,1.7,2.5.7,2.5.7.5-.3.8-.9.8-1.5.8-12.2-3.7-29-8.5-37.9-.6-.5-1.4-.6-2.1-.3-.3.1-.5.3-.7.6v.3s.2,1,.2,1c0,0-.8-.8-1.7-.7-7.2,1.3-24.6,3.9-35.7,4-.2,0-3.7,0-6.1-.3-4.8-.6-7.6-1.9-11.1-4.6-3-3.2-8.9-9.4-10-10.8-.5-.6-1.5-.3-2,.1-.8.6-.9,1.6-.4,2.4,0,0,0,0,0,0,2.5,2.7,8.7,8.6,8.8,8.7,5.6,6.1,11.4,7.3,16.5,7.5,3,.2,7,.2,7,.2,9.3-.6,24.6-2.4,33.8-4.3.6-.2,1.1-.7,1.2-1.3.1.4.2.8.1,1.2.9.2,1.3,1.2,1.4,1.3h0c.9,2.2,2.7,7.9,2.7,8,0,0,.7,2.8.4,3.3,0,0-.5-.8-1.3-.6h0s0,0,0,0l-2.1.4c-10,1.8-20.3,3.7-32.3,4.5,0,0-3.2.5-8.8-.3,0,0-34.4-5.9-36.9-6.3,0,0-.2,0-.2,0,0,0-.2.3-.3.7h0Z"/>
      <path class="st1" d="M79.1,125.2h0s0,0,0,0l6.3,3.9.7.4h0s2,1.3,2,1.3c1.5,1,3.3.2,4.2-1.1.8-1.1,1.2-2.7-.5-4.3,0,0-.3-.4-1.8-1.2-1.4-.8-6.1-3.6-8.3-5-.5-.3-.9-.7-1.2-1.2-.3.5-.9,1.6-2.3,3.5-.6.8-.8,1.6-.6,2.2.2.6.7,1.2,1.3,1.5h0ZM83,124.5c.2-.5.6-1.5,2.4-1.6h0c1.4-.1,2.8.8,3.1,2.2.9,0,1.9.2,2.6.8,1.8,1.7.6,3.3.5,3.3,0,0-1.5,2-4.1.5-.4-.2-.7-.5-.9-.9h0c-.1-.2-.2-.5-.3-.7-2.3.3-3.1-1.3-3.1-1.4-.4-.7-.5-1.5-.2-2.3h0Z"/>
      <path class="st1" d="M94.7,126.5s1.3-2.2-1.1-4c-1.3-1-4.4-3-6.7-4.5l-.5.5s5.2,3.4,6.5,4.3c1.5,1,2.1,2.3,1.9,3.6Z"/>
      <path class="st1" d="M82.3,118.6c2.2,1.4,9.5,5.7,9.5,5.7,0,0,2,1.2,2,2.8.6-1.7-.4-2.9-1.4-3.7l-6.8-4.5c-1.3.3-3.9-1.1-3.8-2.8-.7.6-.8,1.7.5,2.5h0Z"/>
      <path class="st1" d="M90.8,129h.4c1-1.5-.6-3.5-2.5-3.4,0,.6-.4,1.1-.8,1.4.3,1.5,1.3,2.2,3,2h0Z"/>
      <path class="st1" d="M86.7,127.5c.3,1.5,1.7,2.5,3.2,2.2.3,0,.6-.1.8-.3-1,.2-3,0-3.3-2.2-1.5.5-4.1.1-3.9-2.7-.8,2.1,1.3,3.6,3.2,3h0Z"/>
      <path class="st1" d="M158.7,117.5c.7,1.4,1,2.3,1.2,2.8,0,0,1.1-.2,2.2-.4,1.6-.3,2.8-.6,3.8-.9.5-.1.9-.3,1.4-.5.2,0,.3-.1.4-.3.3-.3.5-.8.4-1.3,0-.7-.6-1.2-1.3-1.3,0,0-.2,0-.6,0-.4,0-.8.1-1.1.2-2,.5-4.3,1-6.5,1.4h0Z"/>
      <path class="st1" d="M163.7,131c1.2-.1,6.4-1.4,6.4-1.4,1,0,1,.6,1,.6-2,.7-7.2,1.8-7.2,1.8.2,1,.7,2.9.7,2.9,6.1-1.1,7.4-1.8,7.4-1.8,1.8-.7,1.1-2.8,1.1-2.8-.7-2.4-3.8-1.3-3.8-1.3-1.5.3-6,1.2-6,1.2l.3.8h0Z"/>
      <path class="st1" d="M173.7,129.3c1.1,1.6.7,4.1-1,4.7,0,0,1.7,8.5,2.1,13.1,0,.5,0,1,0,1.6,1.8.4,2.9,1.7,2.9,2.3.9-5.4-2.2-20.8-6.3-32.1-1.1-4.2-3.5-3.7-3.5-3.7,1.3.4,2,2.6,0,4.1,1.1,2.8,1.9,5.6,2.6,8.5.1,0,.2,0,.3,0,1.1,0,2.1.5,2.8,1.4h0Z"/>
      <path class="st1" d="M129,104.7c-.2,1.3-.4,2.6-.4,3.8,0,0,5.3,7.1,12.8,9.5h0l-1.5-3.8s0,0,0,0c-.7-.3-6-2.9-10.9-9.6h0Z"/>
      <path class="st1" d="M145.9,116.1l1,2.2s4.6-.5,6.7-1c0-.5.4-.9.9-.9-2.9.2-5.8.1-8.6-.3h0Z"/>
      <path class="st1" d="M77.2,124.8l-4.8,7.4c-.2.3-.3.7-.1,1,.4.6,1,1,1.8,1.1.5,0,1-.2,1.3-.6,0,0,3.6-5.4,4.6-6.9,0,0-2.4-1.5-2.7-2h0Z"/>
      <path class="st1" d="M130.6,84h.6c1.2-.3,1.5-1,1.4-1.6-.2-.8-1-1.4-1.9-1.2-9.1,1.5-19.7,4.2-24.7,6.3-1.5.6-2.9,1.3-4.2,2.1.3.2.5.2.9.9.2.5.9,1.9.9,1.9,1.4-1.1,3-1.9,4.7-2.4,6.9-2.8,15.2-4.5,22.5-5.9h0Z"/>
      <path class="st1" d="M83,115.9h0c-.4.5.3,1.3.4,1.4.7.6,1.7,1,2.2.6l.5-.8,3.2-5c-.9-.8-1.7-1.7-2.4-2.6-2.4,3.9-3.4,5.5-3.7,6.1,0,.1-.1.2-.2.3h0s0,0,0,0Z"/>
      <path class="st1" d="M139.8,83.3c1.8,0,3.6.2,5.3.6,1.2,0,1.4-.8,1.4-1.1,0-.6-.3-1.4-.9-1.5h0s0,0,0,0c-.8-.3-4.9-.8-6.5-.9,0,0,.7,1.7.7,2.9h0Z"/>
      <path class="st1" d="M144.8,84.8c-.4-.1-.8-.2-1.2-.3-.4,0-.7,0-1.1,0,2.4,3.3,8.6,1.3,5.3-4l-5.9-10.8-2.4,1,4.1,9.3c.9,0,1.7.2,2.5.5,1.5.4,1.9,2.6.9,3.8-.6.6-1.4.8-2.2.7h0Z"/>
      <path class="st1" d="M142.6,79.9l-3.9-8.9-1.1.5,2.9,8.2s1.5.2,2.1.3h0Z"/>
      <path class="st1" d="M86.6,126.1c-.3,0-.5,0-.8-.1,0,.3,0,.6,0,.9,1.4.2,2.1-.7,2.1-1.3h-.1c0-.9-.7-1.8-1.7-2.1-.3.6-.5,1.3-.5,2,.2.1.5.2.8.2,0,.1,0,.3,0,.4h0Z"/>
      <path class="st1" d="M85,126.5c0,0,.1.1.2.2,0-.3-.1-.7-.1-1-.2-.1-.3-.2-.4-.3v-.5c.1,0,.2.2.4.3,0-.6.1-1.2.4-1.8-.5,0-1.1.1-1.5.5,0,0-.5,1.9.9,2.7h0Z"/>
      <path class="st1" d="M135.1,70.4h-.6c-.1-.2-.3-.4-.5-.6,0,0-.1-.1-.2-.2,0,0-.1-.1-.2-.1-.1,0-.2-.2-.3-.2-.2-.1-.5-.3-.7-.3-.3,0-.6-.1-1-.1-.1,0-.2,0-.4,0,0,0,0,0-.1,0,0,0-.2,0-.3,0h0c-.1,0-.2,0-.3.1l-.6.3c-1.6-2.8-3.5-5.4-5.6-7.8-2.1-2.5-4.5-4.7-7-6.8-12.1-9.8-29-15.1-49.2-12.1,4.4-1.1,9-1.7,13.6-1.8,16.5-.5,33.2,5.4,45.6,18.8,1.8,2,3.5,4.1,5,6.2.2.4.4.7.6,1,.2.3.4.5.5.8.3.4.6.9.9,1.5.2.4.4.8.7,1.3h0Z"/>
      <path class="st3" d="M130,69.4h-.5v.2c-.5.2-1.1.5-1.6.8h-5.2c-6.2-10.6-18.5-21.4-34.8-25.6-8-2-16.3-2.3-24.4-.9l4.6-1.3c20.3-3,37.2,2.3,49.2,12.1,5,4.1,9.3,9,12.6,14.6Z"/>
      <path class="st3" d="M124.9,75c-.3-.7-.4-1-.7-2.2-.5-1.6.2-1.7.9-1.7.4,0,.8,0,1.1,0,.2-.4.5-.7.8-.9h-.1c-2.6,0-2.6,0-2.6,0-.8,0-1.6.3-2.1.9-.9,1.4.2,3.8.3,4,0,0,1.7,4.8,2.2,6.3.3,0,.7-.1,1-.2l-2.5-6.8c-1-2.3.1-3.2.1-3.2-.2.8-.2,1.6.1,2.4.3,1,1.4,4,2.3,6.2.2.5.3.9.5,1.3.3,0,.5-.1.8-.2-.8-2.3-1.8-5-2.1-5.9h0Z"/>
      <path class="st3" d="M131.3,68.3s-.8.2-1.5.4l-2.9,1.4s0,0,0,0c-.3.2-.6.5-.8.9-.1.2-.2.4-.3.6-.2.9-.2,1.9.1,2.8.2.8.4,1.4.7,2.1.2.7.5,1.4.7,1.9.4,1.1.7,1.9.9,2.2,0,.1,0,.2,0,.2,0,0,2.5-.6,3.5-.2,0,0,2.1.7,1.1,2.6,0,0-.2,1-3.3,1.4,0,.2,0,.3.1.5.2.6.7,1.5,1.7,1.5,1.5.1,3.1.1,4.6,0,.6,0,3.1-.3,3.6-2.5.2-.9.1-2.2-.6-3.9l-.3-.7-3.4-7.9c-.1-.5-.3-.9-.5-1.3-.6-1.3-2-2.1-3.4-2h0ZM126.6,71.6l.9-.4c-.5,1.7.3,3.6.3,3.6l2,5.5-1,.2s-1.3-3.5-2.1-6c-.6-1.9,0-2.9,0-2.9h0ZM130.4,85c5.5-.5,3-5.7.1-4.9-1.1-2.7-2-5.4-2-5.4,0,0-1.1-2.9-.3-4l1.2-.6s0,0,0,.2c0,.7.1,1.4.5,2,.7,1.6,3.5,8.2,3.9,9.1,1.8,4.8-2.9,5.6-3.4,3.5ZM134,86s.9-.6,1-1.4c0,0,2.3,0,3.5,0,0,0-.7,1.6-4.5,1.4h0ZM134.6,72.1c.5,1.1,2.7,6.2,3.3,7.8.9,2.2.9,3.2.9,3.2h-3.8c-.1-.6-.3-1.3-.5-1.9l-2.2-5.2h0c0-.1-1.3-3.4-1.3-3.4l-.3-.9c0-.2-.1-.3-.2-.5-.4-2,1.3-2.2,2-1.9,1,.4,1.7,1.5,2.2,2.8Z"/>
    </g>
  </g>
</svg>