<?xml version="1.0" encoding="UTF-8"?>
<svg id="DENVER_BRONCOS" xmlns="http://www.w3.org/2000/svg" version="1.1" viewBox="0 0 200 200">
  <!-- Generator: Adobe Illustrator 29.1.0, SVG Export Plug-In . SVG Version: 2.1.0 Build 142)  -->
  <defs>
    <style>
      .st0 {
        fill: #fb4f14;
      }

      .st1 {
        fill: #fff;
      }

      .st2 {
        fill: #fc4d11;
      }

      .st3 {
        fill: #024;
      }
    </style>
  </defs>
  <rect class="st2" width="200" height="200"/>
  <path class="st3" d="M9.5,75.7s-1,17.7,19.8,29c0,0,8.3,4.4,28,8.1,17.2,3.2,26.5,9.9,30.2,14.1,4.7,5.4,9.3,15.2,11.4,23.7,0,0,0,2.2,1.6,2.1,0,0,1.4,0,1.3-1.9,0,0-.5-13.5,3.4-20,3-5.3,8.3-9.9,17.2-13.2,0,0,5.9,4.5,14.3,4.5s11.5-2.6,11.5-2.6c0,0,10.7,3.7,11.9,9.5,0,0,.1,1.4-.3,2.4l13.4.7,7.3-6.6s-13.6-1-13.9-4.9c0,0-.2-1.8,3.5-1.8,0,0,8.4-.1,16.3,11.6l4.5-11.8s-3.5-1.7-3.4-4.9c0,0,0-1.9,1.4-5.8l-5.6-2.5s-3-2.8-21.2-14.2l2.4-1.5-20.1-8.7s-6.4-10.1-24.4-10.2c0,0-14-23-36.4-23,0,0-8.3-.5-17.7,4.5,0,0-3.8,1.7-7.4,3.8,0,0-7.7,5.3-16.4-6.3,0,0-3.2,13.7,6.4,19.5,0,0-9.2,1.9-12.4-5.9,0,0-3-6-2.1-16.1,0,0-7,6.4-7,18.6,0,0,0,7.8,5.1,13.1,0,0-2.6-.4-6.8,2.2,0,0-7.3,5.2-15.3-5.5Z"/>
  <path class="st0" d="M43.8,55.9s1.3,12.1,11.6,12.1c0,0,4,0,7.7-1.4,3.7-1.4,9.1-4.1,16.3-4.1,0,0,9.4-.9,14.6,9.5,0,0,12-.7,23.2,1.4,0,0-12.8-22.5-35-22.2,0,0-6.5-.3-15.1,4l-3.5,1.6c-2.5,1.2-3.5,1.8-3.5,1.8,0,0-3.6,2.2-7,2,0,0-4.5.4-9.3-4.8ZM31,56.3s-5.9,16.4,7.1,23.7c2.4,1.6,6.3,3,10.7,3.2,0,0,17.8-8.5,37.2-10.7,0,0-2.2-4.8-11-4.8,0,0-5.3-.3-15.1,2.4,0,0-2.6.7-5.7,1.7-4.4,1.1-11.8,2.2-16.5-.8,0,0-6.5-3.2-6.6-14.6ZM14.3,83.9s1.6,8.8,11.7,8.8c0,0,7,.2,17-5.9,0,0-3.4-1.3-5.2-2.5,0,0-3.6-2.8-7.5-1.7,0,0-.7.1-4.2,1.6,0,0-2.5,1.6-6,1.6,0,0-3.6,0-5.7-2Z"/>
  <path class="st1" d="M68.7,112.2s20-21.2,48.9-13.8c0,0,1.4,16.6,19.3,17.6,0,0,6.1.4,11.8-3.7l11.2,4.2-11.8-7.4s-3.8,3.7-10.6,3.7-15.1-6.9-14.4-16.7c0,0-12.4-6.2-26.2-9.4l4.1,6.5s-26.8-1.7-48.9,15.4c0,0-21-4.7-23.5-8.7,0,0,43.2-35.1,98.6-20.9,0,0,.6-.9-1-2.3,0,0-2.1-1.6-5.2-2.5,0,0,13.5-.7,20.6,9.5l15.6,6.5-1.6,1.2s23.8,14.8,25.4,16.9l3.3,1.4s-2.4,6.9,2.5,10.6l-1.8,4.8s-8-8.6-15.9-8.9c0,0-5.9-.1-5.9,4.6,0,0-.7,5,11,6.5l-2.4,2.2-8.9-.6s.2-7.3-15.3-12.9c0,0-12.8,7.6-24.8-1.8,0,0-22,5.3-24,25.6,0,0-2.4-7.7-7.8-14.2,0,0,2.9-10.3,18.6-15.5,0,0-14.1-.7-24,10.5,0,0-6.6-5.3-17-8.3Z"/>
  <path class="st3" d="M140.6,88.2s11,1.6,29.8,17l-17.8-9.7s-1.2.6-1.9,1.2c0,0-4-4.7-10.1-8.5Z"/>
  <path class="st0" d="M149.6,91.4s-.9.8-.5,2.1c0,0,.4,1.2,1.9,1.3,0,0,1.6,0,1.9-1.7l-.8-.4-2,1.5.6-2.2-1-.5Z"/>
  <path class="st3" d="M181.3,110.1s-1.5.6-1.5,1.9c0,0-.4,1.4,2.7,4.5,0,0-4.5-3.3-5.4-5.3,0,0-.8-1.5,1.4-1.5,0,0,1.3,0,2.8.4Z"/>
  <path class="st3" d="M129.9,79.9s2.8,0,3.1-.6c0,0,.7-.7-3.1-2.5,0,0,5.8,1.2,8.4,5.9,0,0-3.8-1.7-8.5-2.7Z"/>
</svg>