<?xml version="1.0" encoding="UTF-8"?>
<svg id="Layer_1" xmlns="http://www.w3.org/2000/svg" version="1.1" viewBox="0 0 1000 1000">
  <!-- Generator: Adobe Illustrator 29.1.0, SVG Export Plug-In . SVG Version: 2.1.0 Build 142)  -->
  <defs>
    <style>
      .st0 {
        fill: #fff;
      }

      .st1 {
        fill: #203731;
        stroke: #ffb612;
        stroke-linejoin: round;
        stroke-width: 31.1px;
      }

      .st2 {
        fill: #1f3631;
      }
    </style>
  </defs>
  <rect class="st2" width="1000" height="1000"/>
  <g>
    <ellipse class="st1" cx="500" cy="500" rx="415.8" ry="271.3"/>
    <path class="st0" d="M683.4,552.7h-251.9v-65.5h435.7c0,3.7,1.1,5.8,1.1,9.5,1.6,146.4-192.7,233.4-361.1,233.4s-381.3-100.3-380.5-229.7c.8-124.7,182.3-229.9,377.6-229.3,157.9,0,293.7,70.6,345.2,157.4h-164.6c-33.7-44.3-98.4-84.3-188.3-84.3-133.4,0-219.9,71.7-219.9,148.5s81.4,147.3,212.5,147.3,156.2-37.7,194.3-87.3Z"/>
  </g>
</svg>