<?xml version="1.0" encoding="UTF-8"?>
<svg id="Layer_1" xmlns="http://www.w3.org/2000/svg" version="1.1" xmlns:cc="http://creativecommons.org/ns#" xmlns:dc="http://purl.org/dc/elements/1.1/" xmlns:rdf="http://www.w3.org/1999/02/22-rdf-syntax-ns#" viewBox="0 0 217.3 200">
  <!-- Generator: Adobe Illustrator 29.1.0, SVG Export Plug-In . SVG Version: 2.1.0 Build 142)  -->
  <defs>
    <style>
      .st0 {
        fill: #fff;
      }

      .st1 {
        fill: #042334;
      }

      .st2 {
        fill: #a71930;
      }

      .st3 {
        fill: #03202f;
      }
    </style>
  </defs>
  <rect class="st1" width="217.3" height="200"/>
  <path class="st0" d="M153.8,42.9c40.5,30.9,9.7,35.5-22,40,0,0-13.4-3.7-36.5-15.2-52.5-26.1-36-38.4,5.3-45.8C34.5-6.8-20.5,43.3,40.2,92l-16.7,11.9c13.7,8.4,42.1,26,37.9,53l-14.1,10.1,43,19.5,33.9-15.4c.2-14.9,26.9-22.7,38.4-53.1,63.2-14.5,47.1-70.1-8.9-75"/>
  <path class="st3" d="M104.9,135.1l-12.2-13.9-14,2.1,6.5-10.7-12.2-13.9,16.2,7.3,6.5-10.7,3.5,15.2,16.2,7.3-14,2.1,3.5,15.2h0ZM124.9,85.8C45.6,55.1,40.3,30,89.8,21.3,27.9,4.5-8.2,49.4,53,92.2l-16.4,11.8c17.5,11.7,36,28.9,29.7,56.1l-8.3,5.9,31.8,14.4c29.6-32.4,45.1-63.9,35.1-94.6"/>
  <path class="st2" d="M165.2,47.8c27.2,21.3,8.3,34.9-24.9,38.6,8.4,35.4-17.4,67.8-44.6,92.9l25-11.3c1.8-14.4,27.2-21.9,39.2-53.8,56.4-12.6,47.2-53.1,5.3-66.4"/>
</svg>