<?xml version="1.0" encoding="UTF-8"?>
<svg id="Layer_1" xmlns="http://www.w3.org/2000/svg" version="1.1" xmlns:cc="http://creativecommons.org/ns#" xmlns:dc="http://purl.org/dc/elements/1.1/" xmlns:rdf="http://www.w3.org/1999/02/22-rdf-syntax-ns#" viewBox="0 0 201 201">
  <!-- Generator: Adobe Illustrator 29.1.0, SVG Export Plug-In . SVG Version: 2.1.0 Build 142)  -->
  <defs>
    <style>
      .st0 {
        fill: #002c5f;
      }

      .st1 {
        fill: #fff;
      }

      .st2 {
        fill: #002f61;
      }
    </style>
  </defs>
  <rect class="st2" width="201" height="201"/>
  <path class="st1" d="M100.5,177.8c-14.9,0-26.3-4.2-31.8-7.1-10.7-5.6-19.5-13.1-27.1-23.4-10.9-14.8-13-26.7-13.9-33.2-.5-3.4-1.1-11.5,0-18.8,1.3-10.5,3.7-15.8,5.4-20.9,1.3-3.6,5.6-12.4,8.2-16.4,2.2-3.2,6.1-9,7.7-11,.4-.6-.1-.3-.4-.3-.6.1-.9.2-1.4.1-.3,0-1-.1-1.4-.2-2.1-.5-5.2-2.8-4.8-6.9,0-.9.9-8.7,1.7-11.2,1-3.4,3-5,6.7-5.3,1.8,0,9.5-.2,13,.4,7,.7,12.1,2.7,15.1,8.9,2.4,5.4,1.6,13.8-1.7,20.3-1.1,2.2-3.4,6.3-5.4,9-1.8,2.7-2.6,4-4.2,7-1.6,3.1-6.9,14.7-8.7,22.3-3.5,14.2-1.5,22.3,5.2,33.4,4.9,7.4,10.7,12.7,15.2,15.1,7.4,4.6,17.4,5.9,22.7,5.9s15.3-1.3,22.7-5.9c4.5-2.4,10.3-7.7,15.2-15.1,6.7-11.1,8.6-19.2,5.2-33.4-1.8-7.6-7.1-19.2-8.7-22.3-1.6-3-2.4-4.3-4.2-7-2-2.7-4.3-6.8-5.4-9-3.3-6.5-4.2-14.9-1.7-20.3,3-6.2,8.1-8.2,15.1-8.9,3.5-.5,11.2-.4,13-.4,3.6.3,5.7,1.9,6.7,5.3.8,2.4,1.7,10.3,1.7,11.2.4,4.1-2.7,6.5-4.8,6.9-.4.1-1.1.2-1.4.2-.5,0-.8,0-1.4-.1-.2,0-.8-.3-.4.3,1.6,2.1,5.6,7.9,7.7,11,2.5,4,6.8,12.8,8.2,16.4,1.7,5.1,4.1,10.4,5.4,20.9,1.1,7.3.5,15.4,0,18.8-.9,6.5-3,18.4-13.9,33.2-7.6,10.3-16.4,17.8-27.1,23.4-5.5,2.9-16.9,7-31.8,7.1"/>
  <path class="st0" d="M100.4,163.2c1,0,1.8-.8,1.8-1.8s-.8-1.8-1.8-1.8-1.8.8-1.8,1.8.8,1.8,1.8,1.8ZM52.8,140.6c1,0,1.8-.8,1.8-1.8s-.8-1.8-1.8-1.8-1.8.8-1.8,1.8.8,1.8,1.8,1.8h0ZM42.2,99.2c1,0,1.8-.8,1.8-1.8s-.8-1.8-1.8-1.8-1.8.8-1.8,1.8.8,1.8,1.8,1.8ZM63.2,50.6c1,0,1.8-.8,1.8-1.8s-.8-1.8-1.8-1.8-1.8.8-1.8,1.8.8,1.8,1.8,1.8ZM150,138.8c0-1-.8-1.8-1.8-1.8s-1.8.8-1.8,1.8.8,1.8,1.8,1.8,1.8-.8,1.8-1.8ZM160.6,97.5c0-1-.8-1.8-1.8-1.8s-1.8.8-1.8,1.8.8,1.8,1.8,1.8,1.8-.8,1.8-1.8ZM139.6,48.9c0-1-.8-1.8-1.8-1.8s-1.8.8-1.8,1.8.8,1.8,1.8,1.8,1.8-.8,1.8-1.8ZM67.2,165.7c-9.7-5.8-18.5-13.1-27-27.1-3.8-6.9-12.6-21.7-8.3-47.3,5-23.5,15.1-35.3,20.9-43.4,2.7-3.9,0-6.2-2.3-5.4-1.8.7-3.1.7-3.1.7-3.3-.4-2.8-2.6-2.2-8.1l.8-4.6c.7-4,2.5-3.9,7.3-3.9,7.6.2,9,.2,13.1,1,5.5,1.2,12.6,6.7,7,21.7-3.5,8.1-7.1,10.8-11.1,19.1-4.3,9.3-14.6,30.1-7.6,47.8,9.6,23.8,28.1,32.4,45.7,32.7,17.6-.2,38-10.6,46.1-32.7,7-17.8-3.3-38.6-7.6-47.8-3.9-8.4-7.6-11.1-11.1-19.1-5.6-15,1.5-20.5,7-21.7,4.1-.8,5.5-.8,13.1-1,4.8,0,6.6-.2,7.3,3.9l.8,4.6c.6,5.5,1.1,7.7-2.2,8.1,0,0-1.3,0-3.1-.7-2.2-.8-5,1.4-2.3,5.4,5.8,8.1,15.9,20,20.9,43.4,4.3,25.7-4.5,40.4-8.3,47.3-8.5,14-17.3,21.3-27,27.1-13.3,9.3-38.2,8.7-33.4,8.4,5,.4-18.3,1-33.2-8.4"/>
</svg>