<?xml version="1.0" encoding="UTF-8"?>
<svg xmlns="http://www.w3.org/2000/svg" version="1.1" xmlns:cc="http://creativecommons.org/ns#" xmlns:dc="http://purl.org/dc/elements/1.1/" xmlns:rdf="http://www.w3.org/1999/02/22-rdf-syntax-ns#" viewBox="0 0 201 201">
  <!-- Generator: Adobe Illustrator 29.1.0, SVG Export Plug-In . SVG Version: 2.1.0 Build 142)  -->
  <defs>
    <style>
      .st0 {
        fill: #026a7b;
      }

      .st1 {
        fill: #fff;
      }

      .st2 {
        fill: #9f792c;
        stroke: #9f792c;
        stroke-miterlimit: 4;
        stroke-width: .3px;
      }

      .st3 {
        fill: #006778;
      }

      .st4 {
        fill: #d7a22a;
      }
    </style>
  </defs>
  <g id="Layer_2">
    <rect class="st0" y="0" width="201" height="201"/>
  </g>
  <g id="Layer_1">
    <g>
      <path d="M185.5,81.7s-3-6.5-11.5-12.1c2.1-2.7,3-6,2-8.6-1-2.7-8.2-7.6-10.9-9-2.7-1.4-6.4-3.4-6.4-3.4,0,0-9.5-5.8-17-9.1-9-3.9-25.3-9.2-43-5.4,0,0-10.6-3.5-29.9,2.5-6.7,1.8-18.1,4.9-24.5,5.9-9.5,1.6-19.1,1.7-26.6,2.5-3.9.4-6.5-.5-7.8,1.8-5.6,9.7,11.1,26.2,17.2,28.8-1.8,10.1.5,22.1,11.1,34,11.5,13,27.5,15.5,36.9,22.4,10.5,7.8,12.7,17.6,21.5,26.7,8.1,8.4,23.9,15.6,38,8.7,15.3-7.5,18.1-20,18.7-22.3.2-1.2-.5-2.4-2.1-3.2-.3-.1-.8-.4-1.5-.7.6-2.4,2.2-9.8.6-16.2,0,0-4.3,6.3-7.6,9.9-.9-.9-5.1-5.1-4.4-10.2,1.9-.8,4.2-1.8,5.9-3.1,1-.7,1.9-1.5,2.6-2.2,8.6-2.5,10.6-6,10.6-6,.3.9,1.4,2,1.4,2,1.3-.7,3-2,3-2,.2,1,.1,2.9.1,2.9.6-.2,1.3-.3,1.3-.3-.6,3.2-4.4,8.6-4.4,8.6,13.1-3.8,18.6-13.4,18.6-13.4h0c.5-.2.8-.3.8-.3,0,0,8.8-2.5,12.8-11.1,4-8.6-3.3-17-5.5-18.1h0Z"/>
      <path class="st2" d="M86.8,52.7c.8.3,1.5,1.1,1.9,1.8-1.2,0-2.4-.2-3.5-.2.5.2.9.4,1,.4,0,0-1-.1-1.6-.2,0,0,.3.2.5.4,0,0,0,.4,0,.6,0,.2-.2.6,0,.9.1.4.5,1.2.6,1.5,0,0-1.1,0-1.8-.1,0,0,1.8.9,2.4,1.2,0,0-.4,0-.6,0,0,0-.6.4-.8.6-.1.2,0,1.3-.6,1.8-.6.5-1.4.4-1.7.7-.3.3.1.7.1.7,0,0-1.3-.3-1.7-.3,0,0,.6.6,1,.9,0,0-.5-.1-1.1,0-.5,0-2.2.2-3.1-.5-.9-.7-.4-1.3-.2-1.5s.3-.5-.3-1.2c-.6-.7-.5-.7-.4-1,0,0,2.1,0,2.8.2,0,0-2-1.1-2.8-1.3,0,0,0-.3.5-.6.4-.3,1-.6,1.2-1.4,0,0,1.5.3,2.3.4-.9-.4-1.3-.9-2.9-1.3,0,0,1.1,0,1.5,0,0,0,.7-.1,1.1-.4.1-.1.3-.3.5-.4-2.9,0-5.8.3-8.7,1-4.6,1.1-9.2,2.2-13.7,3.3,0,0,0,0-.1,0,.8-.5,1.4-1.2,2.1-1.8-1.4.3-2.7.6-4.1.9-2.2.4-4.6.7-6.9.6-3.8-.2-7.6-1.1-11.3-1.9l-1-.2c0,0,1.3.8,1.8,1.1,1.8,1.1,3.7,2.1,5.7,2.8.6.2,1.2.4,1.8.6.7.2,1.4.4,2,.5.6.1,1.3.3,1.9.4,1.1.2,2.3.2,3.4.2,1.2,0,2.3-.2,3.4-.4,1.3-.2,2.6-.5,3.9-.9.2,0,.4-.1.6-.2,1.8-.5,3.5-1.3,5.1-2.2.4-.2.9-.4,1.3-.7,0,0,0,0,0,0,0,0,0,0,0,0,0,0-3.1,2.6-4.6,3.5-.3.2-.7.4-1,.6-.5.3-1.1.6-1.7.9-.5.2-1,.5-1.4.7-.3.1-.5.2-.8.3,0,0,0,0,0,0-.1,0-.3.1-.4.2-.9.5-1.8,1.1-2.7,1.5,0,0,0,0,0,0-.3.1-.6.3-.9.4,0,0,0,0,0,0,0,0,0,0,0,0-.8.4-1.7.7-2.6,1-.7.2-1.4.5-2.1.7-5,1.5-8,1.4-8,1.4.3.2.8.3,1.2.4,1.5.3,5.1.7,5.2.7,0,0,0,0,0,0,0,0-.1.1-.3.3-2.2,2.1-5.1,3.3-8,4.1-1.6.4-3.2.7-4.8.9-.2,0-.5,0-.7,0-.1,0-.2,0-.2.1-.8,2.5-.8,5.2-.7,7.7,0,1.4.2,2.8.5,4.1,0,0,0,0,0,0,.2-.2.4-.4.6-.6,0,0,.7-.6,2-.8,0,0,0,0,0,0,0,0,0,0,0,0-.3-.2-.7-.4-1.1-.4-.1,0-.2,0-.3,0,0,0,.1,0,.2,0,.8-.2,1.8-.3,2.5-.1,0,0,0,0,0,0,.5.1.9.4,1.1.8,0,0,0,0,0,.1,0,0,0,.1,0,.2,0,0,0,0,0,0,0,0,0,.1,0,.2,0,0,0,.1,0,.2,0,0,0,0,0,0,0,0,0,.1,0,.2,0,.2,0,.4-.1.6-.3.7-.9,2-.9,2.5s-1.2,1-1.5,1.3c0,0,0,0,0,0,0,0,0,0,0,0,0,0,0,0,0,0,.3,0,.7,0,1-.1.2,0,.4,0,.5,0h0s.8,1.5,1.4,2c.6.5,1.2,1.5,1.4,2.3,0,0,0,0,0,0,0,0,.2,0,.3,0,0,0,0,0,0,0,0,0,0,0,.1,0,.1,0,.2,0,.2-.1.1,0,.2,0,.3-.1,0,0,.2-.1.3-.2,0,0,0,0,0,0,0,0-1.2,1.7-2.5,2.5,0,0,1.2.2,1.7,0,0,0,0,0,0,0,0,0,0,2-1.9,4.2-.1.2,1.5,2.1,2.5,3.2,0,0,0,0,.1.1,0,0,0,0,0,.1,0,0,.2.2.2.2,0,0,.1.1.1.2,0,0,.6-.5.9-.8.5-.4,1-.7,1.5-1.1.5-.3,1.6-.9,1.6-.9,0,0,0,0,0,0,0-.5.2-.8.4-1,.2-.2.5-.3.7-.4,0,0,.2-.1.3-.2,0,0,0,0,.1-.1,0,0,0,0,0,0,0,0,0,0,0-.1,0,0,0,0,0-.1,0-.1.1-.3.2-.5,0-.3.3-.6.3-.6,0,0,0,0,0,0-.4-.1-.7-.2-1.1-.4-.6-.2-1.2-.3-1.7-.5-.4,0-.8-.2-1.2-.3,3.1-2,6.4-3.5,9.9-4.7,1.2-.4,3.6-1.1,3.6-1.1-.3-.3-.7-.7-.9-1-.4-.9.3-2.2.6-2.6.3-.5-.2-.8-.2-.8.5-.4.9-1,.9-1,0,0,0,0,0,0-1.1.2-2.1.3-2.1.3h0c-.6-.5-.9-1.5-.7-2.1.1-.5.4-1.4.4-1.4h0c-.2,0-.4,0-.6,0-.4,0-.7-.1-.7-.2h0c2.3-.3,3.5-1.2,3.5-1.2,0,0,0,0,0,0-.6.1-1.7.2-1.7.2h0c0,0,0-.7.5-1,.2-.1.5-.1,1,0,.2,0,.5,0,.8.2.1,0,.3,0,.4,0,.5.1.9.3,1.2.4,0,0,0,0,0,0,.9.3,1.4,1.5,1.4,1.5.2.8.6,1.4,1.1,1.8,0,0,0,0,0,0,.2.2.4.4.7.5,0,0,.2.1.3.2,0,0,.2,0,.3.1.3.1.6.2.9.3.2,0,.4,0,.6.1,0,0,.2,0,.3,0,.2,0,.3,0,.4.2.4.2.7.7.9,1.1,1.6-.2,3.3-.3,4.9-.4-.2-.2-.4-.5-.7-.7-1.6-1.5-3.9-2.5-6-3.1,4.1-.5,8.2-.7,12.3-.8,2.4,0,4.7-.1,7-.2-.5-.4-1.2-.7-1.8-.9,1.4-.2,2.8,0,4.2,0-1.2-.6-2.5-.9-3.8-1.3-.9-.3-1.8-.5-2.7-.7,0,0,0,0,.1,0,0,0,0,0,0,0,.6,0,1.2.1,1.8.2.1,0,.2,0,.3,0,3.5.4,7,.8,10.5,1.3,4.4.6,8.8,1.4,13.2,2.2,4,.8,7.9,1.8,11.9,2.8,1.7.4,3.3.9,5,1.3-2.7-.8-5.6-1.6-8.8-2.3-2.1-2-4.2-3.9-6.4-5.8-5.1-1.3-10.7-2.7-16.8-3.8-3.8-.7-7.4-1.3-10.7-1.8,3.4.3,7,.7,10.9,1.3,5.1.7,9.9,1.6,14.2,2.5-2.4-1.7-4.9-3.1-7.4-4.7-.9-.5-1.7-1.1-2.5-1.8-.4-.4-.8-.8-.8-1.3,0-.1,0-.2,0-.3,0,0,0,0,0,0,0,0,0-.1,0-.2,0,0,0,0,0,0,0,0,0,0,0,0,0,0,0-.1,0-.2,0,0,0,0,0,0,.2-.5.6-1,1-1.3,0,0,.1,0,.2-.2,0,0,0,0,.1-.1,0,0,.1,0,.2-.1,0,0,.1-.1.2-.1,0,0,0,0,0,0,0,0,0,0,0,0,0,0,0,0,0,0h0s0,0,0,0v-.3c3.5-6.1,12-7.6,12-7.6-.9-1.2-1.9-1.9-1.9-1.9,1.1-.4,2.6-.2,3.1,0,0,0,0,0,0,0-.2-.7,0-1.2,0-1.3,0,0,1.2,0,1.6.2-.1,0-.7-.3-1.1-.6-1.4-.3-2.9-.7-4.3-.9-5.8-1.1-11.8-1.6-17.7-1.8-1.1,0-2.1,0-3.2,0h0ZM123.4,59.1c-.2.2-.6.4-.9.8h0c0,1,.7,3,2.1,4.2,1.9,1.5,5.3,3.1,5.3,3.1-.2-.6,0-1.4,0-1.4.5.8,1.6,2.1,3.3,3.1.1,0,.2.1.3.2.5.2,1.2.5,1.9.8.5.2,1.1.4,1.5.5,1.8.4,3.8.7,5.6.2,1.1-.3,2.3-.8,3.2-1.6h0s0,0,0,0c-1.9.7-3.9.9-5.9.3-.3-.1-.7-.2-1-.4-.1,0-.2-.1-.4-.2-2-1-3.7-2.4-5.5-3.7-3-2.3-6.1-4.3-9.6-5.7h0ZM147.1,61.3c6,6.2,1.8,11.5,1.8,11.5,0,0-7.6-1.6-13.3-1.2-2.7.2-6,1.4-8.6,2.7,0,0,0,0,0,0h0c.6,0,1.1,0,1.6.2.3,0,.6.1.9.2.8.3,1.5.6,2.1,1,.2.1.4.3.5.4,0,0,.2.1.2.2,1.3,1.3,1.6,2.8,1.6,2.8,0,0,0,0,0,0,0,0,.1,0,.2-.1.5-.4,1-.7,1.6-.9.5-.2.9-.4,1.4-.6,1.6-.7,3.4-1.3,5.1-1.7,2.1-1,8.1-1.6,9.2-1.5,1.2.1,2.8.3,2.8-.4s-.7-3.1-2.6-6.9c-1.2-2.5-3.3-4.6-4.5-5.7h0ZM133.9,79.1c3.8-.1,6.5,3.8,7.2,4.7h.1c2.2,0,4.4,0,6.5,0,.2,0,2.4.1,2.5.1.6,0,1.3,0,1.9.1,1.4.1,2.7.3,4.1.5.3,0,.7,0,1,.1,0,0-1.2-1.1-1.7-1.9-.6-.9-.5-1.8-.5-1.8h0c1.4,0,2.2-.7,2.4-1.6.2-1-.9-1.8-.9-1.8h0c.4.3.6.7.4,1.1-.9,1.9-5.7-.6-10.9-1.1-5.2-.5-12.1,1.5-12.1,1.5h0ZM171.8,61.6c-.3.6-1.7,2.1-7.4,1.2,0,0,0,0,.1,0,1,.5,2.1,1.2,3.2,1.8,1.4.9,2.7,1.7,3.6,2.6,0,0,1.9-2.3.8-5.1,0-.2-.1-.3-.2-.5,0,0,0,0,0,0h0Z"/>
      <path class="st1" d="M38,46.9c-.9,0-1.8.1-2.8.2-5.1.3-10.1.2-15.2.5-.8,0-1.5,0-2.3,0h0c.4,0,.8.2,1.2.3.6.1,1.1.3,1.7.5,1.9.6,3.7,1.2,5.5,1.9.9.3,1.8.7,2.7,1.1.9.4,1.9.8,2.8,1.3.2-.4,1.4-.4,1.4-.4v-.3c-.1,0,.2.2.6.2,0,0,0,0,0,0,.1,0,.2,0,.3-.1.1,0,.2-.2.5-.3.4-.1,1,0,1,0,.2-.3.9-.6.9-.6-.1-.1-.3-.3-.3-.3.3,0,.9,0,1.2.1.2,0,.3,0,.4,0,0,0,0,0,0,0,0,0,.1-.2,0-.3-.1-.1-.4-.2-.6-.3-.2-.1-.3-.3-.3-.3,0,0,0,0,0,0-.2,0-.8-.2-.8-.2,0,0,.5,0,.6-.1,0,0,.2,0,.3-.1h0c0,0,0,0,0,0,0,0,0,0,0,0,0,0,0,0,0,0,0,0,.4-.4.7-.5.3,0,2.8-1.2,2.8-1.2,0,0-.7,0-1.3,0-.6,0-1.2-.2-1.2-.2-.3,0,0-.4,0-.6h0ZM14.4,51.3c-.8,0-1.6,0-2.4,0,0,0,2.2.5,3.7,2.6-.5,2,2.1,6.4,6,9.8.7.6,1.4,1.2,2.2,1.9-.7,0-2.9,0-2.9,0,2.1,1.3,7.5,3.1,7.5,3.1-1.2.4-3.3.7-3.3.7.1.2,4.1,2.2,11.5,2.5,4,.2,8.1-.5,11.8-2.1,0,0,0,0,0,0,0,0,0,0,.1,0-.2,0-3.8-.4-5.2-.7-.4,0-.9-.2-1.2-.4,0,0,3,0,8-1.4.7-.2,1.4-.4,2.1-.7.9-.3,1.7-.6,2.6-1,0,0,0,0,0,0,0,0,0,0,0,0,.3-.1.6-.3.9-.4,0,0,0,0,0,0,.9-.4,1.8-.9,2.7-1.5.1,0,.3-.1.4-.2-3.2,1.3-6.4,1.7-9.8,1.9-2.9.2-7.2.3-11.6-.2-7.2-.9-11-3.3-11-3.3,6.6,1.2,10.1,1,11.6.7-2.4-1.5-4.5-3.5-7.2-5.1-5.6-3.5-11-5.9-16.6-6h0ZM121.5,54.8c-1.1,0-3.4,0-5.2,1.4h.2c0,.1,0,.1,0,.2,0,0,0,0,.1,0,0,0,0,0,0,0,0,0,0,0,.1,0,0,0,0,0,0,0,0,0,.1,0,.2.1,0,0,0,0,0,0,0,0,0,0,.1,0,0,0,0,0,0,0,0,0,0,0,0,0,0,0,0,0,0,0,0,0,0,0,0,0,0,0,0,0,0,0,0,0,0,0,0,0,0,0,0,0,0,0-.5-.1-1.4-.2-1.9-.3-.1.1-.4.4-.5.6,0,0-.3.4-.4,1.3,0,.3.1,1,.4,1.2.3.3,1.2,1.1,1.4,1.5.1.4-.1,1,0,1.3,0,0-.7-.5-1.1-.6,0,0,.9.9.4,1,0,0-.4-.5-1.1-.8-.7-.3-2.1-1-2.5-1.4-.4-.3-.6-1.1-.7-1.2,0,0,.3.4.5.4.2,0,.8.4.9.5,0,0-.2-.6-.5-.8-.3-.2-.9-.5-1.2-.9h.4c0-.1.1-.8,0-1.5-.6-.1-2-.4-3.1,0,0,0,1,.7,1.9,1.9,0,0-8.5,1.6-11.9,7.6v.3c-.1,0-.2,0-.2,0,0,0,0,0,0,0,0,0,0,0,0,0h0s0,0,0,0c.1-.1,1.5-1.3,2.3-1.7,1.2-.7,2.5-1.1,3.8-1.5,1.3-.4,2.9-.7,4.3-.8,4.7-.4,9.4.3,13.8,1.8,4.3,1.4,8.2,3.7,12.6,4.8.6.1,1.1.3,1.7.4.1,0,.2,0,.3,0-.4-.1-1-.3-1.5-.5-.7-.3-1.4-.6-1.9-.8-.1,0-.2-.1-.3-.2-1.7-.9-2.8-2.2-3.3-3.1,0,0,0,.8,0,1.4,0,0-3.5-1.5-5.3-3.1-1.4-1.2-2.1-3.1-2.1-4.1h0c-.3.2-.5.4-.6.7-.5.9-.5,1.7-.5,1.7,0,0-.4-.2-.8-.5,0,0,.2.9.9,1.2,0,0,.4.5.2,1,0,0-1.3-.1-1.6-.3-.3-.2-1.2-.6-1.2-.6,0,0,.3,0,.7,0,0,0-.3-.8-.7-1.1-.3-.3-1-.8-.8-1.4,0,0,.8,0,1.1.2,0,0-1.2-1.1-2-1.2h1c0,0-.1-.8,1.2-1.4,1.3-.6,1.7-1,2-1.4.3-.4.4-.8.7-1.1,0,0,.6.4,1.1.7,0,0-.3-.9-1.2-1.5,0,0-.2,0-.6,0h0ZM104.8,66.1c-.5,0-.9,0-1.4,0,0,0-.6,0-.6,0,.4,1.3,2.2,3.2,2.2,3.2-.8,0-1.9-.2-1.9-.2,1.6,2.1,5.9,4.8,9.3,5.4,3.4.7,6.4.5,6.4.5-.5.2-1.3.5-1.3.5,0,0,1.3,0,3.1.3.2,0,.5.1.8.2,1.2.3,2.7.8,3.5,1.1.1,0,.2,0,.3,0-.4-.3-.8-.6-1.3-.8-.9-.6-2.1-1.3-3.2-1.9-1.7-.9-3.5-1.7-5.3-2.5-1.1-.6-2.2-1.2-3.3-1.8-1.5-.9-2.9-1.7-4.3-2.7-.7-.5-1.4-.9-2-1.4,0,0,0,0-.1,0-.4,0-.7,0-1,0h0ZM117.8,67c.7.2,1.5.8,2.1,1.2.4.3.7.6,1,.8,0,0,1,.6,1,.6.1,0,.3,0,.4,0,.4,0,.8-.3.8-.8h0c0-.5-.6-.8-.6-.8-.5-.1-1-.3-1.5-.4-1.1-.3-2.8-.6-3.3-.7h0ZM81.8,79.9c.9.2,1.8.5,2.7.7,1.3.4,2.6.7,3.8,1.3-1.4-.1-2.8-.2-4.2,0,.6.2,1.3.5,1.8.9-2.3,0-4.7,0-7,.2-4.1.1-8.2.3-12.3.8,2.1.7,4.3,1.6,6,3.1.2.2.5.4.7.7-1.6,0-3.3.2-4.9.4h0c.3.7.4,1.3.4,1.3-.4.7-1.6,1.4-1.6,1.4.6.1,1.3,0,1.3,0-.3,1,0,1.5,0,2.6s-1.3,1.5-3.3,1.8c-2,.3-2.9-.4-2.9-.4l.3-.7c-.7.1-2.6.2-2.6.2,1.3-.6,3-1.7,3-1.7-.8.3-2.4.7-2.4.7,0,0-.5-.4-1-.8,0,0-2.5.7-3.6,1.1-3.5,1.2-6.9,2.7-9.9,4.7.4,0,.8.2,1.2.3.6.1,1.2.3,1.7.5.4.1.7.2,1.1.4,0,0,0,0,0,0,.5-.6,1.5-1,1.5-1-.5.6-.6,1.3-.6,1.4,0,0,0,0,0,0,1.1-1.7,2.9-1.6,2.9-1.6-.4,0-.8.4-.8.4,0,0,.8.3,1.6.5.8.2,2.6.4,3.6.4s3,.4,3,.4c.8-.3,3.4-.9,3.4-.9-.9.6-2.5,1.4-2.5,1.4,3.2,1.8.5,5.5.5,5.5,0,0-.6.1-1.7,1-1.2.9-1.5,2.1-1.5,2.1.6-.6,1.5-1.1,1.5-1.1-.2.4-.1.6-.7,1.7-.5,1.2-1.8,1.1-2.7,1.2-.9,0-2.3-1-2.3-1-.5.2-1.5,1.1-1.5,1.1.4-1.4,2-2.9,2-2.9-.7.3-1.8,1.1-1.8,1.1-.7-.5-3-1.2-4.5-2-1.6-.8-1.4-2.5-1.4-2.5,0-1,.9-2.3.9-2.3-.5.3-1.1.9-1.1.9,0-.2,0-.4,0-.5h0s0,0,0,0c0,0-1.1.6-1.6.9-.5.3-1,.7-1.5,1.1-.3.2-.8.7-.9.8,0,0,.1.2.2.2,2.6,2.8,5.6,5.2,8.7,7.3,1.5,1,3,2,4.5,2.9,5.4,3.2,11.1,5.9,16.9,8.5,3.6,1.6,7,3.6,9.9,6.1,1.9,1.6,3.6,3.4,5.1,5.5,1.7,2.3,3,5,4.6,7.4,2.6,4.1,5.7,7.9,9.3,11,2.1,1.8,4.4,3.4,6.8,4.6.7.3,1.4.6,2.1.9.3,0,.6.2.9.3,0,.7-.8,1.2-1.3,1.6,4.1.8,8.4.7,12.5,0-.7.8-1.5,1.6-2.2,2.4,4.2-.2,8.5-1.5,12.3-3.2,3.6-1.7,6.9-4.1,9.6-7.1,1.6-1.8,2.9-3.7,4-5.8.1-.3.2-.3,0-.4-1.6-.8-3.4-1.2-5.1-1.4-5.2-.6-10.4,1.2-15.2,2.9-2.1.7-4.2,1.6-6.4,1.9-3.1.5-6.3.5-9.1-1-2.7-1.4-4.9-3.6-6.9-5.9-1.8-2.2-3.5-4.5-5-6.9-3-4.9-5.4-10.1-7.3-15.5-1.6-4.5-2.8-9.4-2.6-14.2.1-3.9,1.1-8,3.2-11.4,1-1.7,2.4-3.1,4.1-4.1.9-.5,1.9-1,2.9-1.2.5-.1,1.1-.2,1.6-.3-4.9-1.1-10.3-2.2-16.2-3.1-3.9-.6-7.4-1.1-10.8-1.4,3.4.2,7,.5,11,.9,33.6,3.7,51.9,12.6,51.9,12.6,0,0,1.5,1,.7,2.2-.4.6-1.2.5-1.8.4-.6-.3-1.9-.9-3.8-1.7-2.1-.9-5-2.1-8.7-3.5.7,1.4,1.6,2.7,2.5,4,1.4,1.7,3,3.3,4.8,4.5,2.5,1.6,5.3,2.4,8.2,2.6,2.8.2,5.6-.2,8.3-1.1,1.9-.6,3.6-1.5,5.5-2.2,2.6-1,5.1-2,7.8-2.5,1.5-.3,3-.5,4.6-.4.2,0,.4,0,.6,0,.1,0,0-2.1,0-2.3,0-.6-.2-1.3-.5-1.9-.5-1.2-1.2-2.4-2.3-3.2,0,0,0,0,0,0-.5-.5-1.1-.9-1.7-1.3-2.7-1.8-5.7-3.2-8.7-4.5-.3-.1-.5-.2-.8-.4-3.6-1.5-7.2-3-10.9-4.2.6.3,1.2.7,1.8,1,.1,0,.2.1.3.2.1,0,.3.2.4.3.5.3,1,.6,1.5.9,1.4.9,2.8,1.8,4,2.9-.2,0-.4,0-.6,0-.2,0-.4.1-.6.2,1.4,1,2.8,2.2,3.9,3.5.2.2,1.5,1.9,1.5,1.9-.8.4-1.6.7-2.4,1-.4.1-.8.3-1.2.4-1.5.4-2.9.6-4.5.6,0,0,0,0-.2,0h0c0,.1,0,.2-.2.3-.4.6-1.2.5-1.8.3-.6-.3-1.9-1-3.7-1.8-6.9-3.3-22.8-9.8-46.9-14.1-3.8-.7-7.2-1.2-10.4-1.6,0,0,0,0,0,0,0,0,0,0-.1,0,0,0,0,0-.1,0h0ZM185.9,85.7s-2.1,5.3-7.7,8.1c-4,2-7.7,4.2-10.1,6.9-.3.4-.6.8-.9,1.2h0c5.7.6,8.5,3,9.4,4.2,0,0,.1.2.2.2,0,0,0,0,0,0,.4,0,6.1-1.1,9.6-5-.1,0-.3,0-.4,0-.9,0-4.2,0-3.4-1.6.3-.6,1.3-.4,1.8-.4.9,0,1.7.1,2.6,0,1.2,0,1.4-1.1,1.7-2.1.3-.9.4-1.8.5-2.7-1.3,1.7-3.6,2.2-4.4,2.4,0,0,0,0-.1,0-.5,0-1.5,0-1.4-.8,0-.5.7-.8,1.1-1,1.1-.5,2.2-.9,3.2-1.6.4-.2.7-.5,1-.8,0,0,.6-.5.5-.6-.1-1.1-.4-2.1-.8-3-.1.3-.3.7-.6,1.1-.6,1.1-1.4,1.5-1.7,1.7-.4.2-1.2.5-1.6-.2-.4-.7.6-1.3.6-1.3,1.5-1.1,2.1-2.2,2.3-2.9-.8-1.2-1.6-1.9-1.6-1.9h0ZM171.7,106.1c-1.2,0-2.4.7-3.2,1.1-.2-.3-.5-.6-1.1-.8-1.8-.6-3.9,1.1-3.9,1.1.2-1.3-1.6-.9-1.6-.9-.5,0-2.7.7-4,1.5-1.9.7-4.4,1.5-7.2,2.1.5,3,.4,5.1.4,5.1,3-1.5,5.4-4.7,6.9-7,.3,1.5,1.6,3.6,1.6,3.6,2.1-1.3,3.9-3.1,3.9-3.1.6,1.2.5,3.6.5,3.6,1.5-.5,2.8-1.4,3.6-2.1-.9,4.9-3.9,9.7-3.9,9.7,3.5-1.3,10.2-8.4,10.6-10.3.4-1.9-.2-3-2.1-3.4-.2,0-.3,0-.5,0h0ZM150.5,110.3c-3.2.8-6.8,1.4-10.2,1.3.6,6-4.8,11.5-4.8,11.5,8.7-2.4,13.3-9.4,14.7-11.9.1-.4.3-.7.3-.9h0ZM131.8,130.3s-2.8,6.8-6,10.1c-3.2,3.3-5,4.2-5.2,4.7-.2.5-.2,2.2,3.5,1.7,3.8-.5,6.4-3.3,6.4-3.3,0,0,5.1-1,9.7-.3,0,0,1.3,1.4,3,1.2,1.8-.1,5.5-7.1,5.2-13.7,0,0-5.4,8.6-7.8,10.3,0,0-.6-1.4-1.3-2.1,0,0-2.9,2-3.5,3.1,0-.1-.5-.9-.6-1-.3-.5-.7-1.1-1.1-1.6-1.2.7-2.5,1.7-3.1,2.9.5-1,.9-2,1.1-3.1.2-.7.3-1.3.3-2,.2-2.3,0-4.7-.8-6.9h0Z"/>
      <path class="st4" d="M115.1,35.9c-4.3,0-6.9.6-6.9.6,0,0,1.9.1,6,1.5.3,0,.6-.2.9-.4.6-.4,1-.5,1.2-.5s1.3,1.3,1.3,1.3c0,0-.1-1-.3-1.8,0,0,1.1,0,1.5,0,.6.1,1.1.3,1.3.3s.3-.3.3-.3c0,0,.4.2.4.5,0,0,.8.6.8,1.1s-.1,1.2,0,1.6c0,0-.2.1-.5-.4,0,0-.5.5-1.1.5s-.5,0-.7.1c1.9.8,4,1.9,6.3,3.1,0,0,.3.2.5.3,0,0,.2-.8.3-.9,0,0,.2.2.3.3,0,0,0-.3,0-.7,0,0,.7-.5,1.2-.6.5,0,.7,0,.9-.1,0,0,.1-.4,0-.8,0,0,.9.5,1,1.1,0,0,0-.4,0-.8,0,0,.9-.1,1.6,0,.7.2,1.1.4,1.3.6.1.2.6,1.1.3,1.2-.2.2-.7.2-.8.4-.1.2-.2.4-.3.5-.2.1-.4.2-.4.2,0,0,0,.7.1,1,0,0-.4,0-.5-.5,0,0,0,.4-.2.7-.2.3-.4.4-.7.5,0,0-.6-.6-.7-.8,0,0,0,1.4-.2,1.1,0,0-1.3-1.1-1.5-1.3,0,0-.5,0-.8,0-.2,0-1-.3-1.1-.6,0,0,0,.3.4.6,0,0-.4,0-.5-.1,0,0-.2.2-.6.4,0,0,.4.4.6.6,0,0-.8-.1-1.1-.5,0,0-.4,0-.9-.1-.5-.1-.8,0-1.2,0-.4,0-.5,0-.8,0-.3,0-1.2-.6-1.2-.6,0,0,.1.4.3.5,0,0,0,.3-.8.1-.7-.2-.7-.4-1.1-.6-.4-.2-.6-.5-.5-.8,0-.3.3-.5.3-.5,0,0,.2.2.6.4,0,0-.7-.8-.7-1.1,0,0,.3,0,.5,0,0,0,.1-.5,1.2-.7.3,0,.6-.1.9-.2-2.8-.9-6.8-2-11.4-2.9,0,0-.1.2-.2.3,0,.1-.1.2-.2.3-.2.3-.3.7-.6.9,0,0-2.1-.7-2.8-1,0,0,1.1.9,1.8,1.3,0,0-.6,1.1-2.9.8,0,0-1,.5-1.9.4-.8,0-2.1-.6-2.3-1-.3-.4-.2-1.3.7-1.8,0,0,1.2.7,1.8,1.1,0,0-1.1-1.3-1-1.7,0,0,.4-.3.8-.6-.5,0-1.1-.1-1.6-.2-4.8-.5-9.1-.6-13-.4.3.4.2.9.5,1.3.3.5-.1.8-.1.8-.3-.3-1.7-.8-1.7-.8.5.5.9,1.2.9,1.2-.3.2-1.2.4-2.1.4-.9,0-2.2.8-2.2.8-.6-.2-1-.7-1.5-1.2,0,0-.2-.1-.2-.2,0,0,0,0,0,0,0,0,0,0,0,0,0,0,0,0,0,0,0,0,0,0,0,.1,0,0,0,0,0,0,0,0,0,0,0,0,0,0,0,.2,0,.2,0,.2.1.3.2.5.2.4.5.9.8,1.3,0,0,0,0,0,0,.1.2.2.4.3.5,0,0,0,.1.1.2,0,0,0,0,0,0,0,0,0,0,0,0,0,0,0,0,0,0,0,0,0,0,0,0,0,0,0,0,0,0-.1-.1-.5-.2-.7-.3,0,0,0,0,0,0-.3-.1-.6-.3-.9-.5,0,0,0,0,0,0-.1,0-.5-.4-.7-.4,0,0,0,0,0,0,0,0,0,0,0,0,0,0,0,0-.1,0,0,0,0,0-.1,0,0,0,0,0-.2,0,0,0-.1,0-.2,0-.1,0-.3,0-.4,0h0c-.2,0-.3,0-.5,0-.9,0-2.1-.9-2.9-1.7-.3-.3-.4-.6-.4-.9-.8.2-1.7.4-2.5.6-1.2.3-7.7,1.7-14.4,3.2,0,.5-.2,1-.2,1.2,0,.5.4.8.4.8-.8,0-2.1-.4-2.1-.4.4.5,1.5,1.2,1.5,1.2,0,0-.2.6-.7.8-.5.2-.9.1-1.5,0-.6,0-1.2.3-2,.3-.8,0-1.8-.5-1.8-.5.9,0,1.5-.5,1.5-.5-1.1-.1-1.5-.5-1.6-.8,0-.2-.4-.4-.6-.6-4.9,1.1-8.7,1.9-8.7,1.9-3.1.4-5.6.7-5.6.7-.2.2-.4.5,0,.6,0,0,.5.2,1.2.2.6,0,1.3,0,1.3,0,0,0-2.5,1.2-2.8,1.2-.3,0-.7.5-.7.5,0,0,0,0,0,0,0,0,0,0,0,0,0,0,0,0,0,0h0c.2,0,.4-.1.6-.1.4,0,.8.3.8.3,0,0,.4,0,.8,0,.4-.1,1.2-.1,1.2-.1-.3,0-.5.2-.8.2.2,0,.5.1.6.2.7.5-.2,1.1-.7,1.4-.7,0-1.2.2-1.2.2,0,0,.9,0,.9.3,0,.3-.5.4-.9.5-.4,0-.8.5-.8.5.2,0,.4.2.4.2,0,0-.5,0-.5.1,0,0-.3.6-.5.8-.2.2-.9.4-.9.4.3.2,1.3.3,1.3.3-.6.2-1.2.2-1.4.2.2,0,1.7,1.1,1.8,1.1,0,0,0,0,0,0,.3,0,.7.2,1,.2,3.7.9,7.5,1.7,11.3,1.9,2.3.1,4.6-.2,6.9-.6,1.4-.2,2.8-.5,4.1-.9-.6.7-1.3,1.4-2.1,1.8,0,0,0,0,.1,0,4.6-1.1,9.1-2.3,13.7-3.3,2.9-.7,5.8-1,8.7-1,.3-.2.7-.4,1.3-.4,1.1,0,2.1.2,2.8.5,1.2,0,2.4.1,3.5.2-.4-.7-1.1-1.5-1.9-1.8,1.1,0,2.1,0,3.2,0,5.9.2,11.9.7,17.7,1.8,1.4.3,2.9.6,4.3.9,0,0,.1,0,.2-.2,0-.2,0-.5.4-.6.3,0,.9.2,1.1.3.1,0,1,.6,1.2.7.2,0,.2.3.2.5.8.2,1.6.4,2.3.7,0,0,0,0,0,0,0,0,0,0,0,0,0,0,0,0,0,0,0,0,0,0,0,0,0,0,0,0-.1,0,0,0,0,0,0,0,0,0-.1,0-.2-.1,0,0,0,0,0,0,0,0,0,0-.1,0,0,0,0,0,0,0,0,0,0,0-.1,0,0,0,0,0,0,0h-.2c2.4-1.9,5.8-1.5,5.8-1.5,0,0,.8.1,1.3.3,0,0,.8-.4,1.4-.3.6,0,1.6.6,1.7.9,0,.3-.2,1.4-.4,1.8-.2.4-1.2,1-1.8,1.2,0,0,0,0,0-.1,0,0,0,0,0,0-.1-.2-.3-.4-.6-.6,0,0,0,0,0,0,0,0,0,0,0,0,0,0,0,0,0,0,0,0,0,0,0,0,0,.1,0,.2,0,.4,0,.1,0,.2,0,.3,0,0-.1,0-.3.2,3.5,1.5,6.6,3.5,9.6,5.7,1.7,1.3,3.5,2.8,5.5,3.7.1,0,.2.1.4.2.3.1.7.3,1,.4,2,.7,4,.4,5.9-.3h0c0,0,.1,0,.1,0,.1-.1.2-.2.3-.4.1-.1.2-.3.3-.4h0c0,0,.1-.2.1-.3.6-1.2.7-2.5.5-3.8,0,0,0-.1,0-.2,0-.2,0-.3,0-.5-.1-.5-.2-.9-.4-1.3-.1-.4-.3-.8-.4-1,0,0,0-.2-.1-.3,0,0,0,0,0-.1,0,0,0-.1-.1-.2,0,0,0,0,0-.1,0,0,0,0,0,0,0,0,0,0,0,0,0,0,0,0,0,0,.5.4,1,.8,1.4,1.3,1.2,1.1,3.2,3.2,4.5,5.7,1.9,3.7,2.6,6.2,2.6,6.9s-1.6.5-2.8.4c-1.2,0-7.2.5-9.2,1.5h0c1.4-.3,2.8-.5,4-.5,3.7,0,8.8,1,10.3,2.4h0s1.1.8.9,1.8c-.2.8-1,1.5-2.4,1.6,0,0,0,.9.5,1.8.6.9,1.7,1.9,1.7,1.9,1.7.3,3.4.6,5.1,1,0,0,0,0,0,0,.9.3,2,.4,2.9.7.5.1,1.1.3,1.6.4,1.2.3,2.3.7,3.5,1,.7.2,1.5.5,2.2.7.2,0,1.1.5,1.2.4.4-.3,2.4-1.7,4-2,1.8-.3,3.4-1,3.4-3-.2-2.1-1.8-4.2-3.6-5.7,0,0-2.6,3.2-3.9,2.2-1.3-1,.7-2.3.3-4.9-.4-2.6-8.8-11.2-19.4-17.5,0,0,4.9,2,9.6,4.5,5.8,1,7.1-.6,7.4-1.2-.2-.3-.4-.6-.6-.9-.2-.1-.5-.3-.9-.5-.7-.3-1.3-.4-1.7-.6,0,0-1-1-1.4-1.5,0,0-.1.4.2,1,0,0-.8-.7-1.5-.8-.7-.1-1.6-.4-1.8-.6-.2-.2-.7-.6-.7-.6,0,0,0,.4.1.6,0,0-.7,0-.9-.8-.1-.8.5-1.1.5-1.1,0,0,0-.2,0-.5,0,0,.7.7,1,.9,0,0,.1-.5-.1-1.3,0,0-.2,0-.2-.1-.2-.1-.5-.3-.7-.4-.2,0-11.1-6.3-16.3-8.9-.4,0-.9-.1-1.5-.3,0,0-.9-.4-1-.8,0,0,0,.2,0,.4.2.4.7.8.8,1.4,0,0-.9-.5-1.6-.9-.6-.3-1.9-.7-2.7-1.2-.2-.1-.3-.2-.4-.3,0,0,0,0,0-.1,0-.1-.1-.2-.2-.3,0,0,0,0,0-.1,0,0,0,0,0,0,0,0,0-.1,0-.1,0,0,0,0,0,0,0,0,0,0,0,0,0,0,0,0,0,0,0,0,0,0,0,0,.3.3.6.6,1,.7,0,0,0,0,0,0,0,0,0,0,0,0,0,0,0,0,0,0,0,0,0,0,0-.1-.2-.2-.5-.6-.7-1-4.2-2.1-9.3-4.3-16.1-5.7-3.7-.7-6.9-1-9.5-.9h0ZM102.9,66.2c-.4,0-.7,0-1.1.1-1.1.2-2.2.4-3.3.7,0,0-.2,0-.2,0,0,0-.1,0-.2,0,0,0,0,0,0,0h0s0,0,0,0c0,0,0,0,0,0,0,0,0,0,0,0h0s0,0,0,0c0,0,0,0,0,0,0,0,0,0,0,0,0,0-.1,0-.2.1,0,0-.1,0-.2.1,0,0,0,0-.1.1,0,0-.1.1-.2.2-.4.3-.8.8-1,1.3,0,0,0,0,0,0,0,0,0,.1,0,.2,0,0,0,0,0,0,0,0,0,0,0,0,0,0,0,.1,0,.2,0,0,0,0,0,0,0,.1,0,.2,0,.3,0,.5.5,1,.8,1.3.7.7,1.6,1.3,2.5,1.8,2.5,1.5,5,3,7.4,4.7,24.3,5,37.2,11.8,37.2,11.8,0,0,1.5,1,.6,2.2-.4.6-1.2.5-1.8.3-.6-.3-1.9-1-3.7-1.8-5.1-2.5-15.2-6.8-30-10.7,2.2,1.8,4.3,3.8,6.4,5.8,3.2.8,6.1,1.5,8.8,2.3.3,0,.5.1.8.2,1.6.5,3.2.9,4.8,1.4,2.6.8,5.2,1.8,7.8,2.8.2,0,.3.1.5.2.2,0,.4.2.6.3,1.1.5,2.2.9,3.3,1.4.6.3,1.3.6,1.9.9,0,0,0,0,0,0,0,0,0,0,0,0,0,0,0,0,0,0,0,0,1,.7.9,1.6,0,0,0,.1,0,.2,0,0,0,0,0,.1,0,0,.1,0,.2,0,1.5,0,3-.2,4.5-.6.4-.1.8-.2,1.2-.4.8-.3,1.6-.6,2.4-1,0,0-1.3-1.7-1.5-1.9-1.2-1.3-2.5-2.5-3.9-3.5.2,0,.4-.1.6-.2.2,0,.4,0,.6,0-1.2-1.2-2.6-2.1-4-2.9-.5-.3-1-.6-1.5-.9-.1,0-.3-.2-.4-.3-.1,0-.2-.1-.3-.2-.6-.3-1.2-.7-1.8-1h0s0,0,0,0h0c-.7-1-3.5-4.9-7.2-4.7,0,0,0,0,0-.2,0,0,0,0,0-.1,0-.3-.2-.7-.5-1.2,0,0,0-.1-.1-.2-.2-.4-.5-.7-.9-1.1,0,0,0,0-.1-.1,0,0-.2-.2-.3-.2,0,0-.2-.1-.2-.2,0,0,0,0-.1,0,0,0-.1-.1-.2-.2,0,0-.2,0-.2-.1,0,0-.2,0-.2-.1,0,0-.2,0-.3-.1-.2,0-.4-.2-.5-.2,0,0-.2,0-.3-.1-.1,0-.2,0-.3-.1-.3,0-.6-.2-.9-.2-.1,0-.2,0-.4,0,0,0-.2,0-.3,0-.3,0-.6,0-.9,0,0,0,0,0,0,0,0,0,0,0,0,0,.4.1.7.7,1,.9.3.4.7.7,1,1.1.4.5.9,1,1.2,1.6.7,1,1.4,2,1.9,3,.3.5.5,1.1.8,1.6.1.3.2.5.3.8,0,.1.1.3.1.4,0,0,0,.3,0,.4-.6-.6-1.2-1.2-1.8-1.8-.4-.4-.8-.7-1.2-1-1.4-1.2-2.8-2.3-4.3-3.3-.3-.2-.5-.4-.8-.5,0,0,0,0,0,0s0,0,0,0c0,0-.2,0-.3,0-.9-.3-2.4-.8-3.6-1.1-.3,0-.5-.1-.8-.2-1.8-.4-3.1-.3-3.1-.3,0,0,.8-.3,1.3-.5,0,0-3.1.1-6.4-.5-3.4-.7-7.7-3.3-9.3-5.4,0,0,1.1.3,1.9.2,0,0-1.8-1.9-2.2-3.2h0Z"/>
      <path d="M92.5,42.2c-.2.9,0,3.4,0,3.4-.4-.5-1-1.8-1-1.8,0,0-.5-.2-.9-.1-.5.1-1.3.6-1.3.9,0,.3-.5.6-.5.6,0,.7.5,1.8.5,1.8-.5-.3-1.2-1.2-1.2-1.2-.1.2-.3,1,0,1.8.3.9,2.4,1.3,2.4,1.3,1.3.1,2.1-1.1,2.8-1,.7.1.9,0,.9,0,.2.3,1.2,1.1,1.2,1.1v-1.4s.2,0,.8-.3c.6-.3,1-1.5,1.1-2,0-.5,0-1.1-.5-1.5-.5-.5-1.2-.5-2-.4-.8.1-1.4.2-1.4.2-.3-.4-.8-1.5-.8-1.5h0ZM73.1,44.4c-.8,0-2.3.6-2.7.9-.4.3-1.2.6-1.9.7-.6,0-1.8.6-2.1,1.1-.3.4-.4.7-.4.7,0,0-.5.3-.5.8,0,.5,0,.7.1,1,0,0,1-.1,1.8-.5,0,0-1.4,1.5-3,2.2,0,0,1.7,0,2.5-.4,0,0,.2,0,.5.7.4.7,1.7.8,2.8.9,1.1,0,1.5,0,1.9,0,.4,0,1.4-.2,1.7-.4.3-.2.9-.7,1-.8,0,0-.8.3-1.4.1,0,0,.5-.5.9-.6.4,0,1-.4,1.1-1,.2-.6.7-1,1-1.2.3-.2,1.4-1,1.5-1.9.1-.9-.4-1.6-1.9-1.7,0,0-1.3.6-2.7.8,0,0,.8-.4,2.1-1.4,0,0-1,.2-1.4.2,0,0-.3-.1-1.1-.2h0ZM110.9,44.9c.1.2.7.5.7.5,0,0-.6,0-1.2.2-.6.2-.8.7-1.1.9-.3.2-1.3.2-1.3.2.4.6,1.9,1.6,1.9,1.6-1.1-.3-3.1-1.2-3.1-1.2,0,0-.7,0-1.5.3-.8.4-.9,1.2-.6,1.9.3.7,1.7,1.5,1.7,1.5-.7,0-1.7-.2-1.8-.2.1,0,1.2.9,2.3,1.1,1.2.3,2.2-.2,2.2-.2-.2-.3-.1-1-.1-1,.9.9,2.9,1.8,3.1,1.8-.6-.4-1.4-1.5-1.4-1.5,0,0,.8-.3,1.2-.6.4-.3,1.1-1.2,1.1-1.4,0-.2.5-.7.5-.7.5.3,1.1.4,1.1.4-.3-.3-.4-.9-.4-.9,0,0,.7-.3,1.2-.7.5-.5.8-1.3.1-1.6-.7-.2-1.5,0-1.9,0-.4,0-1.4-.1-1.4-.1-.4,0-1.5-.3-1.5-.3h0ZM139.7,46.6c-.3,0-.5,0-.7,0-.3,0-1.5,0-1.5,0,.5.5,1.1,1.4,1.1,1.4-.7-.6-2.3-1.4-2.9-1.4h-.1c-.6,0-1.4.2-1.7.6-.3.4-.9.5-.9.5,0,.3.8,1.2.8,1.2-.5-.1-1.4-.6-1.4-.6,0,0,.6.8,1.1,1,.6.2,1.1.5,1.9.8.8.3,1.9.2,1.9.2-.2-.4-.8-1.2-.8-1.2.8.4,2.7,1.6,2.7,1.6.3,0,.6-.3.8-.6.2-.3.5,0,1.1,0,.6,0,.9-.4.9-.9,0-.5-.2-.8-.9-1.3-.8-.6-.8-.9-.8-.9.4,0,.8.3.9.3,0,0-.3-.5-.7-.7-.2-.1-.5-.2-.8-.2h0ZM126.7,48c.5.2.7.5.7.5,0,0-.3,0-.6,0-.3,0-.4-.2-.8-.2-.5,0-.7,0-1.2.2-.6.2-1.1.2-1.1.2-.7-.2-1.9-.3-1.9-.3.7.4,1.2.8,1.2.8-.2.2-1.1.5-1.3.6-.2.1-.6.5-.4.9.2.4.3.8.3.8-.6-.2-1.6-.4-1.6-.4.5.4,1.9,1.7,1.9,1.7-.6,0-1.5-.5-1.5-.5,0,0-.3.3-.2.6,0,.3.5.5.9.7.5.1,1.5.1,1.5.1,1.2-.2,1.9-.5,1.9-.5-.2-.4-.8-1-.9-1,.1,0,1.4.4,2,.5.7,0,1.3-.3,1.6-.6.3-.3.4-.4.9-.5.5-.1,1.1-.5,1.1-.5,0-.3-.5-.9-.5-1,.3,0,.9.3.9.3,0,0,.5-.7,0-1.1-.5-.5-1.3-.6-1.3-.6-.5-.3-1.5-.5-1.5-.5h0ZM148.3,48.1c0,.3.3.7.3.7,0,0-.2.2-.7,0-.6-.2-1-.1-1-.1,0,.5.6,1.5.6,1.5-.4-.1-1.1-.7-1.1-.7,0,.6.5,1,.5,1,0,0,.3.4,1.1.8.7.4,1.4.2,1.4.2,1.1,0,1.7.8,1.7.8-.2,0-.4,0-.4,0-.2,0,.6.5,1.1.9.5.4,1.5.4,1.5.4,0-.3-.6-1.5-.6-1.5.4.3,1.4,1.3,1.4,1.3,0,0,.2-.2.2-.5s-.6-1.1-.6-1.1c0,0,.5-.5.4-.7,0-.3-.5-.7-.7-.8-.2-.1-.7-.4-.7-.4,0,.4.5.9.5.9,0,0-.5-.4-.6-.5-.1-.1-.9-.9-1.6-1.2-.7-.3-1.6,0-1.6,0-.3-.1-1-.7-1-.7h0ZM50.8,49.8c-.5,0-.8.1-1,.3-.3.3-.8.8-1.5,1.4-.7.5-.5.9-.5.9-.5.2-2.2.5-2.2.5.5.2,2,.5,2,.5,0,0,0,0-.3.5-.4.4-.5,1.2-.5,1.2.6.3,2.3.7,2.3.7-1,.1-2.3.4-2.3.4,0,0,.3.5,1.4.6,1.1.2,2.6-.7,2.6-.7,1.2.3,2.1-.4,2.1-.4-.3,0-.9-.3-.9-.3.8,0,1.6-.1,1.6-.1.8-.5,1.1-.9.9-1.4-.2-.6,0-.9,0-1.8,0-.8-.7-1.2-.7-1.2,1.1-.3,1.5-.8,1.5-.8,0,0-1.7.2-2.1.2s-.4,0-1.1-.2c-.4,0-.9-.1-1.3-.1h0ZM142.6,52.8c.5.3,1.2.7,1.2.7,0,0-.8,0-1.2.7-.4.7.2.7.3,1.6.2,1,1.1.7,1.1.7-.3-.2-.2-.6-.2-.6.4.3.8.4,1.4.6.6.1.8.4.8.4-.5,0-1.2,0-1.2,0,0,0,.7.6,1.4.7.7.2,1-.3,1-.3.7,0,1.5.3,1.5.3-.1-.3-.4-.8-.4-.8.3-.2.8-.9,0-1.4-.7-.5-.8-1.1-1.7-1.7-.9-.7-1.8-.4-1.8-.4.3.3.4.7.4.7-1.2-.7-2.8-1.2-2.8-1.2h0ZM82.4,53.8c-.6,0-1,.2-1.3.4-.2.1-.4.3-.5.4-.3.3-1.1.4-1.1.4-.4,0-1.5,0-1.5,0,1.5.4,1.9.9,2.9,1.3-.8-.1-2.3-.4-2.3-.4-.2.8-.8,1.1-1.2,1.4-.4.3-.5.6-.5.6.8.2,2.8,1.3,2.8,1.3-.7-.2-2.8-.2-2.8-.2-.1.4-.2.4.4,1,.6.7.5,1,.3,1.2-.2.2-.7.8.2,1.5.9.7,2.5.6,3.1.5.5,0,1.1,0,1.1,0-.4-.3-1-.9-1-.9.4,0,1.7.3,1.7.3,0,0-.4-.4-.1-.7.3-.3,1.1-.2,1.7-.7.6-.5.5-1.6.6-1.8.1-.2.8-.6.8-.6.2,0,.6,0,.6,0-.6-.3-2.4-1.2-2.4-1.2.7,0,1.8.1,1.8.1,0-.3-.4-1.1-.6-1.5-.1-.4,0-.7,0-.9,0-.2,0-.6,0-.6-.2-.2-.5-.4-.5-.4.7,0,1.6.2,1.6.2,0,0-.5-.2-1-.4-.7-.2-1.7-.5-2.8-.5h0ZM155.9,54.3c.2.2.2.5.2.5-.2,0-.4,0-.8,0-.4.1-.8.5-.8.5.3.3,1.3,1.5,1.3,1.5-.4-.2-1.1-.5-1.1-.5,0,.3.4.7.8,1.1.5.3,1.8.6,1.8.6.3.4,1.4.6,1.4.6,0-.2-.8-1.3-.8-1.3.4.2,1.7,1,1.7,1,0,0,.2,0,.4-.2.1-.2-.2-1-.3-1.2-.1-.2-.4-.7-.8-1.1-.4-.4-1.4-.7-1.4-.7l.2.5c-.6-.6-1.8-1.3-1.8-1.3h0ZM135.4,54.5c-.4,0-.8,0-1,.3-.5.4-.7.5-.7.5-.5-.2-1-.2-1-.2.7.6,1.5,1.4,1.5,1.4-.7,0-1.8-.5-1.8-.5-.3.4-.2.7-.2,1,0,.3-.3.6-.3.6.3.4,1.5,1.3,1.5,1.3-.4,0-1.8-.2-1.8-.2,1,1,2.3,1,2.6,1,.3,0,.7.1,1.1,0,.5,0,.9-.6.9-.6.4-.2.8-.8.9-1,.1-.3.6-.6.6-.6-.2-.4-1.1-1.2-1.1-1.2.9.1,2.1.9,2.1.9-.5-.7-1.1-1.1-1.1-1.1,0,0-.6-.8-1.1-1.2-.3-.2-.7-.3-1.1-.3h0ZM112.5,54.7c-.3,0-.3.4-.4.6,0,.1-.2.2-.2.2.4.3.9.6,1.1.6-.4-.1-1.6-.2-1.6-.2-.2.1-.3.6,0,1.3,0,0,0,0,0,0,.2.7,0,1.4,0,1.4h-.4c.3.5,1,.8,1.2,1,.2.2.5.7.5.8,0,0-.7-.4-.9-.5-.2,0-.4-.3-.5-.4,0,0,.3.8.7,1.2.4.4,1.8,1,2.5,1.4.7.3,1.1.8,1.1.8.5-.1-.4-.9-.4-1,.4.1,1.1.6,1.1.6,0-.3.2-.9,0-1.3-.1-.4-1.1-1.3-1.4-1.5-.3-.3-.5-.9-.4-1.2.2-.9.4-1.3.4-1.3.1-.2.4-.4.6-.6.4,0,1.4.2,1.9.3,0,0,0,0,0,0,0,0,0,0,0,0,0,0,0,0,0,0-.8-.2-1.6-.5-2.3-.7,0-.2,0-.5-.2-.5-.3-.1-1.1-.7-1.2-.7-.1,0-.7-.4-1.1-.3h0ZM97.3,54.8c-.2,0-.5,0-.7.3-.5.4-1.2.6-1.7.8-.4.2-.6.5-.6.5.3.1.9.9.9.9-.6-.1-2-.4-2-.4,0,0,0,.4-.2.7-.2.3-.6.3-1.1.6-.4.2-.8.6-.7,1.1,0,.8,1.1,1.5,1.2,1.5-.4,0-1.1-.2-1.1-.2.3.3,2.1,1.8,2.1,1.8-.3,0-1.2-.1-1.2-.1.4.1,1.6.6,2.2.8.6.1,1.1-.1,1.1-.1-.2-.2-.7-.7-.7-.7.4,0,1.4.4,1.4.4.8,0,1.3-.4,1.7-.9.3-.5,1-.9,1-.9.4,0,1.6.2,1.7.2-.7-.4-1.3-.7-1.3-.7.5-.2.9-.5,1.1-.9.2-.4.3-.5.4-1,0-.6-.4-1.1-.4-1.1.4.1.8.2.8.2-.3-.2-.9-.6-.8-.8,0-.2.3-.3.5-.6.2-.3,0-.8-.4-1-.4-.2-1.3-.2-1.3-.2.1.3.5.6.5.6-.8-.2-1.5-.7-1.8-.7-.2,0-.4,0-.6,0h0ZM124.7,54.8c-.6,0-1.3.3-1.3.3-.6-.2-1.3-.3-1.3-.3.9.6,1.2,1.5,1.2,1.5-.5-.4-1.1-.7-1.1-.7-.3.2-.5.7-.7,1.1-.3.4-.7.8-2,1.4-1.3.6-1.2,1.4-1.2,1.4h-1c.7.2,2,1.3,2,1.3-.4-.1-1.1-.2-1.1-.2-.1.6.5,1.1.8,1.4.3.3.7,1.1.7,1.1-.3,0-.7,0-.7,0,0,0,.9.3,1.2.6.3.2,1.6.3,1.6.3.2-.4-.2-1-.2-1-.7-.4-.9-1.2-.9-1.2.4.3.8.5.8.5,0,0,0-.7.5-1.7.2-.3.4-.6.6-.8.3-.3.7-.6.9-.8.2-.1.3-.2.3-.2,0,0,0-.2,0-.3,0-.1,0-.2,0-.4,0,0,0,0,0,0,0,0,0,0,0,0,0,0,0,0,0,0,0,0,0,0,0,0,.3.2.5.5.6.6,0,0,0,0,0,0,0,0,0,.1,0,.1.6-.2,1.6-.8,1.8-1.2.2-.4.5-1.4.4-1.8,0-.3-1.1-.9-1.7-.9h0ZM65.7,60.7c.3.4,1.5,1.2,1.5,1.2-.9-.2-1.5-.4-1.5-.4,0,0-.4,0-.9,0-.5.1-.9.6-.9.6-1,0-1.6.8-2.1,1.2-.5.4-1.1.4-1.1.4.3.7,1.2,1.4,1.2,1.4-.7-.2-2.1-.8-2.1-.8-.2.4,0,1.1,0,1.6,0,.5-.4.8-.4.8.5.6,2,1,2,1-1.5,0-3.3,0-3.3,0,.8.4,2.1.7,2.1.7,0,0,1.2.6,2.7.8,1.5.2,2.9-.8,2.9-.8,0,0,1.4.2,2-.5.6-.7.1-1.7,0-1.9,0-.3,0-.6.5-.6.5,0,.9-.4.9-.4.7,0,1.8,0,2,0-.3,0-2-.5-2.2-.9-.3-.5.5-1.2.5-1.7s-.6-1.2-1.4-1.4c-.8-.2-1.3,0-1.3,0-.5,0-1-.2-1-.2h0ZM86.1,67.3c-.1,0-.3,0-.3.1-.4.2-.4.7-.7.9-.2.2-.9,0-1.2,0s-.4.2-.5.4c0,0,1.3.5,2,.9,0,0-2-.5-2.7-.5,0,0,.7.4.9.5,0,0,1.3.6,1.5,1,0,0-.6-.1-1-.1,0,0,1.1.6,1.7,1.2,0,0,.2,1.4.9,1.5.7,0,1.2.2,1.5,0,.3-.2.4-.6.4-.6,0,0,.4,0,.7-.2.3-.3.5-.8.8-.8.3,0,.6.2.8.1.2,0,.3-.1.3-.1,0,0-.8-.3-1.9-.7,0,0,1.4.1,2.3.3,0,0,.3-.2-.4-.5-.7-.3-.4-.8-1.2-1.3-.8-.5-1.7-1-2.6-1.2,0,0,.8,0,1.5,0,0,0-.8-.3-1.4-.5-.5-.1-1-.3-1.4-.2h0ZM71.6,71.1c-.8,0-1.4.3-1.4.3,1.2.2,1.4.6,1.4.6,0,0-1.9.3-2.3.5-.4.1-.4.1-.4.4s-.2.7-.4,1.3c-.3.5-.2,1.9-.2,1.9.7.3,2,.3,2,.3-.8.2-1.8.6-1.8.6.2.6,1.2,1.6,2,2.3.8.8,1.1,1.4,1.1,1.4-.5,0-1.1.4-1.1.4,0,0,1.8.7,2.8.8,1,.1,2.7-.6,2.7-.6.9.1,2.7-.1,3.1-.8.4-.7-.4-1.5-1.1-2-.6-.5-1-1.9-1-1.9.7,0,1.9-1.1,1.9-1.1,0,0-1.9.4-2.3,0-.5-.4-1.3-1.2-1.7-2-.4-.8-1.2-2.2-2.4-2.4-.3,0-.6,0-.9,0h0ZM54.6,71.1c-.1,0-.3,0-.3,0-.3.1-.9.6-1.3.6-.4,0-1.5-.2-1.7.3-.2.5-.3,1-.3,1,0,0,.9.2,1.8.4,0,0-1.8-.1-2.8,0,0,0,.3,0,.6.3,0,0-.6,1,0,1.7.5.7,1,1.6,1.8,1.7.9,0,1.9,0,1.9,0,0,0-1-.3-1.8-.5,0,0,1.5,0,2.6.4,0,0,1.9,0,2.2-.5.3-.4.3-.7.7-.9.4-.3.7-1,.5-1.6-.2-.6-1.3-1.1-1.3-1.1l-1.7-.5s.7-.1,1.2,0c0,0,0-.4-.6-.6-.4-.1-1-.4-1.5-.4h0ZM81.7,74c3.3.5,6.9,1,10.7,1.8,6.2,1.2,11.8,2.5,16.8,3.8,14.7,3.9,24.8,8.3,30,10.7,1.8.9,3.1,1.5,3.7,1.8.6.2,1.4.3,1.8-.3h0c.9-1.2-.6-2.2-.6-2.2,0,0-12.9-6.8-37.2-11.8-4.4-.9-9.1-1.7-14.2-2.5-3.9-.6-7.6-1-10.9-1.3h0ZM146.1,75.2c-1.3,0-2.6.2-4,.5h0c-1.7.4-3.5,1-5.1,1.7-.5.2-.9.4-1.4.6-.6.3-1.1.6-1.6.9,0,0-.1,0-.2.1,0,0,6.9-2,12.1-1.5,5.2.5,10,3,10.9,1.1.2-.4,0-.8-.4-1.1-1.5-1.4-6.7-2.4-10.3-2.4h0ZM45.6,78c-.5,0-.9,0-1.1.2-.4.3-1.4,1.5-1.7,1.8-.3.3-.5,1.2-.4,1.8,0,0-.8.4-1.4.4,0,0,1,.2,3.1,0,0,0-1,.6-1.5,1,0,0,.6,1.1.6,2.3s0,2.6,0,3.1c0,0,1.3-.2,2.4-.2,0,0-2,.9-2.4,1.5,0,0,.2,2.4,1.9,2.8,1.7.4,2.5-.5,3.2-1.3.7-.9,2.2-2,2.7-2.5h0c.6-.4,1.1-2.6.2-3.4-.3-.3-.6-.5-.8-.8-1.3.4-2.5.5-2.5.5.7-.2,1.5-.7,2-1-.3-.3-.5-.6-.6-1-.2-.9-.7-2.7-.7-2.7,0,0-.7,0-1.5-.1,0,0,1.7-.5,2.4-1,0,0-.6,0-1.1,0,0,0-.2-.7-1.3-.9-.6,0-1.1-.2-1.6-.2h0ZM81.8,79.9s0,0,0,0c0,0,0,0,.1,0,0,0,0,0,0,0,3.2.4,6.7,1,10.4,1.6,24.1,4.3,40,10.8,47,14.1,1.8.8,3.1,1.5,3.7,1.8.6.2,1.4.3,1.8-.3,0-.1.1-.2.2-.3h0s0,0,0-.1c0,0,0-.1,0-.2,0-.9-.9-1.6-.9-1.6,0,0,0,0,0,0,0,0,0,0,0,0,0,0,0,0,0,0-.6-.3-1.3-.6-1.9-.9-1.1-.5-2.2-1-3.3-1.4-.2,0-.4-.2-.6-.3-.2,0-.3-.1-.5-.2-2.6-1-5.2-1.9-7.8-2.8-1.6-.5-3.2-1-4.8-1.4-.3,0-.5-.1-.8-.2-1.6-.5-3.3-.9-5-1.3-3.9-1-7.9-2-11.9-2.8-4.4-.9-8.8-1.6-13.2-2.2-3.5-.5-7-.9-10.5-1.3,0,0-.2,0-.3,0-.6,0-1.2-.1-1.8-.2h0ZM58.3,81.5c-.2,0-.3,0-.4,0-.5.3-.5.9-.5,1h0s1.1,0,1.7-.2c0,0,0,0,0,0,0,0-1.2.9-3.5,1.2h0c0,0,.4.1.7.2.2,0,.4,0,.6,0h0s-.2.9-.4,1.4c-.1.6.1,1.6.7,2.1h0s1,0,2.1-.3c0,0,0,0,0,0,0,0-.4.6-.9,1,0,0,.6.3.2.8-.3.5-1,1.8-.6,2.6.2.4.5.7.9,1,.5.5,1,.8,1,.8,0,0,1.7-.4,2.4-.7,0,0-1.7,1.2-3,1.7,0,0,2,0,2.6-.2l-.3.7s.9.7,2.9.4c2-.3,3.3-.7,3.3-1.8s-.2-1.5,0-2.6c0,0-.7.1-1.3,0,0,0,1.2-.7,1.6-1.4,0,0-.1-.7-.4-1.3h0c-.2-.4-.5-.9-.9-1.1-.1,0-.3-.1-.4-.2,0,0-.2,0-.3,0-.2,0-.4,0-.6-.1-.3,0-.6-.2-.9-.3-.1,0-.2,0-.3-.1-.1,0-.2,0-.3-.2-.2-.1-.5-.3-.7-.5,0,0,0,0,0,0-.5-.4-.9-1-1.1-1.8,0,0-.4-1.2-1.4-1.5,0,0,0,0,0,0-.3-.1-.8-.2-1.2-.4-.1,0-.3,0-.4,0-.3,0-.5-.1-.8-.2-.2,0-.4,0-.6,0h0ZM77.5,96.7c-.4,0-.8.1-1.2.3-1.1.5-2.8,1-2.8,1,0,0-1.5.7-1.7,1,0,0,.3-.7.7-1,0,0-1.4,0-2.4,0-1,0-2.1.1-2.3,1.1-.1,1,.1,1.5.6,1.8.4.3,2.1,1.4,2.4,1.7,0,0,1.1-.7,2-.9,0,0-1.9,1.4-2.3,2.1,0,0,.8-.4,1.4-.4,0,0,1.5.9,2.5.9s2.8-.3,2.8-.3c0,0,1.1-.7,2.2-.8,0,0-1.2.8-1.5,1.2,0,0,.5,0,.8.1.3.2,1.3.4,2.1,0,.9-.3,1.8-.7,1.7-1.8,0-1.1-.7-2.3-.7-2.3,0,0,1.2-1,1.8-1.3-.2,0-1.4.2-2.2.5,0,0-1-2-2-2.6-.6-.4-1.3-.6-1.9-.5h0ZM53.5,98.1s-1.8-.1-2.9,1.6c0,0,0,0,0,0,0-.1,0-.8.6-1.4,0,0-1,.4-1.5,1,0,0-.3.3-.3.6,0,.2,0,.3-.2.5,0,0,0,0,0,.1,0,0,0,0,0,.1,0,0,0,0,0,0,0,0,0,0-.1.1-.1.1-.2.2-.3.2-.2.1-.5.2-.7.4-.1.2-.3.5-.4,1h0c0,.2,0,.3,0,.5,0,0,.6-.6,1.1-.9,0,0-.8,1.3-.9,2.3,0,0-.2,1.6,1.4,2.5,1.5.8,3.9,1.5,4.5,2,0,0,1.2-.8,1.8-1.1,0,0-1.6,1.5-2,2.9,0,0,.9-.9,1.5-1.1,0,0,1.5,1.1,2.3,1,.9,0,2.2,0,2.7-1.2.5-1.2.4-1.4.7-1.7,0,0-.8.5-1.5,1.1,0,0,.3-1.2,1.5-2.1,1.2-.9,1.7-1,1.7-1,0,0,2.8-3.7-.5-5.5,0,0,1.6-.8,2.5-1.4,0,0-2.6.7-3.4.9,0,0-1.9-.4-3-.4s-2.8-.1-3.6-.4c-.8-.2-1.6-.5-1.6-.5,0,0,.5-.3.8-.4h0ZM66.9,109.3c0,0-1.2,0-2,.6,0,0-2.4.2-2.8,1.8-.5,1.6.7,2.7,1.1,3,0,0,.5-.7,1.4-1.2,0,0-.5.9-.5,1.6,0,0,2,1.1,6,1.6,4,.6,3.7.3,5.1,1.1,0,0,1.5-1.1,2.3-1.3,0,0-1.2,1.6-1.3,2.3,0,0,1.9,1.6,3.4,1.7,1.5.1,2.9-.5,2.7-2.1l.6-.7h-1c0,0,.3-.5.3-.5,0,0,0-.8-.5-1.4,0,0,.8.5,1.6.3l-.2.4s.8,0,1.5-1.2h-.5c0-.1,0-1.3-1.1-2.4-1.1-1.1-2.1-1.5-2.7-.9,0,0-.3-1.2-1-1.5-.7-.3-1.2-.3-1.2-.3,0,0-2.8.6-4,1.3.2-.1,2.1-1.4,2.8-1.8l-1.6.4s-1.7,0-3.2-.1c-1.5-.1-5.1-.5-5.7-.4,0,0,.4-.3.7-.5h0Z"/>
      <path class="st3" d="M112.9,66.6c-1.1,0-1.8,0-1.8,0,0,0,6.5,5.1,10.3,6.1,3.8,1,9-2.3,9-2.3,0,0-1.8-.6-5.2-1.6.2.3.3.6.3,1,0,1-.8,1.7-1.7,1.7s-1.8-.8-1.8-1.7,0-.1,0-.2c0,0-1-.6-1-.6-.4-.3-.7-.6-1-.8-.6-.4-1.4-1-2.1-1.2,0,0,0,0-.1,0-2.1-.3-3.7-.4-4.8-.4h0ZM158.6,86.9c-1.7,0-2.9.8-2.9.8,0,0,6,0,8.3,1.9,2.2,1.9,1.6,3.4,1.6,3.4,0,0,2.2,3.5,2.8,5,0,0,4.1-3.8,4.4-6.5,0,0-8-4.1-13.4-4.6-.3,0-.5,0-.7,0h0ZM99.8,99.4c-2.3,0-3.5.7-3.5.7,0,0,4.7,1.1,7.3,5.9,4,7.2,1.1,20,4.1,26.9,3.7,8.5,10.4,10.7,10.4,10.7,8.8-4.7,10.7-12.1,10.7-12.1-7.6-3.9-3.9-14.8-6.2-21.9-2.3-7.1-10.6-8.5-10.6-8.5,0,0,6.9,2.8,7.1,22.6,0,6.7,2.1,9.5,2.1,9.5-3.5-1.8-4.4-8.7-4.7-13.9-.2-2.7-1.2-15.7-11.2-19-2.3-.7-4.1-1-5.5-1h0ZM134.3,134l.3,3.4,2.4,1.5c.7-2.8-2.7-5-2.7-5h0Z"/>
    </g>
  </g>
</svg>