<?xml version="1.0" encoding="UTF-8"?>
<svg id="Layer_1" xmlns="http://www.w3.org/2000/svg" version="1.1" xmlns:cc="http://creativecommons.org/ns#" xmlns:dc="http://purl.org/dc/elements/1.1/" xmlns:rdf="http://www.w3.org/1999/02/22-rdf-syntax-ns#" viewBox="0 0 201 201">
  <!-- Generator: Adobe Illustrator 29.1.0, SVG Export Plug-In . SVG Version: 2.1.0 Build 142)  -->
  <defs>
    <style>
      .st0 {
        fill: #e31837;
        stroke: #e31837;
        stroke-miterlimit: 2;
        stroke-width: .3px;
      }

      .st1 {
        fill: #e41b3d;
      }

      .st2 {
        fill: #fff;
      }

      .st3 {
        fill: #100f0d;
      }

      .st4 {
        stroke: #000;
        stroke-miterlimit: 2;
        stroke-width: .5px;
      }
    </style>
  </defs>
  <rect class="st1" width="201" height="201"/>
  <path d="M182.2,95.8c-1.4-1.3-2.6-2-3-2.3-2.1-1.7-.3-.3-2.4-1.7-1.5-.9-1.9-1.7-3.4-2.5-2.7-1.5-3-1.9-5.1-4.5-1.9-3.4-4.8-3.9-7.7-4.6-2.8-.6-4.8-2.9-5.3-3.6-1.5-2.4-3.9-3.6-5.2-4.3-4-2.2-8.6-1.8-12.2-5-5.4-3.8-6.9-3.1-12.5-3.3-3.1,0-7.2-2.1-8.6-3.2-1.1-.9-2.4-1.5-3.6-1.9-4-1.2-6.7.9-12.4-1.8-1.6-.8-3.1-1.9-4.7-2.8-.5-.4-1.1-.7-2.7-1-3.2-.6-5.9-.2-9.1,0-2.1.1-2.7-.7-4.3-1.6-1.6-.8-3.2-1.3-4.8-1.7-2.6-.5-5.4-.1-8.2.4-5.6,1.1-10.7-1.7-16.2-1.2-.9,0-2.7,1.2-3.3,2.5-.8,1.7-.8,2.7-.7,4.4.2,2.3.4,2.5.9,4,1,3.3,1.5,5,2.3,7.2.9,2.5.9,5.7-1.3,6.7-1,.5-2.8.5-3.8-.3-1.5-1.2-2.4-2.8-4.1-3.1-2.3-.5-5,1.9-7.5,2.5-2.4.6-2.8-.7-4.4-1.5-1.1-.5-2.2.2-2.8.6-1.1.6-1.4,1.9-1.7,3.4-.2,1.1-.3,2.1,0,3.4.4,1.8,1,2.8,1,4.1.1,3.1-.4,5.4-1.7,7-.8,1-1.9,3.9-2.2,5-1.1,3.6-1,3-1.5,6.3-.3,1.7-.2,3.6-.4,5.2,0,.3.2,3.9.4,5,.4,2.7.9,4.4,1.5,6.6.8,3.2,1.1,5.2,1.1,7.7,0,2.5-1.7,5-.2,6.7.9,1.1,3.4,2.1,5.5,1.2,2.1-.9,3.6-2,5.2-2.2,3-.4,4.9.9,6.2.7,1.1-.1,3.1-1.3,4.1-1.3.7,0,2.4-.1,3,.3.9.7,1.5,1.4,1.3,3.8,0,0-.5,2.5-.5,2.5-.9,3.1-1.9,5.9-2.4,8-.5,2.2-2.9,7,2,8.9,2.1.8,4.2.7,7,0,1.4-.3,1.9-.4,3.2-.6,0,0,1.9,0,1.9-.1h1.7c3-.4,3.8-.2,6.4.1,2.5.3,4.9.8,7.4.5,1.3-.1,2.5-.4,3.7-.8,3.5-1.1,5.1-2.6,9.3-3.2,3.5-.5,3.5.1,6.6,0,3.2-.1,5-1.5,6.3-2.3,1.6-.9,2.1-1,3.1-1.5,4-2.1,8.6-1.9,13.1-3,3.1-.8,4.4-2.2,7.9-3.2,1.4-.4,2.9-.3,4.4-.5,1.1-.2,3.1-1.2,4.3-2.2,1.9-1.8,1.7-1.9,3.2-2.7,2.5-1.4,5.3-1.4,7.9-2.5,2.4-1.1,4.8-2,6.6-3.9,2.7-2.7,7-3.5,10.4-4.8,2.1-.7,4.8-2.1,7.1-6,2.2-3.8,4.2-4.4,8.1-5.6,2.6-.8,3.8-1.3,5.8-3.3,1.8-1.7,2.5-2.8,3.3-4,.9-1.4,2.8-3.7.8-5.4-.9-.8-1.7-2.2-3.6-3.6"/>
  <path class="st3" d="M138.6,124.2"/>
  <path class="st2" d="M179.6,99.1c-2.3-1.6-2.5-1.9-3.7-2.7-3.1-2.1-3.7-2.5-5.2-4.3-1.5-1.7-1.9-2.3-3.6-3.2-.6-.4-4.9-1.8-4.1-1.7-3.9-.7-4-1.5-5.6-3-1.3-1.9-2.8-4.1-4.1-5,.5.3-2.4-1.6-2.4-1.5-2.2-.8-3-.6-5.8-.7,0,0-3-.4-3.8-.8-1.4-.6-2.2-1.4-3.2-2.1-2.2-1.6-1.6-1.3-3.7-2.8-2.9-2.1-3.3-1.6-7-2-3.1-.3-5.4-1.1-7.9-2.8-4.4-3.2-8.7-2.1-11.4-2.5-3.9-.6-6.6-2.1-8-3.1-3.1-2-2.4-1.1-5.7-2.6-4-1.9-7.7,1.3-12.4,0-2.5-.7-3.4-2-5-2.5-4.8-1.4-6.4-.6-10.2-.6-4.6,0-8.7-1.2-13.1-1.2-1.2,0-2.2,1-2,2.4,0,0,0,1.7,0,1.7.2,1.4.7,2.9,1.2,4.4.5,1.9.8,2.5,1.6,5.5.3,2.4,0,3.1-.2,4.1-.1.8-.7,2.5-1.1,3.1-.5.7-1.1.9-1.9,1.4-1.4.8-2.8,1.2-4.3,1.2-1.5,0-1.1,0-3.6-.9-.9-.3-2.7-1.4-4.6-.6-3.5,1.5-3.9.3-5.8.4-.6,0-1.1.3-1.7.6-.9.4-1.3.9-1.9,2.1-.3.7-.6,1.9-.5,3-.2,0,.3,1.7.3,1.7.4,2.3.5,4-.3,6.1-.8,1.9-1.1,2.5-2.1,4.1-1,1.5-2.8,5.8-3,9.7.1-.1,0,4.7.5,7.6.6,3.1,1.5,3.4,1.7,8.6,0,2-.1,3.7-.2,5.5,0,1.1.3,2.8,1.8,2.5,2.1-.3,4.4-1.5,6-1.5.8,0,2.2.2,2.8.4,3.3,1.1,2.2.3,7.3-.6,1.7-.3,4,0,5,.6,3,1.7,2.8,5.6,1.9,9.4-.1.6-.9,4.6-1.1,5.2-.5,2-.5,2.1-.7,4.3-.1,1,0,1.8.5,2.8.5.8,1,1.3,1.8,1.3,3.3,0,5.2,0,8.6-.6,4.4-.8,6.6-.8,9.7-.5,3.1.3,7.6.2,9.4-.5,1.7-.6,3.9-1.9,5.6-2.3,5.8-1.2,6-.7,10.7-1.3,3.8-.5,5.7-2.4,7.6-3.4,2.6-1.4,5-1.9,8-1.9s4.3-.6,5.6-1.2c5-2.3,3.1-2.1,10.1-3.4,3.5-.7,6.1-3.5,8.2-4.7,1.4-.8,2.6-1.4,4.2-1.9,2.1-.6,4.5-1,6.5-1.7,3.3-1.1,4.3-2.3,6.1-3.9,1.5-1.3,2-1.3,3.6-2.4,1.7-1.1,4.2-1.8,5.1-2.1,2.1-.7,5.3-4.3,8.2-7.2,3.5-3.6,6.7-3,10.5-5,2.4-1.2,3.9-2.1,2.8-4.3-.4-.9-1.6-2-2.5-2.6"/>
  <path class="st4" d="M101.4,116.7c-7.3-5.7-5.2-10.8-2.1-13.1l.9,1-1.5,1.6v5.9h21.1l2.7-2.6v-6.4h-1.6l-7.3-7.8c14-3,20.8,3.1,25,9.9h5.5l2.8-2.7v-15.5h-5.8l-3.5,2.1c-12.3-6-22-5.4-31.6-2.2l-1.6-1.6,8.9-5.3h5.4s2.6-2.5,2.6-2.5v-5.3h-21.4l-2.3,2.3v3.6l-20.1,11.5v-8.8l3.2-3.3v-5.3h-21l-2.9,3.4v4.2h3.4v22.8h-1.1s-2.8,3.2-2.7,3.2v5.9h22.2l2.2-2.1v-7.1h-3.3v-1.8l12.2-7,1,1.1c-2.7,1.9-4.9,3.7-6.5,6.6-2.4,4-3.3,9.5-1.9,14,.9,3,2.1,4.8,4.1,6.9,1.9,2,3.6,3.1,6.7,4.6,2.6,1.3,8.6,3.1,13.3,3.6,4.6.3,10.3.3,14-.2,4.1-.4,8.4-1.9,11-3,2.1-1,4.4-1.9,6.1-3.3,4.4-3.2,9.1-8,9.2-14h-8.2c-2.6,9.2-27.5,13.4-37.5,6.3"/>
  <path class="st0" d="M120.5,73.7h-19.8v3.5h2.3l-26.2,15v-14.9h3.3v-3.5h-19.2v3.4h3.3v27.5h-3.3v4h19.2v-4h-3.1v-4.6l14.9-8.5,12.3,13.2h-2.8s0,4,0,4h19.9v-4h-.6l-18.1-19.5,13.4-7.9h4.4v-3.5h0ZM120.6,86c-6.2,0-10.7,1.5-12.8,2.1l5.1,5.6c11-2.6,22.9.1,28,7.9h5c0,0,0-13.8,0-13.8h-4.6l-3.3,2.1c-6.8-3-12.7-4-17.6-4h0ZM141,101.7h-.1s.1,0,.1,0c0,0,0,0,0,0h0ZM92.6,96.2c-4.6,3.1-6.1,6-7.1,8.9-.8,2.3-1.9,7.1.3,11.6,2.7,4.6,7,7.3,10,8.4,4.8,2,12.5,3.8,21.3,3.5,6.3-.1,11.7-1.3,17-3.9,3.1-1.6,3.7-2,6.8-4.8,2.3-2.6,4.2-4.3,4.9-8.3h-5.3c-2.1,3.5-5,6.3-11.7,8.3h0c-13,3.9-25.4,1.9-30.9-4.9-4.6-5.3-2.4-9.9.5-12.4l-5.8-6.2h0Z"/>
</svg>