<?xml version="1.0" encoding="UTF-8"?>
<svg id="Layer_1" xmlns="http://www.w3.org/2000/svg" version="1.1" xmlns:cc="http://creativecommons.org/ns#" xmlns:dc="http://purl.org/dc/elements/1.1/" xmlns:rdf="http://www.w3.org/1999/02/22-rdf-syntax-ns#" viewBox="0 0 200 200">
  <!-- Generator: Adobe Illustrator 29.1.0, SVG Export Plug-In . SVG Version: 2.1.0 Build 142)  -->
  <defs>
    <style>
      .st0 {
        fill: #eead1e;
      }

      .st1 {
        fill: #0080c5;
      }

      .st2 {
        fill: #fff;
      }

      .st3 {
        fill: #0284c8;
      }
    </style>
  </defs>
  <rect class="st3" width="200" height="200"/>
  <path class="st2" d="M175,94.7c13.1,16.8,16.1,39.4,14.7,58-6.8-16.5-20.8-38-36.6-50.6,1.6,3.3,2.8,6.8,4.1,11.5-25.6-15.7-55.3-25.2-88-22.9,0,0,4,4.3,5.2,6.6-17.8,7.5-42.3,16.6-63.5,55.4-5.6-27,13-53.4,18.9-59.7-3.1-.1-3.8,0-7.3,0,19.4-27.2,56.4-32.7,76-31.2l-5.1-6.3c27.2-1.1,40.1,6.9,45.3,9,21.1,10.4,31.5,23.8,36,30.3"/>
  <path class="st1" d="M102.1,58.6h-2.1s2.9,4.2,4.2,6.1c-9.9-.8-48-2-73.6,23.4l-1.8,1.8s6.6.2,7.3.2c-.6.8-1.3,1.6-1.3,1.6-7.7,9.3-18.2,22.1-21.8,46.7l-.7,4.8,2.7-4c13.8-20.3,31.7-34.6,53.2-42.4l1.4-.5-.9-1.2c-2.2-3.1-4.4-5.1-6.4-6.8,37.7-3.8,64.9,6.4,86.6,17l2.6,1.3-1.1-2.7c-2.1-5.1-4-8.5-6-11.7,16.3,9.7,27.7,23.9,39.5,42.1l2.4,3.7-.4-4.4c-4.3-49.2-52.3-75.6-84-74.9"/>
  <path class="st0" d="M107.4,65.4s-1.9-2.7-3.1-4.5c15.3.3,33.4,7,47.9,17.8,12.4,9.2,27.4,25.3,31.1,50.5-12-18-24.1-32-41.7-41.2l-3.8-2,2.4,3.6c2.5,3.8,4.7,7.2,7.1,12.5-21-10-49.5-20.2-87.7-15.7l-2.5.3,3,2.6c1.9,1.6,4,3.4,6.1,6.1-19.9,7.6-36.7,20.7-50.1,38.9,4.1-21,13.5-32.5,20.5-41l4.1-5.1h-2.3c0,0-4.1-.2-4.3-.2,28.7-26.4,71.7-20.8,72.2-20.7l2.6.4-1.5-2.1"/>
</svg>