<?xml version="1.0" encoding="UTF-8"?>
<svg id="Layer_1" xmlns="http://www.w3.org/2000/svg" version="1.1" xmlns:xlink="http://www.w3.org/1999/xlink" viewBox="0 0 200 200">
  <!-- Generator: Adobe Illustrator 29.1.0, SVG Export Plug-In . SVG Version: 2.1.0 Build 142)  -->
  <defs>
    <style>
      .st0 {
        fill: #003594;
      }

      .st1 {
        fill: #fff;
      }

      .st2 {
        fill: url(#linear-gradient1);
      }

      .st3 {
        fill: #003499;
      }

      .st4 {
        fill: #ff8200;
      }

      .st5 {
        fill: #d7d2cb;
      }

      .st6 {
        fill: #ffa300;
      }

      .st7 {
        fill: url(#linear-gradient);
      }

      .st8 {
        fill: #ffd100;
      }
    </style>
    <linearGradient id="linear-gradient" x1="-1814.5" y1="-30" x2="-1814.4" y2="-30" gradientTransform="translate(-34164.6 2074347.3) rotate(90) scale(1143.2)" gradientUnits="userSpaceOnUse">
      <stop offset="0" stop-color="#ffd100"/>
      <stop offset=".2" stop-color="#ffd100"/>
      <stop offset=".3" stop-color="#ffd724"/>
      <stop offset=".5" stop-color="#ffe87f"/>
      <stop offset=".7" stop-color="#fff"/>
      <stop offset="1" stop-color="#fff"/>
    </linearGradient>
    <linearGradient id="linear-gradient1" x1="44" y1="915.8" x2="150.7" y2="915.8" gradientTransform="translate(0 -818.4)" gradientUnits="userSpaceOnUse">
      <stop offset="0" stop-color="#ffa300"/>
      <stop offset="0" stop-color="#ffa800"/>
      <stop offset=".3" stop-color="#ffb600"/>
      <stop offset=".5" stop-color="#ffcd00"/>
      <stop offset=".5" stop-color="#ffd100"/>
      <stop offset="1" stop-color="#ffd100"/>
    </linearGradient>
  </defs>
  <rect class="st3" width="200" height="200"/>
  <path class="st0" d="M167.5,52c-25.2-25.3-64.6-29.8-94.9-10.9-8.4,5.5-15.6,12.6-21.3,20.8h-15.8L5.5,129.6h38.7c5.6,10.4,14.1,19,24.4,24.8,19.8,10.9,43.9,10,62.8-2.4,2.2-1.4,3.2-4.1,2.4-6.6-.7-2.5-3-4.2-5.6-4.3-.6,0-1.2,0-1.7.3-3.9,1.2-7.9,1.7-11.9,1.7-11.6,0-22.6-4.9-30.4-13.5h36.1l6.2-8.7h24.1s-.7,1.9-1.1,2.8l-2.6,5.9h39.4l.8-3.1c7.2-26.6-.3-55-19.8-74.5h.2ZM183.2,125.4h-29.8c1.2-2.8,2.3-5.7,3.1-8.7h-32l-6.2,8.7h-28.7l42.9-60.1h0c-5.7-2.3-11.7-3.5-17.8-3.5h-2.3c-23.3,1.2-41.9,19.9-41.9,42.7s0,3,.2,4.4h25.4l-7.5,10.6c-2.4,3.2-5.5,5.8-10.4,5.8h-2.1c7.6,13.1,22,21.9,38.6,21.9s8.9-.6,13.1-1.9h.5c.8,0,1.4.6,1.6,1.3s0,1.5-.7,1.9c-13.7,9-30.6,11.6-46.4,7.1-15.8-4.4-28.9-15.4-35.9-30.2H11.9l26.1-59.1h15.1c10.5-13.6,26.5-21.7,43.7-22.1h1.2c24.2,0,44.4,14.5,52.7,35.7l-14.9,20.8h22.6c0-20.2-10.2-39-27-50.2s-38-13.4-56.7-5.7c25.3-15.8,57.8-14.5,81.7,3.4,24,17.8,34.5,48.5,26.7,77.3h0ZM99.1,104.8h-24.5v-.3c0-20.5,16.6-37.4,37.9-38.5h2.1c3.8,0,7.5.5,11.1,1.4l-26.7,37.4h0ZM152.1,85.2c1.1,3.7,1.8,7.5,2,11.3h-10.1l8-11.3h.1Z"/>
  <path class="st7" d="M74.8,44.7c22.9-9.4,49.2-3.9,66.5,13.8,17.3,17.7,22.1,44.2,12.1,66.8h29.8c7.9-28.8-2.7-59.5-26.7-77.3-24-17.8-56.4-19.2-81.7-3.4"/>
  <path class="st5" d="M150.7,79.9l-5.7,8c-5.5-5.7-13.1-8.8-21-8.8h-1.5l9.9-13.8c7.4,3,13.7,8.1,18.3,14.6ZM156.4,116.8c1.4-5.2,2.1-10.5,2.1-15.8v-.3h-6.2c1.4,5.3,1.4,10.8-.2,16.1h4.3,0Z"/>
  <path class="st8" d="M129,148.4c-17.6,11.5-40.1,12.3-58.5,2.2-4.5-5.7-7.9-12.3-9.9-19.3,6.4-.3,15.6.3,22.4,3.2,8.4,8.2,19.7,12.8,31.4,12.7,4.4,0,8.9-.6,13.1-1.9h.5c.8,0,1.4.6,1.6,1.3.2.7,0,1.5-.7,1.9h0ZM70.6,108.9c-.2-1.5-.2-3-.2-4.4,0-22.8,18.6-41.6,41.9-42.8-27,1.1-49.1,21.2-52.9,47.2h11.3-.1Z"/>
  <path class="st6" d="M75.9,125.4h-16.4c.3,2,.8,4,1.3,6,6.4-.3,15.5.3,22.3,3.2-2.8-2.7-5.2-5.8-7.1-9.2h0Z"/>
  <path class="st4" d="M46.8,125.4c2.1,4.3,4.7,8.3,7.7,12,1.6-2.5,3.8-4.5,6.3-6-.5-2-1-4-1.3-6,0,0-12.7,0-12.7,0Z"/>
  <path class="st2" d="M132.4,65.3c-5.7-2.3-11.7-3.5-17.8-3.5h-2.3c-27,1.1-49.1,21.2-52.9,47.1h-15.4l18.9-42.7h-9.8c10.5-13.6,26.5-21.7,43.7-22.1h1.2c24.2,0,44.4,14.5,52.7,35.7h0c-4.6-6.5-10.9-11.5-18.3-14.6h0ZM60.8,131.4c-2.5,1.5-4.7,3.6-6.3,6,4.5,5.4,10,9.9,16.2,13.3-4.5-5.7-7.9-12.3-9.9-19.3h0Z"/>
  <path class="st1" d="M153.3,108.4c0,2.8-.4,5.7-1.2,8.4h-27.7l-6.2,8.7h-28.7l33.1-46.3h1.5c7.9,0,15.5,3.2,21,8.8l-9.1,12.8h16.4c.7,2.5,1,5.1,1,7.7h0ZM38.1,66.3l-26.1,59.1h66.2c4.8,0,8-2.6,10.4-5.8l7.5-10.6h-52l18.9-42.7h-24.9Z"/>
</svg>