<?xml version="1.0" encoding="UTF-8"?>
<svg xmlns="http://www.w3.org/2000/svg" version="1.1" xmlns:cc="http://creativecommons.org/ns#" xmlns:dc="http://purl.org/dc/elements/1.1/" xmlns:rdf="http://www.w3.org/1999/02/22-rdf-syntax-ns#" viewBox="0 0 200 201.7">
  <!-- Generator: Adobe Illustrator 29.1.0, SVG Export Plug-In . SVG Version: 2.1.0 Build 142)  -->
  <defs>
    <style>
      .st0 {
        fill: #111;
      }

      .st1 {
        fill: #fff;
      }

      .st2 {
        fill: #a5acaf;
      }
    </style>
  </defs>
  <g id="Layer_2">
    <rect class="st0" width="200" height="201.7"/>
  </g>
  <g id="Layer_1">
    <g>
      <path class="st1" d="M100.2,23.5c-19.8,17.9-45.6,17.4-72.1,14-5.7,65,16.5,129.1,71.7,140.7,55.7-11.2,77.7-75.2,72.3-140.1-24.7,2.5-50.3,3.5-71.9-14.6"/>
      <path d="M100.1,29.8c-16.5,13.4-42.5,16.7-67.3,13.1-3.7,59.2,15.6,117.1,66.8,130.5,51.3-13.1,71.1-70.7,67.7-130-25.3,2.9-50.8-.1-67.2-13.6"/>
      <path class="st1" d="M92.4,100.4c-4.1,0-7.7.2-8.9.6,0,0-1,.2-1.3.5-1.1,1.3-.9,1.4-1.7,3.1.5-1.1-.3,1.4-.3,1.7-.2.7.9.6,1.2.3.4-.6.5-1.2,1.8-1.2,0,0,2.2-.4,2.2-.4,2.4,0,8.2,0,9.4.5.6.3,1.8-.3,2.3-.6,2.1-.8,2.3-1,4.5-2.3.4-.2,2.9-1.8,2.5-1.8-3-.3-7.5-.5-11.6-.4ZM111,100.8c-1.2,0-2.5.1-3.8.1-.2,0-.4.5-.8.8-1.4.9-3,1.7-5.9,3.1-1.2.6-3,1.4-4.3,1.6-.2,0,0,.8,0,.8.3.4,1.5,0,1.7,1,0,.1-.1,3,.2,3-.4,1-1-.4-.9,1.9,0,1,0,4.3,0,5.4-.1,1.2-1.5,1.9-.2,3,.9.7,1.6-.2,1.8-.3,1.9-1.1.7-.1,3,0,.7,0,1.4.6,1.6-1.3,0,0,.4,0,.4,0,.6.7,0,1.6-.6,1.9-2.1.7-1.1,0-2.8-.4,0,.2-.8.2-.9.5-.4,1-1.4.8-1.8.8-1,0-1.4-.2-1.8-1.5,0,.3-.7.4-.9.5-.4.2-.4.1-1.2,0-.7-.1-1-.5-1-.9,0-1-.3-1.7.6-1.6,0,.4.1.8.1,1.3,0,.3.3.5.7.5-.3,0,1.6.2,1.5-.7,0,0,.2-.7.2-1.1.1-.9-.7-.5-.6-1.7,0,0,.4-2.2.2-2.3-.1,0,.3-2.6.2-2.6,0,0,1-1.1.9-1.9-.2-1,.4-1.3-.3-2-.4-.4-.8-.5-1,0,0,1.9,0,2.4-.4,4.1-.2,1-.9,2.3-1.9,2.3-3.9,0-6.8.5-10.7-.6-.2,0-.6-.3-.6-.5,0-1.8-.6-3.2-.2-5,0-1.4-1.5-1-1.5-.4-.2,1-.3.9-.4,1.9,0,0,0,1.5,0,1.4-.2.6,0,1.5,0,2.1,0,.4-.2,1.4.5,3,.3.8,1.1.9,1.7,1.7.4.6.4,1.6.3,2.8,0,0,1.1-.2,1.6.4,0,0,.1.8,0,.8-.6.1-1.1-.4-1.5,0-.3.2-.3,1.1,0,1.3,1.5,1.2,1.2,4.3,1.8,5.7.2.4.5.5.7,0,.6-2-.2-2,0-2.9.2-.9-.3-1.4.4-2,.7.1.8,1.9.7,2.7-.3,1.9-.6,2.1,0,4.4.5,2,3.3,4.7,3,4.3.1.2,1,1.2,1.2,1.4.9,1,1.2,2,2.7,2.3,3.6.8,4.1-1.3,6.4-.7.8.2,1.8,1.1,2.5,1.1.8,0,1.2,0,1.7,0,.2,0,1.1-.3,1.3-.4.4-.2,1.3-.5,1.6-.9.4-.5.6-.9,1.2-1.2.2,0,.2-.4.4-.6,1.2-1.1,2.2-2.4,3-3.8.3-.4.9-.9,1-1.2,0-.3-.4-1.5-.3-3,0-1.3,0-2.7.9-3.1-.1.9.6,2.1.9,4.6,1.4-1.2,1.6-2,2-3.1.4-1.2.6-2.6.9-3.8.3-1.6.5-3.3.5-4.7-.5.2-1.2.4-1.5.6-.1,0-.2-.4,0-.6.6-.5,1-1.1,1.3-1.5.1,0,.5-.8.5-.8.5-2.3.3-3.4.2-6.7,0-.5,0-2.4,0-3.4,0-.1-.3-1.7-.2-1.8-.4-1.5-.8-2.4-2.4-3.3-1.2-.7-2.4-.8-3.6-.9h0ZM113.7,132.4c0,.2-.2.2-.3.3,0,0,0-.1,0-.2-.3.3-.5.6-.8.8,0,0-.2.3-.3.4-.3.2-.6.5-.9.7-.3.2-.6.8-.3,1.1.3.2.7.5,1.1,0,.2-.3.5-.3.7-.5.6-.5,1-1.2,1.1-2,0-.3-.2-.4-.4-.6ZM84.9,133.4c.2,1.1-.4,2,0,3.1.2.4.3,1.1.6,1.2.6.3,1-.7,1.6-1-.3-.5-.5-1.1-.9-1.7-.2-.4-1-.7-1.3-1.6Z"/>
      <path class="st2" d="M95.6,70.3c-6.7,0-13.7,1.7-15.8,8.1,0,0-3.5,13-3.3,15-1.9.6-5.7,2.4-4.5,12.7,0,0,4.1,18.6,5.9,22.2h1.2c0,0,1.1-1.1.9,2.6,0,0-.6,2.2,1.3,3.4,0,0,.8-3.1,1.3,1.6,0,4.6,1.5,9.3,8.2,14.1,0,0,3.1-2,3.5-2.2,0,0-4.6-1.8-7-4.4,0,0,.7,3.2-2-.4,0,0-1.3-1.2-2-9.7,0-1.2,0-1.4-1-2.6-3.7-7.5-6.6-24.8.3-31.2,7.3-.5,24.6-.8,31.1.3,2.7.6,4,1.5,4.6,6.1,1.3,5.8.4,17.4-2.6,26.7,0,0-.4,2-1.5,3-.9.5-4,2.7-5.5,5.9-.6,1.1-1.8,2.3-3.9,3.2-2.1,1.2-9.8,3.2-6.7,6.6,0,0-.9.4-2.4.8,0,0,.4,1.9,1.3,1.6,0,0,1.5-.6,2.1-1.6,4.5.6,10.3-.5,13.8-3.7,1.4-.9,4-2.2,4.3-4.6,0,0,1.5-2.8-1-7.5.9-1.6,2.4-4.8,2.2-7.1,0-.1,7.9-9.1,8.9-21.4,0,0-1.1-7.3-.8-.3,0,0,0,1.2-.8,4.7,0,0-1.5,5.4-.7.2,0,0,.3-8.2-.7-15.5,0,0-.2-2.7,1.2,1.2.2.7-.2-.9-.2-.9,0,0,.7,5,.9,1.5-.9-4.2-1.1-5.2-2.4-5.6-.8-6.1-3-12-3-12l-.6.7c2.1,5.8,3.4,24.9,2.9,30.4,0,0-1.3,10.8-2.5,10.1,0,0,1.8-18.3,1-25.1-.4-8.6-1.6-10.7-2.1-14.1,0,0-2.7-7.1.1-3.3l.3-.2c-2.4-6.2-6.1-9.2-17.1-9.4l1.5,26.9h-9.9s1.1-26.9,1.1-26.9"/>
      <path d="M114.3,139.8c-.2,0-.3,0-.5.3-.3.4-.4,1.2-.8,1.7-1.1,1.1-1.8,1.3-2.5,2-.7.7-.9,1.2-.3,2.2,0,0,.2,1.1.9,1.7.9.7,2.2,0,3.5-1.7.3-.4.2-.9.3-1.3.2-1.1,0-2.2.1-3.4.1-.8-.4-1.5-.9-1.5ZM108.1,146c-.3,0-.7,0-.9.3-.8.7-1.2.8-1.9,1.4-.5.4-.9.3-1.4.4-.4.2-1,.5-1.2,1-.2.5.7,1.3,1,1.5,1.6.9,5.7-.2,5.8-3,0,0,0-.2,0,0,.2-.8,0-1.1-.5-1.4-.2-.2-.5-.3-.8-.3h0Z"/>
      <path class="st1" d="M108,147.4c-1.4.5-1.8,1.7-3.9,2-.2,0-.5.7.3.8.8.1,1.7,0,2.4-.5-.2,0,1-.5,1.3-.7.2-.3.3-.6.3-.7,0-.2,0-.8-.4-.9h0ZM114,143.5c-1.7,1.2-3.8,2.2-1.8,3.2.5.2,1.7-.7,2-1.7,0,0-.1-1.6-.2-1.5h0ZM78.6,133.6l-.9.5c-3.7,3.3-17.1,8.6-17.1,8.6,5.6,2.2,16.5.8,21-2.5.3-2.5-.5-3.2-.5-3.2-.7-.4-2.5-3.3-2.5-3.3ZM119.8,131.9c-.6,1.8-1.5,3.6-2.1,4.4,0,0,.8,1.4,1,2.8,4,3.1,8.4,5.9,19.5,3.2-2-.6-14.5-6.8-17.7-9.9l-.8-.5h0ZM107,125.8c.1,0,.2.1.2.3s-.1.3-.2.3-.2-.1-.2-.3.1-.3.2-.3ZM111.9,132.3c0,0,0,0,0,0,0,0,0,0,0,0ZM127.2,87.7l-2.5,3.3.3,1.4c1.8,0,2.3,3.8,2.4,7.2.6-1,3.6-6.6,4-8.5-.7-.5-3.7-3.1-4.2-3.4ZM71.6,87l-3.6,3.6s3.2,5,3.6,5.2c.7-1.2,1.8-2.9,3.2-3l.3-1.8-3.4-3.9ZM58.7,72.7c-.2,1.1-1.2,1.9-2.4,1.8-.3,0-.6,0-.9-.2-13.1,11.5,2.6,23.4,10.9,16,2.9-2.5,7.4-6.2,8.3-8,1.4-1.3-.2-2.8-2-.9-.9,1.3-2.3,2.7-4.8,4.7l1-2.3s-6.3-8.3-8.9-11.1c0,0-1.3,0-1.3,0ZM56.6,69.9c-1.3,0-2.3.9-2.4,2.2,0,.9.5,1.8,1.3,2.2,0,0,0,0,0,0l2.6-1.5h.6c0-.1,0-.2,0-.4,0-1.3-.9-2.3-2.2-2.4ZM142.6,73.5c-.3.1-.6.2-.9.3-1.1,0-2.1,0-2.4-1h-1.3c-2.5,3-8.5,11.4-8.5,11.4l1,2.3c-2.5-2-4-3.3-4.9-4.6-1.8-1.9-3.4-.3-2,.9,1,1.8,5.6,5.3,8.6,7.7,8.5,7.2,23.9-5.9,10.4-17ZM141.3,69.2c-1.3.1-2.2,2-2.1,3.2,0,.1,0,.3,0,.4h.6s2.7.7,2.7.7c0,0,0,0,0,0,.8-.4,1.3-1.3,1.2-2.2,0-1.3-1.2-2.2-2.5-2.1ZM97.7,53h.2c2,0,3,.8,3,2.6s-1,2.6-3.2,2.6c0,0,0-5.3,0-5.3ZM70.8,52.9h0c0,1.3.4,2.3.6,3l.4,1.5h-2l.4-1.5c.2-.7.5-1.7.6-3ZM130.6,52.4h.8c1,0,1.4.5,1.4,1.4s-.5,1.3-1.4,1.3h-.8v-2.7ZM51.9,52.4h.8c1,0,1.4.5,1.4,1.4s-.5,1.3-1.4,1.3h-.8v-2.7ZM125.8,48.8v13.6h4.8v-4.5l2.4,4.5h5.5l-3.6-5.5c1.6-.2,2.6-1.5,2.6-3.5,0-2.9-1.9-4.6-5.5-4.6h-6.2,0ZM111.1,48.8v13.6h9.2v-3.7h-4.4v-1.4h3.9v-3.5h-3.9v-1.3h4.3v-3.7s-9.1,0-9.1,0ZM93.5,48.8v13.6h3.6c2.7,0,4.8-.1,6.6-1.4,1.8-1.2,2.8-3.2,2.8-5.4s-1.3-4.8-3.7-6c-1.3-.6-3-.9-5.4-.9h-4ZM82.7,48.8v13.6h5v-13.6h-5ZM47.1,48.8v13.6h4.8v-4.5l2.4,4.5h5.5l-3.6-5.5c1.6-.2,2.6-1.5,2.6-3.5,0-2.9-1.9-4.6-5.5-4.6,0,0-6.2,0-6.2,0ZM68.2,48.7l-4.9,13.6h5.3l.4-1.7h3.7l.4,1.7h5.3l-4.8-13.6s-5.4,0-5.4,0ZM148.9,48.5c-3.5,0-5.7,2.1-5.7,5s1.2,3.3,3.5,3.8c1.1.2,1.8.3,1.8,1s-.4.7-1.1.7c-1,0-2.1-.5-3.4-1.4l-1.6,3.8c1.7,1,3.6,1.5,5.3,1.5,3.6,0,5.9-2.2,5.9-5.1s-1.2-3.3-3-3.7c-1.6-.4-2.5-.5-2.5-1.1s.4-.6,1.1-.6,1.8.4,2.8,1.1l1.5-3.6c-1.6-.8-3-1.2-4.6-1.2Z"/>
      <path d="M140.8,70.1c-1.8,1-.5,2.9.8,2.6,1-.3.2-.4.2-.4-1.3.2-2.2-1.1-.7-1.8.4-.2-.4-.3-.4-.3ZM57.2,70.8s-.8.1-.4.3c1.2.5.3,2-.6,1.8,0,0-.8.2.2.4.9.2,2.1-1.8.7-2.6ZM141.6,75.5c-.5,0-.8.5-.6,1.2.4,1.2-1.1,3.4-1.8,2.9-1-.6-1.9,1-1.6,1.6.6,1-.6,2.8-1.5,2.3-.5-.3-1.6.8-1.2,1.5.6,1.2-.7,2.2-1.9,1.9-1.5-.4-.6,1.2-.6,1.2,7.3,5.8,17.7-7,10.3-11.9-.4-.5-.9-.7-1.2-.7ZM57.1,76.1c-.4,0-.9.3-1.4,1-7.2,5.2,3.3,16.7,10.4,10.7,0,0,.8-1.9-.6-1.2-1.3.7-2.5-.7-1.9-1.9.4-.8-.7-1.7-1.3-1.4-1,.5-2.2-.9-1.6-2.3.2-.5-.8-1.9-1.6-1.5-1.1.4-2.7-1.3-1.8-2.1.7-.6.5-1.3-.2-1.2ZM108.5,105.2c-.6,0-1.1,0-1.6,0-.6,0-2.5.1-2.5.1-.6,1.7-1.6.5-2.1,1.2-.2.2-.2.7,0,.9.3.4.9.4,1.3.4,1.7,0,2.6-.1,4.2-.3.4,0,1.9-1.1,2.3-.9.8.5,1.8,1.2,1.7,1.2,0,0,.7.5.6.5.1,0,.9.3.9.2s.2-.6.2-.7c.2.2-.2-.6,0-.4-.3-1.1-.1-.4-.9-.9-.4-.3-.8-1.4-1-1.2.2-.2-1.4-.2-3.1-.2ZM102.3,108.7c-.3,0-1,.3-.8,1.6,0-.2.4,0,.4-.1,0-.1,0-.6,0-1,.4-.3.4-.4.3-.5ZM107.1,109.2c-.4,0-.8,0-1.2.2-.5.2-1.1.1-1.6.2,0,0-.3,0-.3.2,0,0,.1.1,0,.2.3,0,.5-.2.9,0,.4.3.7.7,1.3.6,0,0,.2-.2.2-.1,1.1,0,1.9.2,2.9.3.2,0,2.8.2,2.2.5.4-.2.8-.2,1.2-.4.3-.1.8-.3.6-.6-.1-.1-.5,0-.8-.2,0,0,0-.2-.2-.3-.5-.4-1.3-.3-1.8-.2-1.3,0-2.3-.4-3.5-.4ZM109.3,110.8c0,0,0,0,.3,0-.1,0-.2,0-.3,0ZM103,111.1c0,.3-.1.8.1.9.6.2,1.2-.5,1.8-.1,0,0,0-.1,0-.2,0-.1-.2,0-.2-.3-.4-.1-.8.3-1.2,0-.2,0-.4-.3-.6-.4ZM107.9,112.5c-.2,0-.5.2-.7.2-.4,0-.9-.1-1.2,0-.3,0-.5.5-.3.6.3.2.9.2,1.4-.1.5-.4,1.2-.2,1.8,0,.2,0,.3.1.5.1.6,0,1.2.1,1.8.1-.1,0-.2-.2-.2-.2-1,0-1.9-.3-2.8-.6,0,0-.2,0-.2,0h0ZM101.3,112.9c-.1,0-.3.5-.4.9.3,1.4,0,1.2-.1,2.4-.1,1.1.8,1.4.8.1,0-2.7-.1-3.5-.3-3.5ZM102.2,118.3c-.2,0-.3.1-.3.3,0,.2.1.3.3.3.2,0,.3-.1.3-.3,0-.2-.1-.3-.3-.3ZM114.3,120.6c-.1.3-.3.3-.5.4-.2.1-.4.4-.3.5,0,0,.2.2.4.2s.3-.2.3-.3c0-.3,0-.6,0-.8ZM103.4,122.6c0,0-.2,0-.3,0-.2.1-.2.4,0,.4.6,0,1.1.4,1.6.6.2,0,.3.2.5.3h0c0,.3.4.3.5.2,0-.2-.2-.2-.4-.3-.4-.2-.5-.8-1-1-.3,0-.6-.2-.9-.2ZM93.3,122.8c-.3,0-.7.2-1.3.9-.5.7,0,.8-1.3,2-.4.4-1,.6-1.4,1.1,0,0,0,.4,0,.6.8.3,2.3-.4,3.9-.4,1,0,1.9.3,2.8.5,1.7.3,3.3,0,5.3-.1,2.4-.1,2.9.5,3.7.4,1.5-.2,2.4-.9,1.8-.7.2,0-1.3.1-1.2,0-.4,0-.7.2-1,.2-.8,0-1.7,0-2.5-.3-1.3-.4-2.7.2-4,.2-2.2,0-4.6-.8-7.3-.5-.3,0,2.2-2,2-1.7.6-.8.8-1.8,1-1.8,0,0-.2-.2-.4-.2h0ZM93.8,123s0,0,0,0c0,0,0,0,0,0ZM102.2,124.1s0,0,0,0c0,0,0,.1,0,.1,0,0,0,0,.1,0,0,0,0,0,0,0s0,0,0,0ZM106.3,124.5c0,.2-.2.2-.3.3-.2.4.3.7.5.5.2-.2.1-.7-.2-.8ZM93.2,130.5c-.4,0-.6.1-.6.3.4,1.2,2,1,2.1,1,3.4.1,3.9-.4,5.6,0,.6.1,2.8.3,2.9-.6,0-.7-1.3,0-1.3-.2-1.6.6-5.1-.4-7-.2-.7-.1-1.3-.2-1.7-.1h0Z"/>
    </g>
  </g>
</svg>