<?xml version="1.0" encoding="UTF-8"?>
<svg id="Layer_1" xmlns="http://www.w3.org/2000/svg" version="1.1" xmlns:cc="http://creativecommons.org/ns#" xmlns:dc="http://purl.org/dc/elements/1.1/" xmlns:rdf="http://www.w3.org/1999/02/22-rdf-syntax-ns#" viewBox="0 0 200 200">
  <!-- Generator: Adobe Illustrator 29.1.0, SVG Export Plug-In . SVG Version: 2.1.0 Build 142)  -->
  <defs>
    <style>
      .st0 {
        fill: #fc4c02;
      }

      .st1 {
        fill: #fff;
      }

      .st2 {
        fill: #00939a;
      }

      .st3 {
        fill: #008e97;
      }

      .st4 {
        fill: #005778;
      }
    </style>
  </defs>
  <g id="Layer_2">
    <rect id="WB" class="st2" width="200" height="200"/>
  </g>
  <g>
    <path class="st1" d="M187.9,64.1c0-.7-.2-1.1-.2-1.1h0c-.8-2.9-3.7-4.6-7.7-4.6s-.9,0-1.3,0c-3,.3-8.5,2.1-10.1,2.7-5-1.3-9.8-1.9-14.4-1.9-2.4,0-4.8.2-7.2.5h0s-1,.1-1,.1c0,0-.4-1.2.6-4.2.5-1.5,1.2-2.9,1.2-2.9,0,0-11,5.7-12.3,3.9-1.4-1.8,4.8-16.3,4.8-16.3,0,0-10.6,11.8-12.7,11.2-.8-.2-.9-4.5-.9-9,0-6.2.2-13.3.2-13.3,0,0-8.7,21.7-10.8,21.6-1.8,0-4.5-11.7-4.5-11.7,0,0-1.7,10-4.7,11.2-3,1.2-10.8-17.4-10.8-17.4,0,0-.4,18.7-2.5,19.1-2.2.4-9.1-6.6-9.1-6.6,0,0,3.2,9.3,2.1,10.5-.7.7-7.3-3.4-14.2-8.3-4-2.9-7.3-5.3-7.3-5.3,0,0,3.9,6.5,7,13.2,2.1,4.6,3.4,9.1,2.9,10-1.4,2.1-11.6-.9-11.6-.9,0,0,5.8,5.6,5.4,7-.2.7-6,.2-11.8-.6-6.2-.9-12.6-2-12.6-2,0,0,20.8,12.1,20.1,14.2-.5,1.7-13.4.3-13.4.3,0,0,11.2,5.1,11.2,6.8,0,1.7-22,7.3-22,7.3,0,0,19.9,4.2,20.3,6.4.4,2.2-7.8,9.3-7.8,9.3,0,0,9.6.9,10,2.1.5,1.3-2.3,6.2-4.8,7-3,1-5.7,1.6-9.1,1.6s-.9,0-1.4,0c.2-.2.3-.4.5-.6.8-1.2,1.4-2.5,1.8-3.7h0s0,0,0,0c.2-.7.3-1.3.3-2h0s0,0,0,0c0-.7-.3-1.4-.7-1.8-.8-.7-1.6-.6-2.1-.4l-1.9.9c-.1,0-.3.1-.5.2-.4.1-1.1.2-2.7.2s-3.3-.1-5-.2c0,0-1.1,0-1.3,0-2.1,0-3.4.7-4.3,1.3l-.4-.2c-4.2-2.2-9.1-3.1-12.2-3.7-.2,0-.5,0-.7-.1-3.4-.7-5.2-2.7-5.4-2.8-.3-.3-.7-.7-1.1-1,0,0-.9-.5-2.2-.1-.8.3-1.2,1-1.2,1-.7,1.2,0,3,.9,5,1,2.3,4.3,8,12.1,11.6,2.6,1.2,5.9,2,10,2.5,3.1.4,5.7.4,6.7.4,1,.5,4.1,1.9,8.6,3.3,5,1.6,12.8,3.4,21.8,3.5,0,0,3.2,0,4.9,0,.2.7-1.1,3.3-2.6,6.3-1.8,3.6-4,7.8-4,7.8,0,0,4.1-3.6,7.9-6.3,3.8-2.7,8.1-4.9,9.2-3.6,1.9,2.4-.1,12.1-.1,12.1,0,0,7.8-6.9,9.6-5.9.8.4.9,5.6.9,11,0,6.4-.2,13.2-.2,13.2,0,0,10.7-21.6,12.9-21,2.2.6,4.7,10.5,4.7,10.5,0,0,4.1-12,6.5-11.7,1-.1,3.1,3.8,5,7.8,2.1,4.4,3.9,8.6,3.9,8.6,0,0,0-4.5.4-9,.3-4.1.8-8.1,1.7-8.4,1.9-.5,7.4,6.9,7.4,6.9,0,0-2-10.3-.4-11.2,1.5-.9,19.9,15,19.9,15,0,0-12.1-22.4-10.6-24.1,1.5-1.7,14.4,1.8,14.4,1.8,0,0-1.9-2.3-3.6-4.8-1.7-2.7-3.2-5.7-2.5-6.4.6-.7,7.3,0,14.3,1.4,8,1.6,13.2,2.7,13.2,2.7,0,0-4.7-2.6-11.7-6.7-6-3.6-11.3-7.7-11.1-8.4.5-1.4,14.9-2.8,14.9-2.8,0,0-2.4-1.4-5-3-2.8-1.7-5.8-3.9-5.8-4.7s3.6-2.4,8.4-3.9c5.7-1.8,11-2.9,11-2.9,0,0-19.6-1.6-20.9-4.4-.8-1.9.7-4.4,1.8-6,1.1-1.6,2.7-3.1,2.7-3.1,5.4-5,12.2-9.5,14.4-10.9.2,0,.3-.2.5-.3,0,0,5-3.7,5.6-4.2.5-.4,1.6-1.6,1.9-3.1,0,0,0-.4,0-1.1"/>
    <path class="st0" d="M125.4,36.7c-1.8,5.3-6.9,17.1-9.5,16.6-2.1-.2-3.8-5.8-4.2-8-.4,2-1.5,6.8-4.8,7.3-3.2.5-7.6-7.3-9.4-12.9-.3,10.1-2,14.6-3.3,14.7-2.7,0-4.8-2.6-6.9-4.6,1.1,1.7,2.6,6.9.6,8.5-2,1.6-15.2-7.8-18.1-10.7,3.3,4.8,9.1,16.2,7.4,19-1.7,2.9-7.7,1.6-8.8,1.1.7.6,4.8,5.4,1.3,6.1-4.8,1-17.9-2-18.6-2.2,3.1,1.1,16.9,9.3,16,12.4-.8,2.7-6.3,1.8-8.5,1.8,2,.9,6.6,2.8,6.1,5.4-.6,2.6-13.7,5.6-17.8,6.5,4.6,1,16.2,2.8,16.4,6.4.2,3.6-7.1,8.5-7.1,8.5,0,0,6.5.3,7.9,1.1,2,1.1.5,5.2-1.3,7.4,2.5-1.1,4.9-2.6,7.4-4.5-2.1-5.1-3.2-10.8-3.2-16.6,0-24.4,19.8-44.3,44.3-44.3s17.3,2.7,24.3,7.2c3.1-1.1,6.1-2,9-2.5-.2-1.2,0-2.4.7-4-2.5,2.1-9.1,4-10.9,2.2-1.9-1.8,1.3-9.2,2.9-12.3-2.7,3.2-7.4,8.8-10.2,7.7-2.8-1.1-.9-14.6-1.2-17.2h0ZM159.5,89.7c-1.5,1.4-3,2.9-4.7,4.4.2,1.8.4,3.7.4,5.7,0,24.4-19.8,44.3-44.3,44.3s-18.6-3.1-25.9-8.4c-3.3.7-6.6,1-10,1.2-.5,3-2.7,6.1-4.1,9,8.1-7.5,12.5-7.2,14.1-6.3,1.6.9,1.2,8,.7,10.1,1.3-1.7,7.1-5.3,8.9-4.5,1.7.8.9,16.8,1,20.1,1.9-4.2,8.4-17.3,11.1-17.3s4.6,4.9,5,7.2c.6-2.2,3.7-8.1,6.5-8.4,2.8-.3,5.8,8.3,7.6,12.6.1-3.6-.1-12.2,2.1-13.1,2.2-.9,4.8,2.1,6.3,3.9-.4-2.5-.8-7.5.8-8.5,1.6-1,12.5,7.9,16.5,11.9-1-2.5-9.7-15.8-8.1-19.4,1.4-3.3,10.3-.8,12-.3-2.3-1.8-4.9-8-3.9-10,1-2,15.7.9,21.9,2.7-5-1.9-18.5-10.2-17.6-12.7,1-2.5,9.7-3.4,12.3-3.4-.8-.4-6.3-3.4-8.2-5.7-1.9-2.2,8.1-6.4,13.9-7.2-5.1-.4-14.8-1.2-14.9-4.9,0-1.2.2-2.2.5-3h0Z"/>
    <path class="st3" d="M180.2,60c-.4,0-.8,0-1.2,0-3.4.3-10.1,2.8-10.1,2.8-12.3-3.2-27-3.6-45,7.4-3.4,2-6.4,4.2-9.3,6.3-2.8,2.2-5.4,4.3-7.9,6.5-1.1.9-2.4,2.2-3.6,3.3-5.8,1.9-8.4.1-16.4,1.2-6.3.8-8.8,3-10.2,4.7-.2.5-.2.9.2,1.2.8.6,1.9.3,4.2.1,2.2-.2,5.6-.1,7.8,1.3,1.4.9,2.1,3,2.3,4.2-1.7,1.8-3.3,3.5-4.9,5.1-10.1,10-16.9,16-24.6,19-16.6,6.5-25.9-1.1-29.6-3.4h0c-4.5-2.9-10.5-3.9-13.8-4.5-3.2-.6-5-2.2-5.7-2.7-.7-.6-1.2-1.6-2-1.3-.2,0-.4.1-.5.2.1-.1.3-.2.5-.2.1,1.4,4.8,13.1,19.7,15.2,4.3.6,5.6.4,6.4.4-2.5-2.2-4.6-5.3-4.8-5.5.6.5,1.1,1,1.7,1.4,4.5,4.7,9.5,6.7,13.8,7.4.3,0,4.5.3,4.5.3,4.9-.1,11.5-1.5,17.6-3.3,17.9-5.2,35.2-20.7,35.2-20.7,0,0-1,4.2-1.3,5.7-.2,1.2-1.1,5.1-2.8,9.2,0,0-.5,1.2-1.2,2.7-1.1,2.2-2.6,5.1-2.6,6.2s0,.1,0,.2c0,0,0,.1,0,.3,1.3-.7,3.2-2,5.2-3.7,3.3-2.7,7.4-6.8,12.2-12.7,10.7-13.2,12.4-22.3,20-29.4,3.2-3,11.6-7.6,15.9-9.1,0,0,0,0,.1,0h0c7.3-4.2,14.4-7.4,15.5-7.8,4.2-1.7,19.2-6.7,20.8-4.2h0c-.6-2.5-3.3-3.7-6.2-3.7h0ZM165.5,64.7s0,0,0,0c0,.2-.7.6-3,1.6-1.7.7-3.3,1.1-5.8,1.8-1.2.4-2.8.9-2.8.9,0,0,0,0,0,0-2.9,1-7.7,2.9-9.2,5.2,0-.1,1-2.1,1.8-3.3.7-1,2.2-3,4.4-3.9,3.1-1.4,5.1-1.1,6.5-1.1s4.8-.1,6.1-.4c1.2-.3,1.8-.6,2-.6h0ZM146.8,99.1c-2.2,2-4.4,3.9-6.6,5.7-1.7,1.4-3.6,2.9-5.7,4.5-.7,8.3-2.3,12.3-2.3,13.1,0,.4.1.8.5,1,2-1.4,5.7-5.1,8.6-10.5,2.4-4.5,4.3-9.9,5.6-13.8ZM47.7,116.9c-.6,0-.9.7-2.4,1.2-1.8.5-5.5.3-8.9,0-2.5-.2-3.8.8-4.3,1.3,1.5.9,6.5,3.8,10.8,4.6h0c-.1-.2,6.7-4.8,4.9-7.1,0,0,0,0,0,0Z"/>
    <path class="st4" d="M184.7,64.6c-1.2,0-3.5.6-7,1.8,0,0,0,0,0,0-.5.2-1,.3-1.5.5-16.8,5.9-33.1,24.4-54.1,40.4l.2-.2c6.3-9.4,8.4-16.3,14.7-22.2,3.3-3.1,8.2-6.3,13.2-9.2,0,0,0,0,0,0-4.3,1.5-12.7,6.1-15.9,9.1-7.5,7.1-9.3,16.1-20,29.4-4.8,5.9-8.9,10-12.2,12.7-2.1,1.8-3.9,3-5.3,3.7,0,0,.2.6.7.7.8.2,3.7-1.3,7.4-4.4,0,0,7.2-3.4,10.6-5.3,4-2.2,10.7-6.3,12.1-7.3,0,0,0,0,0,0,2.6-1.7,7.2-5.1,7.2-5.1,2.1-1.6,4-3.1,5.7-4.5,2.2-1.8,4.4-3.7,6.6-5.7-1.3,3.9-3.2,9.3-5.6,13.8-2.8,5.4-6.6,9.1-8.6,10.5.6.4,1.6-.2,1.7-.3,1.6-.9,6.2-4.8,9.3-11,4.4-8.9,6.2-15.7,6.3-15.8.4-.3,14.5-13.7,14.7-13.8,5.3-4.9,12.2-9.5,14.6-11.1,2.6-1.6,4.1-2.8,5.1-3.6.9-.8,1.2-1.2,1.2-1.2h0c.1-.3.5-1,.4-1.4,0-.4-.4-.6-1.2-.6ZM165.5,64.7c-.2,0-.8.3-2,.6-1.4.3-4.7.4-6.1.4-1.4,0-3.4-.2-6.5,1.1-2.2,1-3.7,2.9-4.4,3.9.2-.3.4-.5.6-.7,0,0,2.3-2.6,6.9-2.3-.2.2-.3.6-.1.9,0,0,0,0,0,0,0,0,0,0,0,.1h0s1.7-.5,2.8-.8c2.5-.6,4.1-1.1,5.8-1.8,2.3-1,3.1-1.4,3-1.6,0,0,0,0,0,0ZM106.7,83c-1.7.5-2.9.8-4.1,1.1-2.7.5-4.7.4-10.4,1.1-8.9,1.2-13.1,4-14.2,5-.4.3-.6.6-1,1.1-.3.4-.4.8-.5.8,1.4-1.7,3.9-3.9,10.2-4.7,8-1.1,10.6.8,16.4-1.2,1.2-1.2,2.5-2.4,3.6-3.3ZM104.4,106.4s-17.3,15.5-35.2,20.7c-6.1,1.8-12.7,3.2-17.6,3.3.9,0,12.2.5,24.7-4.2,10.2-3.7,20.2-9.8,26.7-14.1.4-1.5,1.3-5.7,1.3-5.7ZM10.3,111.2c-.1,0-.3,0-.4.2h0s0,0-.1,0c-.4.3-.3,1.1.8,3.7,1.6,3.4,5.1,7.9,11.4,10.8,5.7,2.6,14.4,2.8,16.1,2.8h.3s14.7,7.6,33.4,6.7c0,0,11.1.2,24.7-5.1,0,0,0-.1,0-.2,0-1.2,1.5-4,2.6-6.2h0c.7-1.5,1.2-2.7,1.2-2.7-5.9,3.1-15.2,7.1-23.7,9.1-16.7,3.9-27.3.5-29.1,0h-.2c0,0,0,0,0,0h0s0,0,0,0c-4.2-.7-9.3-2.7-13.8-7.4-.6-.4-1.1-.9-1.7-1.4.2.2,2.2,3.3,4.7,5.5-.8,0-2.2.3-6.4-.4-14.9-2.1-19.6-13.8-19.7-15.2h0ZM47.8,116.9c0,0-.1,0-.2,0,1.9,2.3-5,6.9-4.9,7.1h0c.2,0,.8.1,1.3.2.5,0,1.1,0,1.3,0,0,0,.8-.9,1.3-1.6.8-1.2,1.3-2.3,1.5-3.2.1-.6.2-1.1.2-1.6,0-.7-.4-.8-.6-.8h0Z"/>
  </g>
</svg>