<?xml version="1.0" encoding="UTF-8"?>
<svg id="Layer_1" xmlns="http://www.w3.org/2000/svg" version="1.1" xmlns:cc="http://creativecommons.org/ns#" xmlns:dc="http://purl.org/dc/elements/1.1/" xmlns:rdf="http://www.w3.org/1999/02/22-rdf-syntax-ns#" viewBox="0 0 201 201">
  <!-- Generator: Adobe Illustrator 29.1.0, SVG Export Plug-In . SVG Version: 2.1.0 Build 142)  -->
  <defs>
    <style>
      .st0 {
        fill: #fff;
      }

      .st1 {
        fill: #e9bf9b;
      }

      .st2 {
        fill: #ffc62f;
      }

      .st3 {
        fill: #522785;
      }

      .st4 {
        fill: #4f2683;
        stroke: #000;
        stroke-miterlimit: 5.2;
        stroke-width: .2px;
      }
    </style>
  </defs>
  <rect class="st3" y="-.5" width="201" height="201.5"/>
  <g>
    <path class="st0" d="M163,126.3c-.4-2.2-2.3-4-3.8-4.4h-.4c.4-1.4.6-2.6.7-3.4.9-.4,1.9-.8,2.3-1l1.5-.6-.3-1.6c-.6-3.3-2.3-6-3.3-7.3.4-1.1.6-1.8.6-2.5,0-1.3-1-2.5-3-3.8-.2,0-.3-.4-.3-1.8s0-1.3-.4-2.6c1.1-.7,2.4-1.9,3.1-3.8.7-1.9.9-3.5,1-4.5v-1.8l-.2-2.4s-1.2,1-1.9,1.5c-.2,0-.3.2-.4.3,0,0-.2,0-.3.2-.5.3-1.1.5-1.3.7-.5.3-1.3.6-2.2.8-1.3-6.6-6-18.2-17.3-28.4-13.6-12.3-36.1-14.5-37.1-14.6l-2.1-.2s0,3.2-.2,4.1h0c0,.5-.2,1-.3,1.3-2.6-1.6-4.3-3.2-5.2-4.8-1.6-2.8-2.1-5.4-2.6-7.9-.4-1.8-.7-3.5-1.4-5.1-1.8-4.3-4.4-7.9-7.8-10.8-.6-.5-1.2-1.1-2.2-1.1s-.9,0-1.5.6c-.4.3-1.6,1.6-.3,3.6,0,0,2.2,4.1,3.1,9.9.3,1.9.3,4.3.4,6.8,0,5.1.3,10.8,2.3,15.1.9,1.9,2,3.6,3.2,5.1,0,0,.6.6.7.7.2.2.4.5.6.7-2.2-.2-4.1-.8-5.9-1.8h0c-5.7-2.9-10.2-9.7-11-16.9v-.9c-.3-1.3-.3-2.6-.3-3.9v-2.4c0-2-.3-4.1-.7-6.1,0-.8-.3-1.7-.5-2.5h0c0-.7-.3-1.3-.4-1.7,0-.4-.2-.7-.3-1.1-.3-.9-.7-1.7-1.2-2.5-.6-1-1.3-1.9-1.9-2.6-.5-.6-1-1-1.5-1.4h0c-.2-.2-.8-.5-1.6-.5s-.8,0-1.1.3h-.2c-.9.7-1.4,2.1-.6,3.7h0q0,.2,0,.4c0,.1,0,.2,0,.4,0,.1,0,.3,0,.5.3,1.4.5,4.7-.8,11.4v.3c-.2,1.2-.3,2.1-.5,2.9-.5,3.2-1.1,7-1.2,11.1v.8c0,2.7.4,26.1,23.5,34.3h0c-1.1,6.7-1.1,10.9-1.1,12.9-5,2-10,4.3-14.7,7-7.4,4-14.2,9.1-20.3,14.9-1.2,1.2-2.4,2.4-3.6,3.7-.3.3-.6.6-.8.9h0c-3,3.3-5.8,6.8-8.1,10.2,0,.1-.3.5-.4.7-.3.6-.6,1.8,0,2.4.3.4,1,.7,2.3.2,0,0,.3-.1.4-.2.2-.1.6-.4.7-.5,7.7-5.9,25.2-9.1,30.4-9.4,4.3-.3,8.6-.9,10.2-1.1.9.4,2.5,1.1,4.4,1.5.8.2,1.7.3,2.6.3s1.5,0,2.2-.2c1.3,4.1,3.9,7,5.3,8.3,0,2.5.3,7.2,2.2,10.2,1.5,2.5,3.7,4.4,4.9,5.4,0,1.2,0,3.1.7,4.7.5,1.5,1.4,2.8,2.1,3.6-.3.7-.5,1.6-.6,2.7,0,1.2.2,2.1.5,2.8-.3.5-.6,1.2-.7,1.8,0,.9,0,1.8.2,2.5-.2.4-.4,1-.5,1.6-.2.8,0,1.6,0,2.1-.6,1.8-1.3,5.3,1,7.2.7.6,1.5.9,2.4.9,1.7,0,3.1-1.2,3.8-1.9,1-.5,2.2-1.4,2.9-2.4.5-.8.8-1.6.9-2.1.5-.5,1-1.1,1.5-2.1s.6-1.6.7-2.1c1-1.2,3.1-4,4.1-7.6l.2-1v-.4c.5-3.2,0-6.3-.2-7.7.8-1.4,2.3-4.5,2.4-8.1,1.7-1.1,4.5-2.9,8.1-4.5,0,2.2.2,4.4-.5,7.8-.8,4.1-3.8,7.5-5.3,9s-1.8,2-1.8,2c0,0-.5.4-.4,1.3v.5c.8.7,2.8.4,2.8.4,8.5-.9,14.3-8.1,16.7-14,1.5-3.7,2.9-8.6,3.7-11.6,4.9-.9,9.5-1.3,12.6-1.6,1.4-.1,2.5-.2,3.2-.4,1.9-.3,5.4-.8,5.6-4.1,0-1.1,0-2.7-.5-5.1"/>
    <path d="M161.1,126.5c-.2-1.4-1.6-2.6-2.3-2.8-.7-.2-2.5-.6-2.5-.6,1.3-3.7,1.3-6,1.3-6,1.2-.6,3.5-1.5,3.5-1.5-.8-4.1-3.6-7.3-3.6-7.3.2-.8.8-2.3.8-2.9s-1-1.5-2.1-2.2-1.2-1.9-1.2-3.4-.6-3.3-.8-3.4c-.2,0,2.8-1,3.7-3.6s1-4.8,1-4.8c-1.2,1.8-6.1,2.5-6.1,2.5-.4-4.1-3.7-17.3-17-29.3-13.3-12-35.9-14.1-35.9-14.1,0,.7,0,1.5-.2,2.3-.2,1.1-.5,2.5-1.1,3.5,0,0,0,0,0,.2-3.1-1.7-6.4-4-7.9-6.6-2.9-5.1-2.6-9.6-4.1-13.2-2.5-5.9-6.2-9.2-7.3-10.1-.6-.5-.8-.7-1.2-.5-.3.3,0,.6.2,1,.2.4,2.5,4.7,3.4,10.7.8,5.9-.3,15.3,2.5,21.4,1.7,3.8,4.6,6.7,6.5,8.4l.2.2.6.6c-4,.4-7.7.2-11.6-2-6.3-3.2-11.2-10.6-12-18.4v-.9c-.4-2.1-.3-4.3-.4-6.4,0-2-.3-3.9-.6-5.8,0-.8-.3-1.7-.5-2.5h0c0-.5-.2-1-.4-1.5,0-.3-.2-.7-.3-1-.2-.7-.6-1.4-1-2.1-.5-.8-1-1.6-1.7-2.3-.4-.4-.8-.8-1.2-1.1,0,0-.4-.3-.7-.1,0,0-.4.3,0,1.1,0,0,0,.2.2.4,0,.2,0,.4.2.6,0,.2,0,.4.2.7.3,1.7.5,5.4-.8,12.3h0c0,1-.2,2-.4,3.1-.6,3.3-1.1,7-1.2,10.8v.8c0,3.4.6,25.9,23.8,32.9,0,.5-.2.9-.3,1.4-1.6,9.9-1,14.1-1,14.1h0c-4.7,1.9-10.1,4.3-15.8,7.5-6.3,3.5-13.2,8.2-19.9,14.6-1.3,1.2-2.4,2.4-3.6,3.6-.3.3-.5.6-.8.9h0c-3.5,3.8-6.2,7.3-8.2,10.2,10.5-7.6,26.9-9.8,31.9-10.1,5.2-.3,10.6-1.2,10.6-1.2,0,0,2.1,1.1,4.6,1.7,2.8.6,5.8-.3,5.8-.3,1.1,5.4,4.9,8.9,5.9,9.7-.3,1.6,0,7,1.8,10,2,3.2,5.2,5.4,5.2,5.4,0,0-.2,2.9.5,5s2.6,4,2.6,4c0,0-.8,1.4-.9,3.1s.9,2.7.9,2.7c0,0-.9,1.2-1.1,2.1-.2.9.4,2.3.4,2.3,0,0-.6,1-.7,1.8-.2.8.3,1.8.3,1.8-.4.7-1.5,4.2.2,5.6,1.7,1.4,3.7-1.2,3.7-1.2.6-.2,1.8-1,2.4-1.9.7-1.1.7-2.1.7-2.1,0,0,.9-.6,1.7-2,.6-1.2.5-2,.5-2,0,0,3.6-3.8,4.3-8.5.6-4-.3-7.7-.3-7.7,0,0,2.7-4.1,2.6-8.8,1.8-1.3,6.3-4.2,11.8-6.3.2,3.2.7,5.9-.3,11-1.2,6.3-6.9,11-6.9,11,7.9-.8,13.1-7.8,15.2-12.8,1.7-4.1,3.3-9.9,4-12.5,7.7-1.5,14.7-1.9,17-2.2,3.1-.5,3.9-1.2,3.9-2.3s-.2-3.2-.5-4.6h0Z"/>
    <path class="st0" d="M83.9,34.4c.6,2.7.7,7,.7,7-.2-1.5-.8-3.9-1.3-5.6.2,1.2.3,2.3.4,3.3.4,3.2-.4,9,1.9,15,1.5,3.9,4.7,6.8,6.6,8.2,1.6-2.2,3.6-5.1,5-7.3-7.8-4.8-9.7-9.4-10.9-15.9-.2-1.1-.4-2.1-.7-3,.2,2.5,0,4.8,0,4.8-.3-2.4-1.8-6.6-1.8-6.6h.1ZM63.6,34.8v1.5c0,1.3-.4,2.9-.5,4.2s-.4,2.6-.6,4c0,.4,0,1.1,0,1h0c0-.8-.3-3.4-.3-6.4v-.6.4c-.5,2.9-1.1,6.8-1.1,11.1v.7c0,1.3,0,6.9,2.4,13,3.6,9.3,10.7,15.5,20.9,18.4,5.1,1.4,10.8,2.5,14.8,3.7h0s4.4,1.3,7.1,3.3c0,0-2.9-.6-5.8-1,2.1,3.2,5.7,5.2,9.8,5.2s5.9-1.2,8-3.1c-.5.4-1,.6-1.4.8-1,.5-2,.7-2.7.7-1.7.5-3.4.3-3.8.2h0c5.1-.9,9.8-4.8,9.3-10.7-.2-2.5-1-5.2-2.6-6.9,2,1.7,3.3,4.1,3.6,6.9,0,1.4,0,2.7-.4,4,.6-1.4,1-2.9,1-4.6.4,1.7.2,3.2-.2,4.5.5-1.3.8-2.6.8-4v.5h0c0-.9,0-1.7-.3-2.5h0c-.7-4.5-3.9-8.7-8-10.6-1.2-.6-5-2-9-2.4-1.8-.2-3.8-.2-6.2,0-1.1,0-2.1.2-3.2.4-5.5.7-10.7,1.4-16.3-1.8-6.9-3.5-12-11.3-13-19.8v-.9c-.2-1.2-.3-2.4-.4-3.6,0-1.1-.3-1.6-.3-1.5v.3c0,.9-.2,1.8-.4,2.7-.2,1.1-.4,3.1-.4,3v-2.9c0-1.5-.3-5.9-.4-6.4,0,0,0-.6-.2-.7h-.2Z"/>
    <path class="st1" d="M135.7,91.5c-.7,0-3.3.3-4.1.4,0,0-.3,0-.7,0v.2s-1.1,8.4-5.1,13.9c1,.6,3.7,1.4,4.6,2.2,1.7,1.6,1.8,3.8,1.7,4.7,0,.9-.2,2.5-1,5.7,0,0-.2-4.6-.6-5.9-.4-1.3-1.9-2.6-3.4-3-.7-.2-1.9-.5-3.3-.8-2.6,3-5.3,5.1-7.8,7.3.3.4.6.8,1.2.9,1.5.4,3.4-.5,3.4-.5,0,0-1.2,5.6,2,10.3,2.4,3.5,7,2.6,7,2.6,0,0,1-7,5.4-12.6,4-5.2,8.9-7.8,12.3-8.8-.1-.6-.3-1.9,0-2.6.3-.9,1.3-1.6,2.4-1.6s2.4.6,2.4.6c-.6,0-2.2-.2-3,.7-.6.7-.3,2-.2,2.6,3.1-.6,6-.2,6.6,0,.6,0,1.1,0,1.3-.7s.2-1.6-.2-1.9-1-.4-1.7-.9-1.2-1.7-1.1-3.4c0-1.7-1-4.1-1-4.1-2.4.9-7.9-.7-11.4-1-3.5-.2-5.9,1.4-5.9,1.4-.9-2.4.1-5.6.1-5.6h0v-.2ZM144.9,96.8c1.6,0,2.7.4,2.7.4-1.7,0-2.9.7-2.9.7.4.5,1.1,1.6,1.2,1.9v.3h0c0,.6-.3,3.2-.9,3.9,0,0-.2.3-.3.4-.7.7-1.9,1.3-4.2,2.9-2.5,1.8-4.5,5.3-4.5,5.3,0,0,.7-3.4,2.3-5.3,1.9-2.4,4.5-4,6-4.8l.7-3.1c-.5-.4-1.2-.7-1.9-.8-1.4-.2-3.6-.2-5-.7h0c1.7-.2,2.7-.7,5.1-1.1.6,0,1.2,0,1.7,0h0ZM155.4,118.3s-9.2,4-11.9,11.3c0,0,5.5.1,8.7.5,3.1.4,5.1.4,5.8.4s2.1.1,1.7-2.4c-.4-2.5-1.1-3-2.4-3.5-1.2-.5-3.3-.4-3.3-.4,0,0,1.6-3.9,1.4-6h0ZM113.9,118.4l-.6.6s1.9,2.6,3,7.4c.9,3.7-1.4,9.7-1.4,9.7,0,0,1.2,3,1.7,6.7,0,0,0,0,.2-.1,0,0,6.4-3.4,9.9-4.8.5-.2,1.2-.5,2-.7,0-1.4.2-3.4.5-5.3h-1.8c-3.6,0-5.8-2.1-7.4-4.5h0c-1.6-2.4-2.8-7.3-2.8-7.3,0,0-2.1,0-3.3-1.7h0ZM142.3,131.4h0c-.4.7-.8,1.4-1.1,2.4,1.2-.2,2.3-.4,3.4-.6,5.8-.9,10.6-1,11.4-1.1.8-.1,2.2,0,2.7-.5,0,0-1.6.1-3.4,0-1.8,0-8.6-.3-12.9-.3h0Z"/>
    <path class="st2" d="M101.5,49.5s-.2,2-1.4,4.6c-.4.9-1,1.9-1.7,2.9-1.1,1.4-3.2,4.4-5.2,7.4,0,0-.4.6-.4.6.7,0,1.5-.2,2.2-.3,1,0,2.1-.3,3.2-.4,2.5-.3,4.6-.3,6.6,0,3.9.3,7.6,1.6,9.3,2.4,4.9,2.1,8.8,7.1,9.4,12.3h0v1.2h0c1.2,0,7.6-.9,12.9-.8,4.8,0,9,.5,11,.9-2.1-4.6-5.3-10.1-10.2-14.7-11-10.4-24.6-15.4-36-15.9h0l.3-.2ZM84.7,84c0,.2,0,.5,0,.7,0,.8-.2,1.7-.3,2.5,2.1-.5,4.6-1.1,7-1.5h.2,0c-.4,0-.8-.2-1.2-.3-.8-.2-1.7-.4-2.5-.6-.9-.2-1.9-.4-2.8-.7h-.2ZM157.1,90.6s-1.1.5-3.4,1c-2.4.5-7.1-.2-8.6-.4-1.4-.2-5.7-.5-6.9.3s-.9,3.3-.9,3.3c0,0,1-1,3.4-1.6s5.6-.2,5.6-.2c-1.8.4-2.9,1-2.9,1,3.4.4,4,1.6,8.6,1.2,4.6-.3,5.1-4.7,5.1-4.7h0ZM128.7,92.4c-1.3,0-2.4.3-3.6.4h0c-1.2,4.1-3.5,7-7.2,8.7-4.8,4.9-12.1,8.4-16.1,11-7.1,4.6-8.3,13.6-8.3,13.6.8-13.8,9.2-15.6,18.5-22.4.2,0,.7-.4.8-.5h-.3c-1.2,0-3.5,0-4.6-.4-1,.7-2,1.3-2.9,1.8-4.8,2.6-8.2,6.9-8.2,6.9,1.3-4.4,4.4-6.2,9-9.4-1.7-.7-3.6-1.9-5-3.2-2.7,1.4-8.7,5-12.7,8.8-3.2,3-9.1,7.3-16.1,10.6,5.5-3.6,14.7-11.8,18-14.9,0,0-12.2,7-15.6,9.4,0,0,4.5-5,10.1-8.1,0,0-12.4,5.1-19.5,9.9-3.7,2.5-9.3,7.6-12.6,11.1,1.3-.3,6.4-1.3,7.8-1.5,9.1-.9,19.1-.2,27.9-10.8,0-.2.3-.3.4-.5-.8,2.6-1.1,6.3-.9,10.3.3,8.8,7.2,12.3,9.8,14.1,0-1.1-.2-2.2.7-6,1.1-4.2,4-7.6,4.6-8.1,0,0-4.5,6-3.2,15.4,0,0,1.2-7.7,7-15.3,5.8-7.6,11.4-11.1,16-16.8,2.6-3.1,4-6.2,4.9-8.9.7-2,1-4,1.2-5.5h0v.3ZM98.7,96.2c-1.3.3-18.1,2.5-38.6,16.2-6.8,4.5-15.1,12.6-19.2,17.1,1.8-.8,5.5-2.4,8.5-3.3,3.1-3.1,8.1-8.2,12.7-11.4,10.7-7.5,28.9-15.2,37.4-17.5-.2-.2-.4-.5-.5-.8l-.4-.3h0ZM153.1,108.9c-1.8,0-4.2.3-7,1.6-5.5,2.5-10.7,7.5-12.9,12.6s-2.4,10.6-2.7,14.6c-.2,4,.4,10-1.1,15.4,0,0,2.6-3.8,3.5-14.6.8-9.8,3.3-16.5,7.8-19.6,0,0-3.6,5-4.8,13.1-1.2,8.2-1,11.4-2.5,18.1l-.4,1.3s3.6-4.8,5.5-17.4c1.7-11,4.9-15.9,9.3-18.5,0,0-5.9,6.4-7.3,15.6,0,0,3.3-8.3,8.6-11.7,5.3-3.5,9.8-4.6,9.8-4.6,0,0-.2-2.8-3.1-5.6,0,0-1.1-.3-2.9-.3h.2ZM86.3,117.5s-4.1,4.9-8.6,6h-.2s2.6,1.4,4.7,1.4,3.9-.7,3.9-.7c0,0-.4-5,0-6.7h0ZM111.4,120.4s-5.3,5.8-7.3,10.5c-1.8,4.2-2.5,7.6-2.6,9.4,2.2,1.4,4.9,3,6.3,4.2.4-.9.7-1.7,1.1-2.5,2.4-4.6,4.7-6.3,5.6-11.1s-1.4-8.5-3.1-10.4h0ZM93.5,137.2s0,4.7,2.3,8.2c1.7,2.7,6.4,5.1,9.4,6.9.3-1,1-3.5,2-6.3-1.2-.9-4.8-3.6-6.9-4.8-2.7-1.5-5.6-3.1-6.7-4.1h-.1ZM113.4,138.6c-.4.6-1,1.6-1.4,2.1-1.2,1.6-4,7.7-5.2,12.6.4.2.7.4,1,.6,1.3.9,2.1,1.7,2.6,2.2.6-1,1.7-2.1,2.2-2.9,1.7-3,2.9-6.6,2.5-9.9-.3-2.2-1.3-4-1.7-4.7h0ZM101.2,152.3c0,1,0,3.5,1.5,5.5,1.8,2.6,4.4,3.9,4.4,3.9,0,0,1.2-2,2.4-4.3-.8-.7-1.9-1.5-3.2-2.3-1.2-.8-3.3-1.8-5.1-2.8h0ZM112.4,155.9s-2.1,2.8-3.6,5.5c-1,1.9-2,4.3-2.4,5.6,0,0,.2.1.3.2,1,.7,2.2,2.4,2.2,2.4,0,0,2.7-3,3.7-6.3,1.1-3.3-.2-7.4-.2-7.4h0ZM104,161.2c-.5.6-1.3,1.3-.7,3.1.3,1.1,1.2,1.7,2,2.1.5-1.7,1.2-3.5,1.2-3.5-1.3-.6-2.5-1.7-2.5-1.7h0ZM103.3,166.5s-.8,1.1-.5,2.3c.3,1.3,1.5,1.8,2.7,2.5,1.3.6,1.7,1.9,1.7,1.9.9-.6,1.3-1.6.8-2.6s-1.4-1.9-2.8-2.6c-1.3-.6-2-1.5-2-1.5h.1ZM102.9,170.7c-1.3,2.2-.7,2.7,1.1,4.1,1.2.9,1,2.1,1,2.1,0,0,1.7-.8,1.6-1.9,0-.7-1.1-2.2-2.1-2.8-1-.7-1.6-1.4-1.6-1.4h0ZM102.5,174.9c-.7.9-1.1,2.7-.6,3.3.5.5,1.1.5,1.5,0s.5-1.2,0-1.9c-.4-.6-.9-1.4-.9-1.4h0Z"/>
    <path class="st4" d="M148.5,82c-1.5-.3-6.1-1-11.9-1s-11.6.6-12.9.8h0c0,7.8-6.7,13.4-13,13.5-9.5,0-13-7.5-13-7.9-.7-.2-1.4-.4-2.1-.6-1.3.2-2.6.3-4,.6-2.6.5-5.3,1.1-7.5,1.7,0,1.2-.3,3-.3,3.2-.3,6.6,0,6.1,0,6.1,1.9-.7,9-2.6,9-2.6,2.1-.5,4.5-1,7.4-1.5,2,4.1,6.2,6.9,11.1,6.9s11.1-4.4,12.1-10.1c13.2-1.4,19.5-1.5,27.6-.4-.9-4.6-2.5-8.6-2.5-8.6"/>
  </g>
</svg>