<?xml version="1.0" encoding="UTF-8"?>
<svg id="Layer_1" xmlns="http://www.w3.org/2000/svg" version="1.1" xmlns:cc="http://creativecommons.org/ns#" xmlns:dc="http://purl.org/dc/elements/1.1/" xmlns:rdf="http://www.w3.org/1999/02/22-rdf-syntax-ns#" viewBox="0 0 200 200">
  <!-- Generator: Adobe Illustrator 29.1.0, SVG Export Plug-In . SVG Version: 2.1.0 Build 142)  -->
  <defs>
    <style>
      .st0 {
        fill: #fff;
      }

      .st1 {
        fill: #b0b7bc;
      }

      .st2 {
        fill: #002344;
      }

      .st3 {
        fill: #024;
      }

      .st4 {
        fill: #c60c30;
      }
    </style>
  </defs>
  <rect class="st2" width="200" height="200"/>
  <path class="st0" d="M189.2,68.5c-23,5.4-24-7.9-58.7-10.3-46.6-3.3-85.8,17-117.1,19.6-6.8.6-5.9,6.2-1,7.2,11.8,2.8,24,2.4,35.1.9-.4.9-.8,2.3.5,3.3,4.4,3.8,22.2,4.1,30,3.6,2.6-.2,8.3-.7,8.3-.7-1.6.2-4.1,5.1,1.2,6.4,32.9,9.2,48.4,24.1,66.1,47.5,7.2-.9,14-9.6,11.1-16.2l1.4-3.6,5.3-2.5-1.5-11.9,8.1-3.8s12.6-33.9,13.4-36.4c.7-2.5-.8-3.6-2.2-3.3"/>
  <path class="st3" d="M101.7,86.3c9.2-1,17.4-.7,26.3,4.7-18.5-2-27.6,3.2-39.2,4.3,40.8,10.7,55.7,33.6,65.9,46.3,7.1-3,7.5-9.2,5.7-11.3l1.8-3.9v-2.5c0,0,5-2.3,5-2.3l-1.5-12.1,9.1-3.7,12.1-33.1c-20.5,4.3-27.1-9-56.3-10.8-11.9-.7-22.6-.2-32.6,1.1l1.6,10.1c6.7-.2,13,.6,19,3.3-6.6-.4-12.5.1-18.3,1.2l1.5,8.7"/>
  <path class="st4" d="M96.1,63.2c-28.7,4.1-52.2,14.3-83.1,18.4,34.8,5.7,62.2-7.1,85-8.5,0,0-1.9-10-1.9-10ZM98.8,77.9c-15,3-28.6,9.1-46.8,9.6,21.1,4,35.7.5,48.4-1l-1.5-8.5Z"/>
  <path class="st1" d="M133.2,114.3c11,7.7,16.7,16.3,22.4,23.8,2.9-1.2,3.8-4.6,2.9-5.8l-2.8-3.4,3.2.2,1.5-2.5-3.9-.2-4.4.8,4.5-3.1,3.4.2v-1.9c.1,0-3.4-1.7-3.4-1.7l1.2-1.3,6.5.4-1.9-14.4c-2.6-.3-4.7,1-5.6,4.7l-11.5-.7c1.6-3.7,4.1-5.3,8.9-4.7-2.7-3.7-15.7-4.1-17.6,1.8l10.1,8.3,1.3,7.6-4.2-6c-3.7-3.2-7.7-5.5-10.7-1.9"/>
  <path class="st0" d="M167.2,77.1l.8,7.2,8.1,3.1-7.6,1.9.8,9.8-6.6-8.2-9.9,2.3,6.1-7.1-5-6.7,8.4,2.9,4.9-5.2"/>
</svg>