<?xml version="1.0" encoding="UTF-8"?>
<svg id="Layer_1" xmlns="http://www.w3.org/2000/svg" version="1.1" xmlns:cc="http://creativecommons.org/ns#" xmlns:dc="http://purl.org/dc/elements/1.1/" xmlns:rdf="http://www.w3.org/1999/02/22-rdf-syntax-ns#" viewBox="0 0 201 201">
  <!-- Generator: Adobe Illustrator 29.1.0, SVG Export Plug-In . SVG Version: 2.1.0 Build 142)  -->
  <defs>
    <style>
      .st0 {
        fill: #0b2268;
      }

      .st1 {
        fill: #fff;
      }

      .st2 {
        fill: #a71930;
      }
    </style>
  </defs>
  <rect class="st0" width="201" height="201.9"/>
  <g>
    <path class="st2" d="M74.8,38.6c-5.9.1-11.6,1.9-15.9,5.2v-4.2H20.6v21.9s8.9,0,8.9,0c1.8,0,3.3,1.5,3.3,3.3v62.2h26.1v-58.7h0c0-3.5,2.9-6.3,6.6-6.3s6.5,2.7,6.6,6.2v47.4c0,1.4.3,2.7.7,3.9,1.6,4.3,5.7,7.4,10.6,7.4h24.5v-21h-.5s-5.7,0-5.7,0h0c-1.8,0-3.3-1.5-3.3-3.3v-.5s0,0,0-.1c0-.8,0-1.6,0-2.4v-15.9c0-1.9,0-3.1,0-3.1v-5s0-18.9,0-18.9c0-.6-.1-1.4-.3-2.4-.4-1.7-1.1-4-2.6-6.2-3.1-4.6-7.1-7.1-12.5-8.5-2.7-.7-5.4-1-8.1-.9h0ZM103,39.6v21.9h6.8c1.8,0,3.3,1.5,3.3,3.3v42.7c.4,7,4.6,13.5,9.9,16.5,5.3,4.2,18.3,6.2,25.3,3.7,0,0,3.2-1,5.1-2.2v5.4c0,1.3,0,2.1-.5,3.1-.9,1.9-2.8,2.9-5.9,3H32.8s0,25.4,0,25.4h123.8c3.8-.2,7.3-.6,10.3-1.5,4.1-1.2,13.4-5.6,13.4-19.4s0-5.3,0-5.5h0V39.6h-26.8v56.1c0,.7,0,1.4,0,2,0,.3,0,.5,0,.8-.3,2-1.5,3.8-3.3,4.8-1,.6-2.2.9-3.5.9-3.7,0-6.8-2.8-6.8-6.3v-58.3s-36.9,0-36.9,0h0Z"/>
    <path class="st1" d="M75,42.2c-5.1,0-10,1.6-13.8,4.5l-5.9,4.5v-8h-31c0,4.1,0,10.5,0,14.5h5.2c3.9,0,7,3.1,7,7v58.5h18.7v-54.4s0-.6,0-.6c0-5.5,4.6-10,10.3-10s10.1,4.4,10.3,9.9v47.4c0,.9.2,1.8.5,2.6,1.1,3,4,5,7.1,5h20.8v-13.6h-2.5c-3.9,0-7-3.1-7-7h0v-.4c0,0,0-.2,0-.2v-2.4s0-15.9,0-15.9c0,0,0-3.1,0-3.1v-5s0-18.8,0-18.8c0-.2-.3-1.8-.3-1.8-.4-1.8-1.1-3.4-2.1-4.9-2.5-3.7-5.6-5.8-10.4-7-2.3-.6-4.7-.9-7-.8h0ZM157.2,43.3v54.6s-.1.9-.1.9h0c-.4,3.2-2.3,6-5.1,7.6-1.6.9-3.5,1.4-5.3,1.4-2.8,0-5.6-1.1-7.6-3.1-1.9-1.9-2.9-4.3-2.9-6.8s0-48.2,0-54.7h-29.6v14.5h3.1c3.9,0,7,3.1,7,7v42.6c.4,5.5,3.6,10.9,8.1,13.4h0s.2.1.2.1l.2.2c4.4,3.5,16,5.2,21.8,3.1h.1c1.1-.4,3.1-1.2,4.1-1.8l5.7-3.8v12.3c0,1.5-.1,2.8-.7,4.3v.2c0,0-.1.2-.1.2-1,2.3-3.5,5-9.3,5.1H36.5v18c6.9,0,119.8,0,120,0,3.5-.2,6.7-.6,9.3-1.3,4-1.2,10.8-5,10.8-15.9,0,0,0-91.4,0-98.2h-19.4,0Z"/>
  </g>
</svg>