<?xml version="1.0" encoding="UTF-8"?>
<svg id="Layer_1" xmlns="http://www.w3.org/2000/svg" version="1.1" viewBox="0 0 200 200">
  <!-- Generator: Adobe Illustrator 29.1.0, SVG Export Plug-In . SVG Version: 2.1.0 Build 142)  -->
  <defs>
    <style>
      .st0 {
        fill: #fff;
      }

      .st1 {
        fill: #115740;
      }
    </style>
  </defs>
  <rect class="st1" width="200" height="200"/>
  <path class="st0" d="M100,152.9c-12.4,0-33.2-3.3-50.7-12.5-17.1-9-29.6-19.5-35.1-29.5-1.9-3.4-2.8-7.2-2.8-10.9,0-3.8.9-7.6,2.8-10.9,5.5-10,17.9-20.5,35.1-29.5,17.5-9.2,38.2-12.5,50.7-12.5s33.2,3.3,50.7,12.5c17.1,9,29.6,19.5,35.1,29.5,1.9,3.4,2.8,7.2,2.8,10.9,0,3.8-.9,7.6-2.8,10.9-5.5,10-17.9,20.5-35.1,29.5-17.5,9.2-38.2,12.5-50.7,12.5"/>
  <path class="st1" d="M183.6,100c0-3-.8-6-2.2-8.7-4.9-9-16.8-19-33.1-27.5-16.7-8.8-36.4-11.9-48.3-11.9s-31.6,3.1-48.3,11.9c-16.2,8.5-28.1,18.5-33.1,27.5-1.5,2.7-2.2,5.7-2.2,8.7,0,3,.8,6,2.2,8.7,4.9,9,16.8,19,33.1,27.5,16.7,8.8,36.4,11.9,48.3,11.9s31.6-3.1,48.3-11.9c16.2-8.5,28.1-18.5,33.1-27.5,1.5-2.7,2.2-5.7,2.2-8.7h0Z"/>
  <g>
    <path class="st0" d="M139.6,91.2l-5.5,9.5c-.6,1-.1,2.3.9,2.7l10,3.9h-21.4l-3.3,5.7h32c.7,0,1.3-.4,1.6-.9l5.5-9.5c.6-1,.1-2.3-.9-2.7l-12.4-4.9h17.7l2.7-4.7h-25.4c-.7,0-1.3.4-1.6.9h0,0Z"/>
    <path class="st0" d="M133.6,95l2.7-4.7h-30.3l-2.7,4.7h7.6l-10.4,18h15.1l10.4-18h7.6Z"/>
    <path class="st0" d="M99.5,95l2.7-4.7h-24.6l-13.1,22.8h31.2l3.3-5.7h-16.1l2.2-3.8h8.5l2.7-4.7h-8.5l2.2-3.8h9.5,0Z"/>
    <path class="st0" d="M163.3,84.5s-2.2-.5-8.8-.9l-23.1-2.3c-12.7-1.1-23.9-4.1-34.2-11.3h-.3l8.7,14.1h-44.2l-12.8,22.3c-.3.6-1,.9-1.6.9h-14.1l-3.3,5.7h28.1c1.4,0,2.6-.7,3.3-1.9l14.2-24.7h93.7c-1.2-.7-3-1.5-5.5-2h0s0,0,0,0Z"/>
  </g>
</svg>