<?xml version="1.0" encoding="UTF-8"?>
<svg id="Layer_1" xmlns="http://www.w3.org/2000/svg" version="1.1" xmlns:cc="http://creativecommons.org/ns#" xmlns:dc="http://purl.org/dc/elements/1.1/" xmlns:rdf="http://www.w3.org/1999/02/22-rdf-syntax-ns#" viewBox="0 0 201 201">
  <!-- Generator: Adobe Illustrator 29.1.0, SVG Export Plug-In . SVG Version: 2.1.0 Build 142)  -->
  <defs>
    <style>
      .st0, .st1 {
        fill: #fff;
      }

      .st1 {
        stroke: #fff;
        stroke-miterlimit: 1.2;
        stroke-width: .3px;
      }

      .st2 {
        fill: #004c54;
      }

      .st3 {
        fill: #034c58;
      }

      .st4 {
        fill: #a5acaf;
      }
    </style>
  </defs>
  <g id="Layer_2">
    <rect class="st3" width="201" height="201"/>
  </g>
  <g>
    <path class="st0" d="M114.3,51.3l-8.2,8.6c13.4-5.6,42.6-15.1,42.6-15.1l-9.4,9.2c25.5-7.6,44.9-11.1,44.9-11.1,0,0-5.6,13.1-14,26.2,1.6-.2,12.2-1.4,12.2-1.4,0,0-9.6,15.8-20.6,27.2l6.2,1.5s-9.6,13.9-22.3,25.2c-18.3,16.3-27.6,13.8-27.6,13.8-13.6,9.8-24.4,4.8-24.4,4.8,0,0,4.7-11.8-.2-13.1-4.4-1.1-11,2.3-11.8,3.7-.9,3-4.5,10.6-8.2,15.2-7.2,8.8-15.2,12.4-15.2,12.4,0,0-6.3-5.4-6.3-14.5,0,0-4.3,4.6-11.3,6.1-4.9,1-11.6.2-18.5-5.5-4.6-3.9-5.5-16.8-5.5-16.8,0,0,4.3-8.3,12.7-15.6-1.9-1.6-3-3.6-3.3-4.8,22.3-9.7,22.3-19,40-30.3,17.4-11.1,28.4-16.2,48.4-25.5"/>
    <path class="st2" d="M103.5,59.2l-7,7.3c13.8-6.1,43-16,43-16l-8.5,8.3c29.9-9.3,48.9-12.4,48.9-12.4,0,0-6.2,13.8-14.4,25.5,4-.4,12.3-1.4,12.3-1.4,0,0-8.3,14-20.6,25.8,1.4.2,7,1.5,7,1.5,0,0-7.4,11-20.3,22.3-16.5,14.4-23.8,12.7-23.8,12.7,0,0,.2-.6.1-1.4,0-.5-.1-.9-.1-1-12.7,11.9-23.2,7.9-23.2,7.9,0,0,4.7-11.4-2.5-13.6-5.6-1.8-14.1,2.8-14.8,5.2-.7,2.7-4.3,10-7.8,14.3-6.1,7.5-12.8,10.9-12.8,10.9,0,0-6.1-4.7-4-18.5.5-3-.1-4.2-.5-4.7-1-1.5-8.8.1-10.8,4.5-1.3,3.1,6.4,5.7,6.4,5.7,0,0-3.6,4-9.9,5.2-3.9.8-10.1.6-16.5-5-3.8-3.3-4.6-14.4-4.6-14.4,0,0,4.7-8.6,13.8-16-1.8-1.2-3.2-3.2-3.5-4,18.4-7.9,20.9-19.2,41.7-31.7,9.7-5.8,19.9-11.6,32.3-17.1"/>
    <g>
      <path d="M152.5,97.9c.7.2,3.8.7,5.5,1.4-6.3,10.3-25.2,30.4-35.8,31.3-.1-1.8-.8-3.3-1.6-4.3-4,7.3-16.1,11.7-21.1,10.5,6.1-22.4-19.8-13.8-21.8-7.7-5.2,15.9-18.3,23.4-18.3,23.4,0,0-4.2-4.8-2.4-15.5,1.3-7.9-3.7-7.7-3.7-7.7-2,0-9.6.8-12,6.1-1.9,4.3,4.8,7.2,4.8,7.2,0,0-9.7,7.8-21-1.9-2.8-2.4-3.8-12.3-3.8-12.3,5.4-9,12.6-14.7,15.5-16.8-3.1-1.2-4.1-2.8-4.1-2.8,15.1-6.9,21.1-18.5,34-27,14.2-9.4,25.1-14.1,25.1-14.1l-4.1,5.2s3.4-1.5,4.9-2.2c13.5-6.6,36.4-13.9,36.4-13.9l-7.1,6.9s11.8-4.1,26.8-7.2c7.9-1.7,24.6-5.2,24.6-5.2,0,0-3.9,11.5-12.2,23.1,5-.4,10.4-.6,10.4-.6,0,0-5.8,11.7-18.9,24.2"/>
      <path d="M90.9,82.4c-.2,0-.3.1-.5.2.1,0,.3-.1.4-.2,0,0,0,0,0,0"/>
      <path d="M90.3,82.6s0,0,0,0c0,0,0,0,0,0"/>
    </g>
    <path class="st1" d="M108.2,109.4s-7.2-3.5-18.7.2c0,0,15.7-9.3,35.7-5.4-12.9-4.3-24.6-2.3-31.4,0-4,1.6-6.4,2.8-6.4,2.8,0,0,1-.7,2.9-1.9,4.7-3.4,11.1-7.2,17.4-9.8,4.4-1.8,13.2-4.2,16.7-4.4,0,0-9.2-1.6-17.5.6,0,0,13.2-5.2,26.1-5.5,4.3,0,14.2.4,14.2.4-14.2-4.2-28.9-5-39-3.5-5.7,1.4-10.2,2.8-10.2,2.8,0,0,.8-.4,2.3-1,3.6-2.2,18.5-10.1,46.2-14.5,0,0-3.5-.4-7.9-.4s-13.1,1.5-13.1,1.5c6.3-2.9,18.2-5.7,32.8-7.1,0,0-22.4-2.7-49.6,5.8-.2,0-.4.2-.4.2,0,0,2.9-2.1,6.1-4.2,2.4-1.6,5.8-4,5.8-4,0,0-13.9,3.3-32.8,12.3-5.3,2.5-8.1,4-8.1,4,.8-.9,4.6-4.3,5.5-5.4-14,6.9-19.1,11.4-27.4,20.2-7.4,7.9-7.1,9.2-18.3,15.3,0,0,8.3,3.4,16.7-2.1,1.5-.9,2.8-2.3,4.1-3.7,3-3.4,2-7,5.9-9.5-.6,1.3-1.5,3-1.6,4.7,1.9-2.6,5.6-6,9.8-8.5,10.6-6.3,17.6-7.4,17.6-7.4-.3,0-.5.2-.8.3-14.5,6-16.8,13.9-16.9,14.7-.2,1.8,5.2-2.2,9.6-2.7-4.6,1.6-8.6,5.6-10.5,10.1-.8,1.9-1.1,4.1-3.4,5.8-.6.6-1.5,1.2-2.6,1.7-3,1.4-5.2.7-5.9.2-.4-.3-.7-.8-.7-.8,1.5.4,3.5,0,5.3-1.1,1.4-.9,2.4-2,2.9-3.1,0,0,0,0,0,0,.3-.6.8-1.8,0-3.3-.4-.8-1.3-1.2-2.2-1.3,0-.2.6-1.5,2.2-3.4-2.2,1.6-3.6,3.4-4.3,4.3,1,.1,1.9.6,2.4,1.4,1,1.6,0,4-2,5.2-2.1,1.3-4.6.9-5.6-.7-.1-.2-.2-.4-.3-.6-.1,0-.2.1-.3.2-.7.3-2,.9-2,.9.6.1,1.5.2,2,.1.2,2.3,1.6,6,9.7,3.9-2.3,2.3-7.9,2.1-11.2.4.5.3,1,.7,1.6,1.1,10.1,6.3,21.8.4,24.7-1.3.7-.4,1.4-.8,2.1-1.2,0,0-3,2.6-5,6.6,3.6-4.5,13.9-11.8,27.7-10.1"/>
    <path class="st4" d="M71.1,99.4c.4,1.5,3,0,3,0,0,0-3.5,3-4.9,6.2,0,.2,0,.8-.5,1.7.3,0,.7.1,1,0,.9,0,2-.7,2-.7,0,0,0,1.9-2,3.7,2.3-1.7,2.5-3.9,3.4-5.8,1.9-4.6,5.9-8.5,10.5-10.1-4.4.5-9.8,4.5-9.6,2.7,0-.8,2.4-8.7,16.9-14.7-.1,0-.5.2-.5.2-13.3,5-20.3,12.8-19.2,16.8"/>
    <path class="st2" d="M65.6,105.4c.7,1.1,0,2.8-1.5,3.7-1.5.9-3.3.7-4-.4-.1-.2-.2-.4-.2-.6-.3.2-.6.4-.9.6,0,.2.2.4.3.6,1,1.6,3.5,1.9,5.6.7,2.1-1.2,3-3.6,2-5.2-.5-.8-1.4-1.3-2.4-1.4-.2.3-.5.6-.8,1,.8,0,1.6.3,2,1"/>
    <path d="M64.1,109.2c1.5-.9,2.2-2.6,1.5-3.7-.4-.6-1.1-1-2-1-.6.7-1.3,1.5-2.1,2.3,0,.6.1,1.5.9,2.1,0,0-.9,0-1.5-.4-.3-.2-.5-.5-.5-.7-.2.1-.4.3-.5.4,0,.2.1.4.2.6.7,1.1,2.5,1.3,4,.4"/>
    <path class="st0" d="M60.9,108.5c.6.4,1.5.4,1.5.4-.8-.6-.9-1.4-.9-2.1-.4.3-.7.7-1.1,1,0,.2.2.5.5.7"/>
    <g>
      <path class="st4" d="M147.1,86.6s-9.8-.5-14.2-.4c-12.9.3-26.1,5.5-26.1,5.5,8.4-2.1,17.5-.6,17.5-.6-3.6.2-12.3,2.5-16.7,4.4-6.3,2.6-12.7,6.3-17.4,9.8,7.5-4.4,28.7-14.8,55.7-9.1,0,0,1.8-1.4,6.5-6.5,5-5.5,6-8.8,6-8.8,0,0-22.9-2.5-39.5,0-3.6.5-7.4,1.4-10.8,2.2,10.1-1.5,24.8-.7,39,3.5"/>
      <path class="st4" d="M94.2,113.8c18.7-4.6,31.7,1,33.3,6.9,0,0,0,0,.2,0,.8-.4,3.7-1.7,8-6,4.6-4.5,7.5-8.2,8.6-10.6-19.1-9.6-40.3-3.8-50.6.2,6.9-2.3,18.5-4.4,31.4,0-19.9-4-35.7,5.4-35.7,5.4,11.4-3.7,18.7-.2,18.7-.2-13.8-1.7-24.2,5.6-27.7,10.1-.3.6-.5,1.1-.8,1.7,3.2-3,6.6-5.5,14.5-7.4"/>
      <path class="st4" d="M158.2,64.4c-14.7,1.4-26.5,4.2-32.8,7.1,0,0,8.7-1.5,13.1-1.5s7.9.4,7.9.4c-27.7,4.3-42.5,12.3-46.2,14.5,3.7-1.6,11.6-4.6,23-6.8,10.7-2.1,23.2-2.7,28.3-3.2,7.2-6.9,10-15.7,10-15.7,0,0-12.5,1-26.7,3.6-14.7,2.7-24.3,6.6-26.2,7.4,27.1-8.5,49.6-5.8,49.6-5.8"/>
      <path class="st4" d="M83.7,121.3s4.7-3.5,12.7-2.3c11.8,1.9,11.5,9.4,11.5,9.4,0,0,5.3-2.3,8-7,0,0-3.3-3.2-9.4-4.3-15.8-2.8-22.9,4.1-22.9,4.1"/>
      <path class="st4" d="M46.4,118.3c-1.2.3-3.7.7-2.5-1.1,0,0,1.5-.8,3.6-1.9.9.7,1.8,1.2,4.2,1.4,0,0-4.3,1.2-5.2,1.5h0ZM51.3,112.7c-3,.9-6.9.7-9,0-2.5,1.7-11.3,5.5-16.9,15,.3,3.2.6,7.4,1.9,9.6,5.4,8.5,14.8,5.4,14.8,5.4,0,0-14.3-6.4,1-15.6,4.9-3,18.4-5.2,26.5-2.6.7.3,1.5.9,1.5,1-.8,4.1-4.2,15.6-9.8,18.9-3.1-4.5,5.1-15-3.3-15.4,0,0,2.1,3.2,1.2,7.6-.4,1.9-1.7,7,.6,12.2,0,0,12.7-7.6,16.5-25.2.5-1.7.8-3.2,1.6-4.5-16.3,6.4-26.6-6.5-26.6-6.5"/>
    </g>
    <path d="M43.9,117.2c-1.2,1.8,1.3,1.4,2.5,1.1.9-.3,5.2-1.5,5.2-1.5-2.4-.2-3.3-.7-4.2-1.4-2,1.1-3.6,1.9-3.6,1.9"/>
  </g>
</svg>