<?xml version="1.0" encoding="UTF-8"?>
<svg id="Layer_1" xmlns="http://www.w3.org/2000/svg" version="1.1" xmlns:cc="http://creativecommons.org/ns#" xmlns:dc="http://purl.org/dc/elements/1.1/" xmlns:rdf="http://www.w3.org/1999/02/22-rdf-syntax-ns#" viewBox="0 0 201 201">
  <!-- Generator: Adobe Illustrator 29.1.0, SVG Export Plug-In . SVG Version: 2.1.0 Build 142)  -->
  <defs>
    <style>
      .st0 {
        fill: #eead1e;
      }

      .st1 {
        fill: #fff;
      }

      .st2 {
        fill: #00539b;
      }

      .st3 {
        fill: #efaf21;
      }

      .st4 {
        fill: #c60c30;
      }

      .st5 {
        fill: #a5acaf;
      }
    </style>
  </defs>
  <rect class="st3" y="-.2" width="201" height="201.3"/>
  <path d="M22.7,100.4c0,42.9,34.9,77.9,77.8,77.9s77.8-34.9,77.8-77.9c0-42.9-34.9-77.9-77.8-77.9S22.7,57.4,22.7,100.4"/>
  <path class="st5" d="M100.5,176.5c42,0,76.1-34.1,76.1-76.2S142.5,24.2,100.5,24.2c-42,0-76.1,34.1-76.1,76.2s34.1,76.2,76.1,76.2"/>
  <path class="st1" d="M100.5,164.1c35,0,63.5-28.4,63.5-63.5s-28.4-63.5-63.5-63.5-63.5,28.4-63.5,63.5,28.4,63.5,63.5,63.5"/>
  <path class="st0" d="M100.8,100.7c.7-26,25.3-32.1,31.5-31.6-15.2-.8-30.2-7.3-31.4-31.3-1.8,22.4-10.8,28.8-31.5,31.4,14.8.7,29.7,6.6,31.4,31.5"/>
  <path class="st4" d="M132.4,132.9c.7-26,24.9-32.4,31-31.9-15.3-.6-29.9-7.8-31.1-31.9-1.8,22.4-10.8,28.9-31.5,31.6,14.8.7,29.9,7.3,31.5,32.2"/>
  <path class="st2" d="M101.2,163.8c.7-26,25-31.5,31.2-31-15.2-.8-30.4-8.1-31.5-32.2-1.8,22.4-10.5,29.1-31.2,31.8,14.8.8,29.9,6.5,31.6,31.4"/>
  <path d="M49.6,91c-.6,0-1.2.1-1.8.4-.7.3-1.2.8-1.5,1.4-.3.6-.5,1.1-.6,1.8,0,1.5.6,3,2,3.9,1,.6,1.7.7,2.5,1.5.4.4.4,1.5.3,1.7-.4.7-1.4.4-1.7.2-.3-.3-.4-1.2-.3-1.6h-2.7c-.1,1.2,0,2,.3,2.8.4.8.9,1.1,1.6,1.5,1.5.7,3.4.6,4.8-.7.3-.3.5-.7.5-.7.3-.8.7-1.7.4-3.2-.1-.7-.4-1.2-.6-1.5-.5-.7-.9-1-2.2-1.7,0,0-.4-.2-.4-.2-1.4-.5-2-1.3-1.6-2.3.2-.5,1.2-.7,1.6-.4.3.3.3.8.4,1.2h1s1.8,0,1.8,0c0-1.2-.2-1.9-.5-2.3-.7-1.2-1.9-1.8-3.3-1.8h0ZM72.7,91.3v13.4h2.6v-13.4h-2.6ZM57.3,92.8l-2.6,1.4v.9h-1s0,2.2,0,2.2h1s0,5,0,5c0,2.7,2.3,2.3,3.5,2.3v-2.9c-1,0-.9-.2-.9-.7v-3.8h1s0-2.2,0-2.2h-1s0-2.3,0-2.3h0ZM91.2,95c-.4,0-.9,0-1.3.3-.4.2-.7.1-1.3,1-.3.4-.4.9-.4,1.4,0,1,.3,2.4,1.7,2.8.8.2,1.7.3,2.1.9.2.3.2.5,0,.8-.1.4-1,.4-1.3.2-.3-.1-.5-.5-.5-.8h-2.1c0,.8,0,1.3.4,2,.3.6.9,1,1.5,1.2,1.1.3,2.4.3,3.3-.3.2-.1.7-.5.8-.9.3-.6.5-1.3.2-2.3-.1-.5-.2-.5-.2-.7-.5-1-1.2-1.2-1.8-1.4,0,0-.6-.2-.6-.2-1.2-.1-1.3-.8-1.1-1.3.1-.4.4-.5.8-.5.3,0,.7.2.7.5,0,.2,0,.4,0,.6h2.2c0-.9-.2-1.7-.7-2.2-.6-.6-1.5-1-2.5-1h0ZM87.1,95c-.8.2-1.1.6-1.4,1.2v-1.2s-2.5,0-2.5,0v9.5h2.5v-5.5c0-.6-.1-1.3,2-1.2v-2.9h-.6,0ZM62,95.1c-.5,0-1.1.1-1.8.4-.8.6-1.3,1.3-1.3,2.2v4.6c0,1.2.5,2,1.6,2.3.8.2,1.6.4,3,0,1.3-.4,1.6-1.2,1.5-2v-1.1s-2.1,0-2.1,0v.3c0,1.1-1.9.9-1.9,0v-1.3h4v-2.9c0-1-.5-1.7-1.5-2.2-.5-.2-1-.3-1.5-.3h0ZM68.9,95.1c-.5,0-1.1.1-1.8.4-.8.6-1.3,1.3-1.3,2.2v4.6c0,1.2.5,2,1.6,2.3.8.2,1.6.4,3,0,1.3-.4,1.6-1.2,1.5-2v-1.1s-2.1,0-2.1,0v.3c0,1.1-1.9.9-1.9,0v-1.3h4v-2.9c0-1-.5-1.7-1.5-2.2-.5-.2-1-.3-1.5-.3h0ZM79.2,95.1c-.5,0-1.1.1-1.8.4-.8.6-1.3,1.3-1.3,2.2v4.6c0,1.2.5,2,1.6,2.3.8.2,1.6.4,3,0,1.3-.4,1.6-1.2,1.5-2v-1.1s-2.1,0-2.1,0v.3c0,1.1-1.9.9-1.9,0v-1.3s4,0,4,0v-2.9c0-1-.5-1.7-1.5-2.2-.5-.2-1-.3-1.5-.3h0ZM61.9,97.3c.6,0,1.2.4,1,1.3h-1.9c-.1-.9.3-1.3.9-1.3h0ZM68.9,97.3c.6,0,1.2.4,1,1.3h-1.9c-.1-.9.3-1.3.9-1.3h0ZM79.1,97.3c.6,0,1.2.4,1,1.3h-1.9c-.1-.9.3-1.3.9-1.3h0Z"/>
</svg>