<?xml version="1.0" encoding="UTF-8"?>
<svg id="Layer_1" xmlns="http://www.w3.org/2000/svg" version="1.1" xmlns:cc="http://creativecommons.org/ns#" xmlns:dc="http://purl.org/dc/elements/1.1/" xmlns:rdf="http://www.w3.org/1999/02/22-rdf-syntax-ns#" viewBox="0 0 201.4 201.4">
  <!-- Generator: Adobe Illustrator 29.1.0, SVG Export Plug-In . SVG Version: 2.1.0 Build 142)  -->
  <defs>
    <style>
      .st0 {
        fill: #fff;
      }

      .st1 {
        fill: #69be28;
      }

      .st2 {
        fill: #024;
      }

      .st3 {
        fill: #a5acaf;
      }

      .st4 {
        fill: #02244b;
      }
    </style>
  </defs>
  <rect class="st4" width="201.4" height="201.9"/>
  <g>
    <path class="st0" d="M158.1,124.7c-7.3-1.3-14.8-1.9-22.2-1.8H33.8c-6.4,0-13,0-16.3-5.2-3.5-5.2-1.6-10.5,4.1-20.8.4-.8,18-33.7,18-33.7,1.1,1.3,2.3,2.6,3.5,3.7,1.8,1.4,3.7,2.1,8.5,2.1,8.6,0,64.6-.1,65.1-.1,11.3,0,22.8,1.1,30.2,9.3,4,.4,16.3,2,26.6,6.9,5.9,2.8,9.9,7.1,11.5,12.3.4,1.6.6,3.3.6,5,0,5-1.8,10.5-5.4,16.3-7.8,12-14.9,16.3-15.2,16.4-2.5,1.8-5.5,3-8.6,3.3,2.2-2.6,3.9-5.5,5.1-8.6,1.3-4.4-3.4-5-3.4-5Z"/>
    <path class="st2" d="M172.3,87.7c-11.8-5.7-26.8-6.8-26.8-6.8-6.5-8.1-17.6-9.2-28.7-9.2,0,0-56.4.1-65.1.1s-11.2-4.1-11.2-4.1l-13.7,25.6h35.5c11.2,0,11.8-1.1,19.1-6.7,7.9-5.8,14.2-7.8,21.7-7.8s12.3,1.6,20.7,5.2c8.2,3.7,12.6,5.5,17.6,3.4,0,0-3.8,5.2-15.6.3-11.8-4.8-14.9-5.9-22.1-5.9s-15,3.4-25.1,13.5l12,9.6s-2.8,4.4-4.7,7.1-1.7,4.5-.7,5.9c1,1.3,2.3,1.8,6.7,1.8h44c7.6,0,15.3.7,22.8,2,11.3,2.3,4,11.8,4,11.8,0,0,7.6-5,15-16.7,8.4-13,6.2-23.6-5.4-29.2Z"/>
    <path class="st0" d="M151.6,89.7c-5.2-1.3-.7-4.2-.7-4.2-5.1,1.1-9.3,4.6-11.2,9.5-.1.3-.3.4-.4.7-4.2,8.5-8.1,8.1-15.3,8.1h-12.3c-10.1,0-14.7,5-19.5,13.5h5.7c5.2-7.8,9.1-9.8,19.4-10.3,23.4,0,41.9,6.7,51.8,11.8,14-23.5-6.8-27.3-17.4-28.9Z"/>
    <path class="st0" d="M108.2,117c2.5-4,7.9-5.2,16.4-4.8,21.2,1.3,33.4,5.4,42.8,8.9-11.6-6.8-32.4-11.8-46.9-11.8s-13.2,1.3-16.7,7.6h4.4Z"/>
    <path class="st0" d="M130.8,93.7c-2.7,4-6.4,5.2-16.7,4.5-11.9-.8-8.8-5.9-7.5-8.4h0c.4-.7,1-2,1.7-3.1-9.2-.6-15.9,6.5-15.9,6.5,6.8,6.8,11.3,7.5,17.6,7.5h11.6c10.8,0,13.3-4.8,14.3-7.1-1.7.3-3.4.3-5.1,0Z"/>
    <path class="st1" d="M125.6,92.5c-.2,0-.5-.2-.7-.3-1.2,1.2-2.9,1.8-4.5,1.6-2.4-.3-3.7-2-3-3.7,0-.3.1-.6.3-.8-1.1-.4-2.4-.8-3.5-1.3-2.4,3.8-3.7,6.4,4.5,7.1,5.1.4,6.5-.4,7.6-2.3-.3-.1-.4-.1-.7-.3Z"/>
    <path class="st3" d="M84.1,107.3c-4.2,7.4-5.9,9.1-3,12.6h-47.3c-7.1,0-11.6-.3-13.9-3.8-2.3-3.5-1.8-6.8,4.2-17.8h40.2c6.9,0,8.8.4,12.5,3.3,3.8,3,7.2,5.8,7.2,5.8Z"/>
  </g>
</svg>