<?xml version="1.0" encoding="UTF-8"?>
<svg id="Layer_1" xmlns="http://www.w3.org/2000/svg" version="1.1" xmlns:cc="http://creativecommons.org/ns#" xmlns:dc="http://purl.org/dc/elements/1.1/" xmlns:rdf="http://www.w3.org/1999/02/22-rdf-syntax-ns#" viewBox="0 0 201 201">
  <!-- Generator: Adobe Illustrator 29.1.0, SVG Export Plug-In . SVG Version: 2.1.0 Build 142)  -->
  <defs>
    <style>
      .st0 {
        fill: #b1babf;
      }

      .st0, .st1, .st2, .st3, .st4 {
        fill-rule: evenodd;
      }

      .st1 {
        fill: #fff;
      }

      .st2 {
        fill: #dc4405;
      }

      .st5, .st4 {
        fill: #a71930;
      }
    </style>
  </defs>
  <rect class="st5" width="201" height="201"/>
  <g>
    <path class="st0" d="M175.1,28.4s.4,6.9-.9,13.2c-1.3,6.1-2,8.4-2,8.4-2.7,1.6-7,3.5-13.3,4.5-11.8,2-22.5-1.2-34.2-5.8-11.7-4.6-27.3-9.5-41.8-7.9-14.1,1.6-24.1,7.3-29.5,11-5.3,3.7-6.3,4.7-10.9,6,0,0,3.6,1.4,5.5,1.4,0,0-.9,3.6-.5,4.8,0,0,7.6-3.5,8.5-1.9.9,1.6-2.7,2.7-5.2,3.4-2.5.7-9.1.5-9.1.5,0,0,3.1,2.4,4.2,4,0,0-5.8,2.5-12.2,1.6,0,0-.2,2.4,5.1,6.3-1.1.4-2.6,1.1-3.4,2,0,0,5.5-1.1,9,2.7.9,1.2,1.2,2.2,1.1,3.5-.2,2.4-1.1,3.3-3.3,4.7-1.3.5-2.6,1.2-3.9,2-6.1,3.8-10.6,9.5-13.8,16.1-1.4,2.8-2.5,6.1-3.2,9.1-.8,3-1.1,5.7-1.2,7.4-.2,1.7-.4,6.9-.4,6.9,0,0,2.8-3.9,4-5.7,1.3-1.8,9.4-12.1,21.3-15,3.8-1,7.6-1.4,11.2-1.4,8.7,0,16.4,2.3,21,4.6,6.7,3.2,17.6,10.8,31.9,13.2,3.4.6,7,.8,10.8.8s7.4-.3,11.1-.8c-2.1,3.2-4.1,6.1-6.1,8.8-2-1.9-4.6-2.1-4.6-2.1-3.2-.3-4.8,1.7-4.8,1.7-.7.7-1.1,1.6-1.3,2.7-.2,1,0,2.2.2,2.7.6,1.9,2.3,2.8,2.9,3.1-4.7,6.3-6.1,13.5-6.1,13.5l-2.1,1.9.8,3.1c-1.2,3.8.7,6.7,3.1,7.9,2.5,1.2,4.8.5,4.8.5,1.5-.4,2.8-1.3,3.7-2.7.1-.2.3-.4.4-.6.5-.3.9-.6,1.3-.9.7,0,2.4.1,2.4.1,3.6,0,7-1,9.7-3.3,2.1-1.9,4.4-5.1,4.5-9.4,0-.8.2-4.1-2.6-7,17.2-25.2,28.3-41.5,35.5-58,18.9-43.8,2.8-62.1,2.7-62.2h0Z"/>
    <path class="st3" d="M176.5,36c-.2,9.1-2.7,15.5-2.7,15.5-3.6,2.1-8.5,4.4-14,5.3-11.6,1.7-17.4,0-28.2-3.5-10.8-3.5-27-10.9-43.6-10.8-16.6.1-28.5,7.3-39.1,15.5.2,0,2.8-.9,3.7-1.2,0,0-2.5,2.9-3.2,4.5,0,0,4.9-3.7,11.7-3.3,0,0-2.4.6-3.3,2.1,0,0,2.8-.6,3.2.5.5,1.1-1.2,3.5-4.2,4.9-3,1.4-8,2.5-11.1,2.7,0,0,3.1,1,5.2,2.9,0,0-2.4.3-5,1.4-2.2.9-6.1,1.4-7.8,1.2,0,0,2.3,2.1,5,3.8,8,5,4.6,12.3,2,14.7-1.7.5-19.3,5.3-23.4,33.7,0,0,8.9-12.5,22.5-15.9,13.5-3.4,26.7,0,33.5,3.4,6.9,3.4,17.5,10.7,31.4,13,7.6,1.3,16.8,1,25.7-.7-.1.2-6.9,10.3-9.8,14.4,0,0-2.2-2.7-5.1-3,0,0-1.2-.2-2.2.3h0c-.9.4-1.6,1.3-1.9,2.5-.2,1.2.2,2.2.8,2.8.5.6,1.2,1,1.8,1.1.5.1,1.2.4,1.3,1.1-1.3,2.1-3.2,5-4.5,7.9-1,2.3-1.5,4.2-1.9,5.5-.4,1.3-.7,1.9-.9,1.9l-1.4,1.2s.5,2.2.7,2.5c-.3.6-.5,1.4-.5,2.1h0c0,1.5.7,3,2,3.8,1,.7,2.5.8,2.5.8,1.5,0,2.9-.7,3.8-2,.2-.3.4-.7.5-1,1.1-.4,1.7-1,2-1.5.8.2,3.1.3,3.2.3,3.2,0,6.2-.9,8.4-2.8,1.8-1.6,3.7-4.3,3.8-8,0-.7.2-4.1-3.1-6.8,2.8-4.1,6.3-9.2,10-14.8,6.8-10.4,12.4-19.4,16.7-26.9,4.5-7.6,18.4-28.6,18.3-57.4,0-8.4-3-13.8-3-13.8h0Z"/>
    <path class="st4" d="M89.2,45.4c-22.1-.1-32.9,11.5-32.9,11.5,0,0,5.3-1.9,7.9-.2,2.9,1.9.3,6.7-.6,7.7-2.7,2.8-6.5,4.8-10.7,4.8,0,0,4.5,1.1,5.9,2.4,0,0-4.2.5-6.4,1.3-2.3.8-6.7,2.1-7.7,2.1,0,0,11.7,5.3,4.4,16.7,0,0,5.1-.8,9.3,1.2,0,0-23.1-3.7-30.9,21.8,2.9-2.4,12.2-8.9,26.6-9,17.4,0,24.8,3.9,31.7,8.1,10.5,6.4,18.5,8.3,24.5,9.4,17.4,3.2,34.8-2.6,42.4-6.1,21.9-33.6,24.5-52.6,24.8-66.2-7.1,7.1-19,8.9-24.4,8.9-16,0-33.4-9.1-48.8-12.5-5.6-1.2-10.7-1.8-15.3-1.8h0ZM110.9,53c4.2-.1,8.4,1.4,8.5,1.4,0,0,7.7,2.4,10.4,7,2.8,4.7,2.4,8.9.7,12-1.7,3.1-3.3,4.8-3.2,5.9,0,1,.5,1.9.5,1.9,0,0-1.9,3.8-4.7,4.9,0,0-1.6,4-3.2,5.4-1.7,1.3-4.2,2.7-6.4,4.5-.9.7-1.9,1.2-3,1.4,0,0,.1.1.2.2,4.5-.1,11.3-.7,18.4-2.6,12.5-3.4,24.4-14.8,24.4-14.8-3,9.7-4.3,13-12.1,18.5-7.8,5.5-19.9,7.2-19.9,7.2-.1.5-.9,1.1-.9,1.1,0,0,1.2.5,4.3,2.8,3.1,2.3,2.2,2.2,3.2,2.8.9.6,1.5.5,1.5.5h0c.3.6.3,1.5.3,1.5.4.4,2.4,2.3.5,4.3-1.9,2-4,.1-4,.1-.8.2-1.5,0-1.5,0,0,0-4,2.5-7.9-.2-3.2-2.2-3-4.8-2.8-5.7-1.1.6-2.2,1.1-3.4,1.5-3.2,1-7.3,1.4-11.4,0-2.7-.9-4.9-2.5-6.6-4.2-1.8-1.7-3-3.7-3.9-5.4-.1-.3-.2-.5-.4-.8-.3.7-1.6,3.2-5.8,3-4.8-.2-6.4-4.6-6.4-4.6,0,0-.7-.2-1.2-.8,0,0-2.8.2-3.1-2.5-.3-2.7,2.4-3,3-3.1,0,0,.6-.7,1.1-1,0,0,.3.5,1.5.5,1.2,0,.4-.3,4.3-.3,3.8,0,5.1.4,5.1.4,0,0-.3-.9,0-1.4,0,0-8.7-8.7-11.6-17.7s-2-12.4,1.5-22c0,0,2.6,16.3,10.6,26.5,4.5,5.8,9.7,10.4,13.2,13.2,0,0,.2,0,.2,0-.8-.8-1.3-1.8-1.6-3-.7-2.8-1.9-5.4-2.4-7.5-.5-2.1.7-6.2.7-6.2-1.6-2.6-.8-6.8-.8-6.8,0,0,.9-.4,1.5-1.2.7-.8.4-3.2,1-6.6.5-3.5,2.8-7.1,7.8-9.1,1.2-.5,2.6-.7,4.1-.8h0Z"/>
    <path class="st2" d="M100.2,96.1c-4.9,0-9.2,2.3-10.4,3.8,0,0-.1.2-.2.3,0,0,0,0,0,0,.5-.4,1-.5,1-.5-.8.4-.8,1.2-.6,1.5,1.2,2.9,4.9,7.7,10.5,9.6,5.7,1.9,11.6.4,14.3-1.3.3-.2.7-.8.3-1.5,0,0,.3.3.5.8,0-.5,0-1.2-.3-2-1.1-3.2-4.6-8.1-10.1-10-1.7-.6-3.3-.8-5-.7h0ZM94.7,99.3c1,0,2,0,3.1.2-.2.2-.4.5-.6.8-2.4-.4-4.6-.6-6.4-.6.9-.2,2.3-.3,3.9-.3h0ZM109.4,103.4c2.5,1.5,4.4,3.1,5.4,4.2-1.4-1-3.2-2.2-5.4-3.3,0-.3,0-.6,0-.9h0Z"/>
    <path class="st1" d="M112.7,55.3c-7.4,0-8.9,5.9-8.9,7.5,0,1.3,0,2.1,0,2.6.7-.3,1.5-.7,2-1.2-.1.1-2.2,2.5-4.4,2.8,0,0-.5,2.1-1.1,3.2-.6,1.1-1.7,1.8-1.7,1.8-.1,1.5.7,3.7,1.6,4.2.9.5,3.4,1.3,4.3,2.4.9,1.1,1,2.2.8,3.1,0,.3-.2.7-.3,1,0,0,0,0,0,0,.2,0,.3.2.3.3,0,0-.1,0-.2.2,0,.1-.2.4-.2.5-.1.3-.2.6-.3.9,0,0,0,0,0,0-.1.3.2.4.2.4,0,0,0,0,0,0,.3,0,.5.1.8.2h0c0,0,.4,0,.5-.3.1-.4.2-.7.4-1,0,0,0,0,0,0h0s0-.3.1-.4c0-.1.2-.4.3-.4s.3,0,.3.4c0,.3,0,.5,0,.5,0,0,0,0,0,0-.1.4-.4,1.4-.4,1.4-.1.4.3.5.3.5.2,0,.6.1.9.2,0,0,0,0,0,0,0,0,.3,0,.4,0,.1,0,.2-.2.2-.3,0,0,.4-1.5.5-1.6,0-.1,0-.3,0-.5,0,0,.4,0,.6.1.2,0,.4.2.5.2-.2,0-.3.4-.3.4,0,0,0,0,0,0,0,0,0,.2,0,.3-.1.4-.3.9-.4,1.3,0,.1,0,.4.3.5,0,0,0,0,0,0,.3,0,.6.2.8.3h0s0,0,.2,0c.1,0,.3,0,.3-.2,0-.2.2-.6.3-1,.1-.4.2-.7.2-.7,0,0,0-.2.1-.2.1,0,.2,0,.3,0,.1,0,.2.2.3.2,0,.1-.2.5-.2.6,0,.2-.2.8-.3,1.1,0,0,0,0,0,0,0,0,0,0,0,0,0,0,0,0,0,0,0,.3.3.5.3.5.3.1.5.3.8.4,0,0,0,0,0,0,0,0,.3.1.4-.2,0,0,0,0,0,0,.1-.3.2-.6.3-1,0,0,0-.2,0-.3,0,0,0,0,0,0,0,0,0-.2,0-.3,0,0,0-.1,0-.1,0,0,.2,0,.4.2,0-.7.4-1.2.4-1.2,0-.2.2-.3.3-.4,0,0,0,0,0,0,.4-.7,1.1-1.3,2.2-1.6,1.4-.3,3.8.5,4.9.7.9.2,2.5-.8,3.5-1.9.2-.3.3-.5.3-.5,0,0-.5-1.3-.3-2.5.2-1.2,1.1-3.2,1.1-3.2h0c-1.5-1.6-1.8-4.7-1.8-4.9h0c.1.7.4,1.3.7,2,.3-.4.9-1,1.5-1.9.5-.6,1.3-2.3,1.3-4.4s-1.1-5.2-4.9-7.6c0,0,0,0,0,0,0,0,0,0-.1,0-.5-.3-1-.6-1.5-.8-.2-.1-.4-.2-.6-.3-.2,0-.4-.2-.6-.2-.1,0-.3-.1-.4-.2,0,0-.2,0-.3-.1-.3-.1-.5-.2-.7-.2,0,0,0,0-.1,0-.4-.1-1.8-.5-3.5-.9-.9-.2-1.7-.2-2.5-.2h0ZM76.3,61.5s-1.1,6.6,4.1,16.1l.4.7c.2.4.5.9.9,1.6,1.9,3,4.3,6.2,7.7,9.6h0c.2.2,4.2,4.1,5.9,5.6.7-.2,1.4-.3,2.1-.5-2.5-2-4.9-4.3-7.1-6.6-11.2-12.1-13.3-23.4-14-26.4h0ZM102.8,67.9c0,0,1.3.6,2.4,1.6.1.1.2.2.3.3,1.2,1.3,2.3,2.4,3.3,2.8.4.1.7.1,1.1.1,0,0,0,0,0,0,0,0,.2,0,.3,0,.6,0,1-.2,1-.2,0,0-.6.9-.9,1.4-.4.5-2,2.3-3.2,2.1,0,0,0,0,0,0-1.3,0-3.2-1.1-4-1.8,0-.1-.3-.3-.3-.3,0,0,0,0,0,0,0,0,0,0,0,0,0,0-.2-.5-.3-.5-.4-1-.3-2.2,0-3.1,0-.3.2-.6.3-.8,0,0,.4-.9.2-1.3,0,0,0,0,0,0h0s0,0,0,0h0ZM115.2,73.8s0,0,0,0c0,0,.3.4.6.7,0,0,.1.1.2.2,0,0,0,0,0,0,.3.2.6.4.9.5,1.1.4,2.6.1,4.3-.2.1,0,.3,0,.4,0,1.5-.2,2.8.2,2.8.2h0s0,0,0,0c0,0,0,0-.1,0-.4.1-.6,1.2-.6,1.2,0,.3-.2.6-.3.9-.3.7-.7,1.3-1.2,1.8-.4.4-.8.6-1.2.8h0s-.3,0-.4,0c-1,.1-3.2-.2-4.3-.9,0,0,0,0,0,0-1-.6-1.3-3-1.3-3.6,0-.6,0-1.6,0-1.7h0ZM99.8,81.7c-.4,0-.8,0-1,.3,0,0,.3,1.7,1.1,3.1.8,1.5,1.8,4.1,2.2,5.1.1.4.4.9.9,1.4.7-.4,2.2-.2,4,.3,1.7.6,3,1.4,3.3,2,.6-.1,1.1-.3,1.4-.5.9-.6,3.3-2.1,4.8-2.8,1.5-.7,2.8-1.8,2.8-1.8-.1-.5-.9-1-1.1-1.2-.2,0-.8.2-1.1.4-.3.3-1.6,2.1-3.3,2.9.2-.9-.4-1.4-.6-1.4-.2,0-.3.4-.3.5,0,0-.4.7-.5,1-.1.3,0,.3,0,.3-.3,0-.5,0-.8,0,.3-.5.5-1,.7-1.4.2-.4-.3-.5-.3-.5-.2,0-.5,0-.7-.1,0,0,0,0,0,0-.3,0-.5.1-.5.2,0,0,0,.1,0,.2-.1.3-.2.5-.3.8,0,0,0,0,0,0-.1.3,0,.6,0,.6,0,0-.3,0-.7,0-.2,0-.4-.1-.4-.1.1-.1.2-.3.2-.3.2-.6.6-1.5.6-1.5,0,0,.1-.4-.1-.5-.3,0-.7-.2-1-.3-.3,0-.4.2-.4.2,0,.1-.1.3-.2.4-.1.4-.3.7-.4,1.1,0,0,0,0,0,0,0,.2,0,.5,0,.5,0,0-.3,0-.5-.1-.2,0-.4-.2-.4-.2,0,0,0-.2.1-.2.2-.5.3-1.2.4-1.8,0,0,0-.3-.2-.4-.3-.1-.6-.2-.9-.3-.3,0-.4.1-.4.2-.1.5-.2,1.1-.3,1.6,0,.3.1.5.1.5-.1,0-.4-.1-.6-.2-.1,0-.5-.3-.5-.3.2,0,.3-.4.3-.4.2-.4.3-.7.4-1,0,0,0,0,0,0,0,0,0,0,0,0,.1-.4-.1-.6-.2-.6-.4-.2-.8-.4-.8-.4-.2-.1-.4,0-.4.2-.1.4-.4.8-.5,1.3,0,.3,0,.4,0,.4-.5-.2-.7-.6-.7-.6.1-.1.3-.7.3-1.1,0-.5,0-.9-.2-1.1-.2-.2-.6.2-.8.5-.2.3-.2.5-.2.5h0c-.9-1.5-.8-3.8-.9-4.2-.1-.4-.7-1-.7-1,0,0-.3,0-.7,0h0ZM149.6,86s-.4.4-1.1.9c-.3.2-.6.5-.9.8-3.9,3.1-11.9,8.5-25.1,10.9-3.2.6-6.4.9-9.6,1,.5.5,1,1.1,1.4,1.6,0,0,1.4-.1,1.6-.1,2.4-.2,4.8-.5,7.1-.9,5.8-1.1,10.2-2.5,12.3-3.3.5-.2,1-.4,1.4-.6,10.3-4.5,12.8-10.1,12.8-10.3h0ZM81.5,97.1c-.8,0-1.5,0-2.3.2-.7,0-1.3.2-1.9.2-.1,0-.3,0-.4,0h-.1c-.2,0-.3-.1-.5-.2,0,0,.4,1.5,2.4,1.5,0,0,0-.2.1-.2.2-.4.6-.7.9-.9,0,0,0,0,0,0,.6-.4,1.6-.6,2.2-.6,0,0-.2,0-.3,0ZM82,97.2c-.5.1-1.2.3-1.6.6-.5.3-.8.7-1,1.1,1.7-.2,4.8-.2,5.6,0,0,0,0,0,0,0,.5-.7,1.1-1.1,1.6-1.2-.8-.1-1.8-.2-2.6-.3-.4,0-.8,0-1.2,0-.3,0-.5,0-.8,0h0ZM99.3,98.7c-.2.3-.4.6-.7.9-.2,0-.5,0-.7,0,0,0,0,0,0,0-.2.2-.4.5-.6.8,0,0-.1.2-.2.3.3,0,.5,0,.8.1-.3.5-.5,1-.6,1.5.4,0,.8.1,1.2.2.2-.5.4-1,.6-1.4.4,0,.9.2,1.3.3-.2.5-.4.9-.6,1.4.4,0,.8.2,1.2.3.2-.5.3-.9.5-1.4.4.1.8.2,1.3.4-.2.4-.3.9-.5,1.4.4.1.8.3,1.2.4.2-.5.3-.9.4-1.4.4.1.8.3,1.2.5-.1.5-.3.9-.4,1.4.4.2.8.3,1.1.5.2-.5.3-1,.4-1.5.4.2.8.3,1.2.5,0,.5-.2,1-.4,1.5.4.2.7.4,1.1.6.2-.5.3-1.1.4-1.6.2.1.5.2.7.4,0,0,0-.2,0-.3,0-.3,0-.6,0-.9,0,0,0-.1,0-.2-.2-.1-.4-.2-.6-.3,0-.4,0-.7,0-1.1-.3-.2-.7-.4-1-.5,0,.3,0,.7,0,1.1-.4-.2-.8-.4-1.1-.5,0-.3,0-.7.1-1-.3-.2-.7-.3-1-.4,0,.3-.1.7-.2,1-.4-.2-.8-.3-1.1-.4.1-.3.2-.7.3-1-.3-.1-.7-.2-1-.3-.1.3-.2.6-.4,1-.4-.1-.8-.2-1.2-.3.1-.3.3-.6.5-.9-.3,0-.7-.2-1-.2-.2.3-.4.6-.5.9-.4,0-.8-.2-1.2-.3.2-.3.4-.6.6-.9-.4,0-.7-.1-1.1-.2h0ZM119.6,108.6c.3.4.6,1.1.6,2,.7.4,3.3,2.2,4.5,3.4,0-.4,0-.9-.1-1.5-.2-.5-.6-1-.9-1.4,0,0,0,0-.1-.1-.4-.3-.8-.5-1.2-.8-.6-.4-1.1-.7-1.7-1-.3-.2-.5-.3-.8-.5,0,0-.1,0-.2,0h0ZM123.6,111.1s1.1,1.2,1.4,1.8c.1.4.2.8.2,1.2,0,.1,0,.2,0,.3,0,0,0,0,0,0,0,0,.1.1.2.1.1,0,.2.1.3.2.2,0,.4.2.6.2.1,0,.3,0,.5,0,.4,0,.8-.2,1.2-.4h0c-.2,0-.3-.1-.5-.2-.2,0-.3-.2-.5-.3-.2-.2-.8-.7-1-.9-.2-.2-.4-.4-.6-.6-.3-.2-.8-.8-1.1-.9,0,0-.7-.6-.7-.6h0ZM143.5,123.7s0,0-.1,0c-1.5.5-3,.9-4.5,1.2-.2.3-8.8,13.2-11.9,17.4,0,0,2.1,1.8,2.2,1.9.8-1.1,12.8-18.3,14.4-20.6h0ZM122.5,146.4c0,0,0,.1,0,.2-.7,1.1-1.4,2.2-2.1,3.3-.6,1.1-1.9,3.5-1.9,3.6,0,0-.3,1.8,0,3.2,0,0,0,0,0,0,0,0,0,0,0,0,2.1-4.5,4.4-7.5,4.4-7.6-.4-1.2-.3-2.5-.3-2.7h0ZM118.4,153.5c0,.2-.2.4-.3.6-1.8,4-1.8,6.9-3.6,8.5,0,0,0,0,.1,0,.5,0,2.3,0,3.2-4.3h0c0-.2-.1-.5-.2-.8-.2-1.2.2-3,.6-3.9,0,0,0,0,0,0h0Z"/>
    <path class="st0" d="M111.6,55.2c-7.7,0-9.9,5.8-10.2,7.1-.3,1.4-.3,3.2-.4,4,0,0,1.5-.2,2.9-.8,0-.5,0-1.4,0-2.6,0-1.7,1.9-8.9,11.4-7.2h0c-.3,0-.6-.1-1-.2-.9-.1-1.8-.2-2.6-.2h0ZM121.3,57.6c.5.2,1,.5,1.5.8,0,0,0,0,.1,0,0,0,0,0,0,0,3.9,2.4,4.9,5.2,4.9,7.6s-.8,3.8-1.3,4.4c-.6.9-1.2,1.5-1.5,1.9.5,1,1.2,1.8,1.8,2.4.5-.7,1.5-2,2-3.3.6-1.4,2.8-9-7.2-13.8l-.4-.2ZM76.3,61.5s0,.2,0,.2c-.4,1.3-.6,2.7-.7,4-.1,2.3,0,4.5.6,6.7.5,2.3,1.3,4.6,2.3,6.8,1,2.2,2.3,4.4,3.7,6.4,1.7,2.5,3.7,4.8,5.8,6.9.9.9,1.9,1.8,2.8,2.7.1.1,1.1,1.1,1.2,1,.6-.3,1.3-.6,2-.8l-.3-.3c-9.6-8.5-13.3-17.6-13.3-17.6h0c-5.1-9.4-4.1-16-4.1-16h0ZM106.2,66.1c-.1,0-.2,0-.3,0,0,0,2.2,1.4,3.5,2.7,1.2,1.3,3,3,4.1,3.4,1.1.4,3.6.1,5.3-.2,1.8-.3,4.4,0,4.4,0-1.1-1.3-4.7-1-6.8-.9-1.8.1-2.3-.1-2.5-.2-.1,0-.7-.1-2.1-1.3-1.5-1.2-4-3.5-5.6-3.5h0ZM102.8,67.9s-1.4,2.5-1.5,3.8c-.1,1.3-.2,2.5,1.2,3.5,0,0-.6-.8.1-1.2,0,0,0,0,0,0,0,0,0,0,0,0,0,0-.2-.5-.3-.5-.4-1-.3-2.2,0-3.1,0-.3.2-.6.3-.8,0,0,.4-.9.2-1.3,0,0,0,0,0,0h0s0,0,0,0ZM98.6,72s0,.9,0,1.7,0,.7,0,1c0,.1,0,.3,0,.4.3.9.3,1.5,2.3,2.3.7.3,1.3.6,2,1,1,.5,2,1.2,2.4,2.3,0,0,0,0,0,0,.1.3.1.6,0,.9,0,0,0,0,0-.1,0-.2-.2-.3-.3-.5,0,0,0,0,0,0-.2-.2-.4-.5-.7-.7h0s0,0,0,0c0,0-.2.7-.5,1.3-.2.3-.4.6-.6,1.1,0,0,0,0,0,0-.4,1,0,2.2.2,2.2.1,0,.4-.1.9-1.6,0,0,0-.1,0-.2,0,0,0-.2,0-.3,0,0,0,0,0,0,0-.2.4-.2.6-.2,0,0,.1,0,.2,0,.1-.3.3-.7.3-1,.2-.8.2-2-.8-3.1-1-1.1-3.4-1.9-4.3-2.4-.9-.5-1.7-2.7-1.6-4.2h0ZM111.2,72.4s-.6.9-.9,1.4c-.4.5-2,2.3-3.2,2.1h0c0,0,0,.4-.8,1,0,0,1.4.4,2.4-.1,1-.6,2.4-3.2,4.2-2.6,1.7.6,1.3,3.5,1.8,4.6.5,1.1,1.8,1.5,1.9,1.6-.3-1,0-1.3,0-1.3-1-.6-1.3-3-1.3-3.6,0-.6,0-1.6,0-1.7-.8.4-3.7-.6-4-1.3h0ZM124.5,75.2s0,0-.1,0c-.4.1-.6,1.2-.6,1.2,0,.3-.2.6-.3.9-.3.7-.7,1.3-1.2,1.8-.4.4-.8.6-1.2.8,0,0,0,.1,0,.2.3.8-.7,1.1-.7,1.1,1.7,0,2.4-.9,3.1-2,.7-1.1,1.1-3.9,1.1-3.9h0ZM111.5,76c-.6,0-1.1.4-1.2.9-.1.4-.4.7-.7,1h0c-.2.3-.4.4-.6.6-.2.1-.5.4-.7.8l-.2.5c-.2.7.2,1.5,1,1.8,0,0-.4-.4-.2-1,0,0,0,0,0,0-.2-.2-.3-.6-.2-.9l.2-.6c.2-.6.7-.5,1.2-1.2.3-.4.6-.7.8-1.2.1-.4.6-.7,1.1-.6-.2,0-.4,0-.6,0h0ZM112.3,76.1c.5.2.7.7.6,1.1-.2.5-.1,1-.1,1.5,0,.9.4,1.2.3,1.7l-.2.6c-.1.3-.4.5-.7.6,0,0,0,0,0,0-.2.5-.7.7-.7.7.8.3,1.7,0,1.9-.8l.2-.5c.1-.4,0-.8,0-1,0-.3-.2-.5-.2-.8h0s0,0,0,0c0-.5,0-.8,0-1.2.2-.7-.2-1.4-.9-1.7h0ZM99.5,77.8s0,0,0,0c0,.3-.6,2.6-.7,3.7-.1,1.2,0,1.8.3,2.4.2.7,1.3,3.6,1.5,4.4,0,.1,0,.2.1.4.3,1,.8,3,1.7,4,1.1,1.2,2.2,1.7,3.5,2.1,0,0,0,0,0,0,0,0,0,0,0,0,.7.2,1.3.4,1.9.5.7,0,1.3,0,2.1,0,1.6-.3,3.4-1.9,4.1-2.4.7-.5,3.3-2.2,3.9-2.6.6-.4,1.1-.8,1.7-1.8.6-1,1.6-3.4,1.6-3.4,0,0-1-.2-1.3-.2,0,0,0,0,0,0-.1.3-1.3,2.3-1.7,2.8,0,0,0,0,0,0,.3.1,1,.6,1.1,1.2,0,0-1.3,1.2-2.8,1.8-1.5.7-3.9,2.1-4.8,2.8-.3.2-.8.4-1.4.5-.4-.7-1.7-1.5-3.3-2-1.7-.6-3.3-.7-4-.3-.5-.5-.8-1-.9-1.4-.4-1-1.3-3.6-2.2-5.1-.8-1.5-1.1-3.1-1.1-3.1.5-.4,1.7-.2,1.7-.2,0,0,0-.2,0-.3,0-.9.3-2.7.3-2.9,0,0,0,0,0,0-.3-.2-1.2-.6-1.2-.6h0ZM125.2,81.5c-.9,1.1-2.6,2.1-3.5,1.9-1-.2-3.4-1-4.9-.7-1.2.2-1.9.9-2.2,1.6,0,0,0,0,0,0,0,0,0,0,0,0,.8-.9,2.2-.9,3.3-.7.8.1,1.7.3,2.5.5,2.1.5,2.5,0,3.2-.5.6-.5,1.2-1.2,1.6-1.9,0,0,0,0,0,0h0ZM116,84.3c-1.1,0-1.6.4-1.6.4h0c0,0-.3.6-.4,1.2,0,0,.4.2.5.2,0,0,.2,0,.2.2.1.1.1.2.1.2,0,0-.2,0-.3,0,0,0-.3,0-.3.2-.5,1.5-.3,1.8-.2,1.8,0,0,1.1-.5,1.4-1.6,0,0,.2-.9.2-1.3,0-.6.3-1.2.3-1.3h0s0,0,0,0h0ZM149.6,86c0,.1-2.5,5.8-12.8,10.3h0c0,0-8.6,5.1-21.5,6.1.4.6.8,1.2,1.1,1.8,4-.2,8.1-.8,12-1.9,2.5-.7,4.9-1.6,7.2-2.7,2.3-1.1,4.6-2.4,6.6-4,1.3-1.1,2.5-2.2,3.7-3.5,1.6-1.7,3-3.8,3.7-6,0,0,0-.2,0-.2h0ZM88.9,94.3s0,0,0,0c-.1,0-.2.1-.2.3,0,.2.2.7,0,1.4-.3.8-.8,1.3-1.4,1.5-.6.2-1.3.8-1.5,1.7-.2.9-.7,2.1-.6,2.9,0,.3.4.7,1.1.7-.5.4-.9.4-1.3.2-.6,1.1-1.4,1.5-3,1.2-1.6-.3-3.7-1.9-4.1-4.5,0,0,.5,0,.8,0h0c0-.1-.2-.3-.2-.5,0-.1,0-.2.1-.4-2,0-2.4-1.5-2.4-1.5,0,0-.6.5-.7,1.4,0-.4-.4-.7-.7-.7-.5,0-.9.3-1,.7,0,.5.3.9.7,1,.5,0,.9-.3,1-.7,0,0,0,0,0,0,0,.1,0,.2,0,.3,0,.3.2.5.3.7.3.4.6.5.6.5,0,0,0,0,0,0,0,0,.2-.2.2-.2-.2-.1-1.1-.8-.5-2.2,0,0,0,1.3,1,2,.1.5,1,3.7,4.1,4.7,3.4,1.1,4.7-.5,5.1-1.2.1-.3.5-1.2.5-1.2.3-.9,1.1-4.2,1.3-4.5.3-.4,1.1-1.9.8-3.4,0,0,0-.2-.2-.2h0ZM82.5,98.7c-1.1,0-2.3,0-3.1.1,0,.2-.1.3-.1.5,0,.2,0,.4.2.5,0,0,3.1.2,5,.7,0-.3.2-.6.3-1,0-.3.2-.5.3-.7,0,0,0,0,0,0-.4,0-1.4-.1-2.5-.1h0ZM119.7,104.6c-.1,0-.2,0-.2,0-1.1.9-1.4,2.7-1.4,3.2,0,.5-1.4,3.6-1.7,4.4,0,0-.3.8-.3,1.2,0,.7,0,2.8,3.3,4,3.1,1.1,5.7-1,6.1-1.3.9,0,1.5-.4,1.8-.7.1-.1.2-.2.2-.2-.3,1.1-1,1.4-1.5,1.4-.1,0-.3,0-.3,0,0,0,0,0,0,0,0,.2,0,.3,0,.3,0,0,.1,0,.3,0,.2,0,.6,0,1.1-.4,0,0,.2-.1.2-.2-.2.4,0,.9.4,1.1.4.2,1,0,1.2-.4.2-.4,0-1-.4-1.2-.3-.2-.7-.1-.9,0,.3-.4.3-.9.3-1.1,0,0,0-.3,0-.3,0,0,0,0,0,0-.3.3-.8.4-1.2.4s-.3,0-.5,0c-.2,0-.4-.1-.6-.2-.1,0-.2-.1-.3-.2,0,0-.1,0-.2-.1h0c0,.2,0,.3-.2.4-.1.2-.3.2-.5.3,0,0,0,0,0,0,.2.2.5.3.6.6-1.9,1.8-4.5,1.8-6,1.1-1.4-.7-1.9-1.6-1.7-2.8-.4,0-.8-.3-.9-.9,0,0,0,0,0,0,.3.3.9.4,1.2,0,.3-.3.5-.8.8-1.3.2-.5.4-.9.6-1.4,0-.2.1-.4.2-.6,0-.6,0-1.2-.3-1.7-.3-.5-.5-1.3-.2-2.1.3-.8.7-1.1.8-1.2.1-.1.1-.2,0-.3,0,0,0,0,0,0h0ZM120.1,110.6s0,.4-.2.7c-.1.4-.3.7-.4,1,1.7.8,3.3,1.7,4.4,2.5.1,0,.3-.1.4-.3,0,0,.1-.3.2-.5-1.2-1.2-3.8-3-4.5-3.4h0ZM149.2,121.6c-1.1.5-2.2.9-3.3,1.3-3.2,5.1-14.2,21.4-15.1,22.7.6.5,1.1.9,1.5,1.3,0,0,0,0,0,0,2.8-4.1,14.7-21.9,16.9-25.4h0ZM119.3,140.2c-.1,0-.4,0-.4.3,0,.2,0,.4.4.5.3,0,1.2.2,2.2,1.1,1,1,1.4,2.3,1.4,3.3,0,1.1.4,2.6,1.7,3.6,1.3,1,2.9,2.6,4.2,3,0,0,.2,0,.2,0,.9,0,1.8-.7,1.6-1.2.3,1,0,1.7-.4,2.2,1.5,1.5,2.2,3.2,1.8,4.7-.6,2-2.8,4.6-6.8,4.6-2.9,0-4.5-.8-5.3-1.3,0,0,.2-.6.3-.6-1.7.4-2.3-2.1-2.3-2.2-.9,4.3-2.8,4.4-3.2,4.3,0,0-.1,0-.1,0,0,0,.4,1.4,1.8,2.1-.6-.2-1.3,0-1.7.6-.5.7-.3,1.7.4,2.2.7.5,1.7.3,2.2-.4.5-.7.3-1.7-.4-2.1,0,0,0,0-.1,0,.2,0,.4.1.6.2,1.9.3,2.5-.6,2.5-.6,0,0-.1-.3-.2-.6,0,0-1.8,1.3-3.9-.8,0,0,.7.3,1.9,0,1.7-.3,2-.8,2.1-.9,0,0,0,0,0,0,1.5.8,3.2,1.2,5.5,1.2,2.6,0,5.2-.8,6.7-2.1,1.5-1.3,3.2-4,2.6-6.9-.6-2.4-3.6-4.8-4.4-5.3-1.5-1.4-5.5-4.4-5.9-5.1-.4-.7-2.2-3.2-4.7-3.7,0,0,0,0,0,0h0ZM122.8,149.1s-2.3,3-4.4,7.6c0,.2.1.4.2.6.6,1.4,1.2,1.7,2.3,1.7,0,0,2.6-4.5,4.5-6.9-.4-.3-.8-.7-1.4-1.2-.6-.6-1-1.2-1.2-1.8h0ZM127.3,154.6c-.7.9-1.5,2.2-2.2,3.3-.3.5-.6.9-.8,1.3.2,0,.5,0,.7,0,.8,0,1.6-.1,2.2-.4.8-.3,1.8-1.5,1.7-2.3,0-.2,0-.4-.1-.6-.3-.7-1-1.2-1.5-1.4h0Z"/>
    <path class="st3" d="M110.9,76.6c.1-.4.6-.7,1.1-.6,0,0,0,0,0,0,0,0,0,0,0,0,.5.2.7.7.6,1.1-.2.5-.2,1-.1,1.5,0,.9.4,1.2.3,1.7l-.2.6c-.1.3-.4.5-.7.6-.2,0-.3,0-.5,0-.5-.2-.8-.7-.6-1.2,0,0,0-.2-.1-.2,0,0-.2,0-.2,0-.2.5-.7.7-1.2.5-.2,0-.3-.2-.4-.3-.2-.2-.3-.6-.2-.9l.2-.6c.2-.6.7-.5,1.2-1.2.3-.4.6-.7.8-1.2h0Z"/>
  </g>
</svg>