<?xml version="1.0" encoding="UTF-8"?>
<svg id="Layer_1" xmlns="http://www.w3.org/2000/svg" version="1.1" viewBox="0 0 200 200">
  <!-- Generator: Adobe Illustrator 29.1.0, SVG Export Plug-In . SVG Version: 2.1.0 Build 142)  -->
  <defs>
    <style>
      .st0 {
        fill: #ffb612;
      }

      .st1 {
        fill: #5c1313;
      }

      .st2 {
        fill: #5a1414;
      }
    </style>
  </defs>
  <rect class="st1" width="200" height="200"/>
  <g>
    <path class="st0" d="M130.8,54l5.4,16.5-4,12.3-9.4-28.8h-42l-7.5,23.1-7.5-23.1H15.7l15.8,25.6,21.6,66.3h40.6l8.2-25.1,8.1,25.1h44.4l29.9-91.9h-53.5ZM37.1,77l-10.4-16.9h34.7l8.7,26.9-14.9,45.8-18.2-55.8ZM89.2,140h-29.8l24.4-74.8,14.9,45.8-9.4,29ZM88.6,60.2h29.8l10.6,32.6-14.9,45.9-25.5-78.5ZM149.9,139.9h-29.8l22.6-69.3-3.4-10.4h36.6l-25.9,79.7Z"/>
    <path class="st2" d="M129,92.8l-14.9,45.9-25.5-78.5h29.8l10.6,32.6ZM139.3,60.2l3.4,10.4-22.6,69.3h29.8l26-79.7h-36.6ZM61.4,60.2H26.7l10.4,16.9,18.2,55.8,14.9-45.8-8.7-26.9ZM59.4,139.9h29.9l9.4-29-14.9-45.8-24.4,74.8Z"/>
  </g>
</svg>